Maname-Regular.ufo
<glyph name="exclam" format="2">
	<advance width="210"/>
	<unicode hex="0021"/>
	<outline>
		<contour>
			<point x="77" y="139" type="curve"/>
			<point x="132" y="140" type="line"/>
			<point x="138" y="315"/>
			<point x="146" y="450"/>
			<point x="160" y="599" type="curve"/>
			<point x="134" y="602"/>
			<point x="90" y="601"/>
			<point x="65" y="585" type="curve"/>
			<point x="69" y="461"/>
			<point x="74" y="287"/>
		</contour>
		<contour>
			<point x="103" y="-29" type="curve"/>
			<point x="134" y="-29"/>
			<point x="154" y="-10"/>
			<point x="154" y="24" type="curve"/>
			<point x="154" y="56"/>
			<point x="129" y="74"/>
			<point x="104" y="74" type="curve"/>
			<point x="71" y="74"/>
			<point x="50" y="53"/>
			<point x="50" y="21" type="curve"/>
			<point x="50" y="-12"/>
			<point x="75" y="-29"/>
		</contour>
	</outline>
</glyph>
<glyph name="numbersign" format="2">
	<advance width="494"/>
	<unicode hex="0023"/>
	<outline>
		<contour>
			<point x="22" y="365" type="line"/>
			<point x="121" y="369"/>
			<point x="204" y="371"/>
			<point x="280" y="371" type="curve" smooth="yes"/>
			<point x="356" y="371"/>
			<point x="424" y="369"/>
			<point x="490" y="365" type="curve"/>
			<point x="488" y="386"/>
			<point x="484" y="416"/>
			<point x="482" y="442" type="curve"/>
			<point x="12" y="442" type="line"/>
		</contour>
		<contour>
			<point x="112" y="69" type="curve"/>
			<point x="132" y="70"/>
			<point x="156" y="75"/>
			<point x="182" y="76" type="curve"/>
			<point x="182" y="547" type="line"/>
			<point x="112" y="536" type="line"/>
			<point x="116" y="437"/>
			<point x="117" y="353"/>
			<point x="117" y="278" type="curve" smooth="yes"/>
			<point x="117" y="202"/>
			<point x="116" y="135"/>
		</contour>
		<contour>
			<point x="25" y="176" type="line"/>
			<point x="124" y="180"/>
			<point x="208" y="181"/>
			<point x="283" y="181" type="curve" smooth="yes"/>
			<point x="359" y="181"/>
			<point x="427" y="180"/>
			<point x="493" y="176" type="curve"/>
			<point x="491" y="196"/>
			<point x="487" y="219"/>
			<point x="485" y="246" type="curve"/>
			<point x="15" y="246" type="line"/>
		</contour>
		<contour>
			<point x="301" y="72" type="curve"/>
			<point x="322" y="73"/>
			<point x="352" y="78"/>
			<point x="378" y="79" type="curve"/>
			<point x="378" y="550" type="line"/>
			<point x="301" y="539" type="line"/>
			<point x="305" y="440"/>
			<point x="307" y="356"/>
			<point x="307" y="281" type="curve" smooth="yes"/>
			<point x="307" y="205"/>
			<point x="305" y="138"/>
		</contour>
	</outline>
</glyph>
<glyph name="dollar" format="2">
	<advance width="469"/>
	<unicode hex="0024"/>
	<anchor x="234" y="678" name="top"/>
	<anchor x="249" y="0" name="bottom"/>
	<outline>
		<contour>
			<point x="219" y="-10" type="curve" smooth="yes"/>
			<point x="368" y="-10"/>
			<point x="420" y="90"/>
			<point x="420" y="170" type="curve" smooth="yes"/>
			<point x="420" y="349"/>
			<point x="141" y="392"/>
			<point x="141" y="501" type="curve" smooth="yes"/>
			<point x="141" y="544"/>
			<point x="182" y="580"/>
			<point x="233" y="575" type="curve" smooth="yes"/>
			<point x="311" y="567"/>
			<point x="336" y="503"/>
			<point x="351" y="485" type="curve"/>
			<point x="297" y="609" type="line"/>
			<point x="318" y="554"/>
			<point x="332" y="497"/>
			<point x="333" y="460" type="curve"/>
			<point x="404" y="452" type="line"/>
			<point x="407" y="474"/>
			<point x="410" y="507"/>
			<point x="410" y="539" type="curve" smooth="yes"/>
			<point x="410" y="558"/>
			<point x="409" y="577"/>
			<point x="407" y="591" type="curve"/>
			<point x="407" y="591"/>
			<point x="344" y="615"/>
			<point x="259" y="623" type="curve" smooth="yes"/>
			<point x="251" y="624"/>
			<point x="243" y="624"/>
			<point x="235" y="624" type="curve" smooth="yes"/>
			<point x="118" y="624"/>
			<point x="55" y="541"/>
			<point x="55" y="466" type="curve" smooth="yes"/>
			<point x="55" y="318"/>
			<point x="326" y="291"/>
			<point x="326" y="145" type="curve" smooth="yes"/>
			<point x="326" y="98"/>
			<point x="293" y="43"/>
			<point x="224" y="45" type="curve" smooth="yes"/>
			<point x="137" y="49"/>
			<point x="119" y="82"/>
			<point x="89" y="118" type="curve"/>
			<point x="97" y="75"/>
			<point x="91" y="51"/>
			<point x="136" y="40" type="curve"/>
			<point x="107" y="74"/>
			<point x="105" y="110"/>
			<point x="102" y="156" type="curve"/>
			<point x="34" y="164" type="line"/>
			<point x="28" y="125"/>
			<point x="25" y="92"/>
			<point x="25" y="59" type="curve" smooth="yes"/>
			<point x="25" y="43"/>
			<point x="25" y="28"/>
			<point x="27" y="17" type="curve"/>
			<point x="27" y="17"/>
			<point x="89" y="-10"/>
		</contour>
		<contour>
			<point x="193" y="-93" type="curve"/>
			<point x="259" y="-88" type="line"/>
			<point x="257" y="-67"/>
			<point x="256" y="-23"/>
			<point x="256" y="34" type="curve" smooth="yes"/>
			<point x="256" y="238"/>
			<point x="266" y="613"/>
			<point x="267" y="701" type="curve"/>
			<point x="249" y="698"/>
			<point x="223" y="695"/>
			<point x="203" y="693" type="curve"/>
			<point x="203" y="679"/>
			<point x="204" y="658"/>
			<point x="204" y="632" type="curve" smooth="yes"/>
			<point x="204" y="457"/>
			<point x="196" y="52"/>
		</contour>
	</outline>
</glyph>
<glyph name="percent" format="2">
	<advance width="861"/>
	<unicode hex="0025"/>
	<outline>
		<contour>
			<point x="219" y="-62" type="curve"/>
			<point x="300" y="-62" type="line"/>
			<point x="395" y="167"/>
			<point x="561" y="521"/>
			<point x="625" y="651" type="curve"/>
			<point x="540" y="648" type="line"/>
			<point x="442" y="412"/>
			<point x="338" y="175"/>
		</contour>
		<contour>
			<point x="193" y="261" type="curve" smooth="yes"/>
			<point x="273" y="261"/>
			<point x="345" y="322"/>
			<point x="345" y="446" type="curve" smooth="yes"/>
			<point x="345" y="575"/>
			<point x="279" y="625"/>
			<point x="202" y="625" type="curve" smooth="yes"/>
			<point x="109" y="625"/>
			<point x="46" y="557"/>
			<point x="46" y="435" type="curve" smooth="yes"/>
			<point x="46" y="325"/>
			<point x="105" y="261"/>
		</contour>
		<contour>
			<point x="196" y="312" type="curve" smooth="yes"/>
			<point x="142" y="312"/>
			<point x="120" y="370"/>
			<point x="119" y="447" type="curve"/>
			<point x="119" y="527"/>
			<point x="146" y="578"/>
			<point x="196" y="578" type="curve" smooth="yes"/>
			<point x="240" y="578"/>
			<point x="267" y="525"/>
			<point x="267" y="442" type="curve" smooth="yes"/>
			<point x="267" y="374"/>
			<point x="247" y="312"/>
		</contour>
		<contour>
			<point x="666" y="-11" type="curve" smooth="yes"/>
			<point x="744" y="-11"/>
			<point x="815" y="51"/>
			<point x="815" y="174" type="curve" smooth="yes"/>
			<point x="815" y="303"/>
			<point x="749" y="353"/>
			<point x="673" y="353" type="curve" smooth="yes"/>
			<point x="580" y="353"/>
			<point x="517" y="286"/>
			<point x="517" y="163" type="curve" smooth="yes"/>
			<point x="517" y="52"/>
			<point x="577" y="-11"/>
		</contour>
		<contour>
			<point x="667" y="40" type="curve" smooth="yes"/>
			<point x="612" y="40"/>
			<point x="590" y="101"/>
			<point x="590" y="180" type="curve" smooth="yes"/>
			<point x="590" y="257"/>
			<point x="617" y="306"/>
			<point x="667" y="306" type="curve" smooth="yes"/>
			<point x="710" y="306"/>
			<point x="737" y="256"/>
			<point x="738" y="175" type="curve" smooth="yes"/>
			<point x="738" y="105"/>
			<point x="718" y="40"/>
		</contour>
	</outline>
</glyph>
<glyph name="ampersand" format="2">
	<advance width="666"/>
	<unicode hex="0026"/>
	<outline>
		<contour>
			<point x="273" y="-15" type="curve" smooth="yes"/>
			<point x="504" y="-15"/>
			<point x="577" y="245"/>
			<point x="572" y="321" type="curve"/>
			<point x="568" y="348"/>
			<point x="543" y="360"/>
			<point x="519" y="365" type="curve"/>
			<point x="522" y="278"/>
			<point x="508" y="62"/>
			<point x="273" y="62" type="curve" smooth="yes"/>
			<point x="193" y="62"/>
			<point x="110" y="120"/>
			<point x="110" y="212" type="curve" smooth="yes"/>
			<point x="110" y="304"/>
			<point x="195" y="355"/>
			<point x="239" y="355" type="curve"/>
			<point x="223" y="392" type="line"/>
			<point x="175" y="392"/>
			<point x="40" y="337"/>
			<point x="40" y="193" type="curve" smooth="yes"/>
			<point x="40" y="89"/>
			<point x="121" y="-15"/>
		</contour>
		<contour>
			<point x="632" y="47" type="line"/>
			<point x="456" y="90"/>
			<point x="214" y="294"/>
			<point x="214" y="460" type="curve" smooth="yes"/>
			<point x="214" y="546"/>
			<point x="262" y="586"/>
			<point x="319" y="586" type="curve" smooth="yes"/>
			<point x="389" y="586"/>
			<point x="431" y="544"/>
			<point x="431" y="498" type="curve" smooth="yes"/>
			<point x="431" y="469"/>
			<point x="423" y="420"/>
			<point x="356" y="410" type="curve"/>
			<point x="356" y="382"/>
			<point x="361" y="346"/>
			<point x="367" y="331" type="curve"/>
			<point x="451" y="341"/>
			<point x="515" y="388"/>
			<point x="515" y="483" type="curve" smooth="yes"/>
			<point x="515" y="561"/>
			<point x="439" y="641"/>
			<point x="325" y="641" type="curve" smooth="yes"/>
			<point x="211" y="641"/>
			<point x="126" y="568"/>
			<point x="126" y="446" type="curve" smooth="yes"/>
			<point x="126" y="296"/>
			<point x="303" y="76"/>
			<point x="524" y="-3" type="curve" smooth="yes"/>
			<point x="538" y="-8"/>
			<point x="563" y="-10"/>
			<point x="570" y="-10" type="curve" smooth="yes"/>
			<point x="589" y="-10"/>
			<point x="604" y="-8"/>
			<point x="641" y="8" type="curve"/>
		</contour>
	</outline>
</glyph>
<glyph name="quotesingle" format="2">
	<advance width="158"/>
	<unicode hex="0027"/>
	<outline>
		<contour>
			<point x="52" y="410" type="line"/>
			<point x="81" y="457"/>
			<point x="122" y="546"/>
			<point x="132" y="601" type="curve"/>
			<point x="120" y="610"/>
			<point x="105" y="613"/>
			<point x="91" y="613" type="curve" smooth="yes"/>
			<point x="70" y="613"/>
			<point x="49" y="606"/>
			<point x="41" y="599" type="curve"/>
			<point x="38" y="550"/>
			<point x="28" y="480"/>
			<point x="20" y="424" type="curve"/>
		</contour>
	</outline>
</glyph>
<glyph name="parenleft" format="2">
	<advance width="286"/>
	<unicode hex="0028"/>
	<outline>
		<contour>
			<point x="198" y="-126" type="curve"/>
			<point x="242" y="-85" type="line"/>
			<point x="162" y="14"/>
			<point x="152" y="147"/>
			<point x="151" y="248" type="curve"/>
			<point x="149" y="372"/>
			<point x="190" y="552"/>
			<point x="253" y="654" type="curve"/>
			<point x="243" y="665"/>
			<point x="224" y="677"/>
			<point x="204" y="680" type="curve"/>
			<point x="112" y="536"/>
			<point x="58" y="356"/>
			<point x="71" y="181" type="curve"/>
			<point x="82" y="32"/>
			<point x="153" y="-91"/>
		</contour>
	</outline>
</glyph>
<glyph name="parenright" format="2">
	<advance width="286"/>
	<unicode hex="0029"/>
	<outline>
		<contour>
			<point x="56" y="-85" type="curve"/>
			<point x="100" y="-126" type="line"/>
			<point x="145" y="-91"/>
			<point x="216" y="32"/>
			<point x="227" y="181" type="curve"/>
			<point x="240" y="356"/>
			<point x="186" y="536"/>
			<point x="94" y="680" type="curve"/>
			<point x="74" y="677"/>
			<point x="55" y="665"/>
			<point x="45" y="654" type="curve"/>
			<point x="108" y="552"/>
			<point x="149" y="372"/>
			<point x="147" y="248" type="curve"/>
			<point x="145" y="147"/>
			<point x="136" y="14"/>
		</contour>
	</outline>
</glyph>
<glyph name="asterisk" format="2">
	<advance width="289"/>
	<unicode hex="002A"/>
	<outline>
		<contour>
			<point x="178" y="444" type="curve"/>
			<point x="206" y="450" type="line"/>
			<point x="194" y="485"/>
			<point x="180" y="527"/>
			<point x="179" y="561" type="curve"/>
			<point x="172" y="547" type="line"/>
			<point x="187" y="541"/>
			<point x="219" y="537"/>
			<point x="247" y="537" type="curve" smooth="yes"/>
			<point x="262" y="537"/>
			<point x="276" y="539"/>
			<point x="286" y="541" type="curve"/>
			<point x="285" y="551"/>
			<point x="284" y="554"/>
			<point x="283" y="567" type="curve"/>
			<point x="254" y="571"/>
			<point x="206" y="582"/>
			<point x="182" y="597" type="curve"/>
			<point x="182" y="584" type="line"/>
			<point x="208" y="626"/>
			<point x="215" y="666"/>
			<point x="220" y="694" type="curve"/>
			<point x="199" y="707" type="line"/>
			<point x="192" y="685"/>
			<point x="154" y="625"/>
			<point x="132" y="608" type="curve"/>
			<point x="154" y="609" type="line"/>
			<point x="119" y="645"/>
			<point x="74" y="661"/>
			<point x="45" y="671" type="curve"/>
			<point x="27" y="653" type="line"/>
			<point x="52" y="638"/>
			<point x="103" y="595"/>
			<point x="119" y="564" type="curve"/>
			<point x="119" y="557"/>
			<point x="109" y="592"/>
			<point x="109" y="586" type="curve"/>
			<point x="79" y="567"/>
			<point x="43" y="531"/>
			<point x="22" y="502" type="curve"/>
			<point x="39" y="482" type="line"/>
			<point x="69" y="510"/>
			<point x="108" y="533"/>
			<point x="143" y="544" type="curve"/>
			<point x="127" y="551" type="line"/>
			<point x="130" y="526"/>
			<point x="157" y="460"/>
		</contour>
	</outline>
</glyph>
<glyph name="plus" format="2">
	<advance width="492"/>
	<unicode hex="002B"/>
	<outline>
		<contour>
			<point x="214" y="19" type="curve"/>
			<point x="290" y="22" type="line"/>
			<point x="288" y="76"/>
			<point x="287" y="145"/>
			<point x="287" y="218" type="curve" smooth="yes"/>
			<point x="287" y="292"/>
			<point x="288" y="369"/>
			<point x="290" y="437" type="curve"/>
			<point x="214" y="434" type="line"/>
			<point x="216" y="381"/>
			<point x="217" y="317"/>
			<point x="217" y="253" type="curve" smooth="yes"/>
			<point x="217" y="170"/>
			<point x="216" y="86"/>
		</contour>
		<contour>
			<point x="59" y="200" type="line"/>
			<point x="110" y="202"/>
			<point x="173" y="203"/>
			<point x="241" y="203" type="curve" smooth="yes"/>
			<point x="309" y="203"/>
			<point x="381" y="202"/>
			<point x="450" y="200" type="curve"/>
			<point x="457" y="275" type="line"/>
			<point x="397" y="273"/>
			<point x="327" y="272"/>
			<point x="258" y="272" type="curve" smooth="yes"/>
			<point x="189" y="272"/>
			<point x="120" y="273"/>
			<point x="60" y="275" type="curve"/>
		</contour>
	</outline>
</glyph>
<glyph name="comma" format="2">
	<advance width="215"/>
	<unicode hex="002C"/>
	<outline>
		<contour>
			<point x="62" y="-104" type="curve"/>
			<point x="80" y="-72"/>
			<point x="120" y="1"/>
			<point x="136" y="86" type="curve"/>
			<point x="111" y="93"/>
			<point x="87" y="95"/>
			<point x="57" y="91" type="curve"/>
			<point x="53" y="37"/>
			<point x="36" y="-30"/>
			<point x="18" y="-81" type="curve"/>
			<point x="31" y="-94"/>
			<point x="47" y="-101"/>
		</contour>
	</outline>
</glyph>
<glyph name="hyphen" format="2">
	<advance width="437"/>
	<unicode hex="002D"/>
	<outline>
		<contour>
			<point x="33" y="213" type="line"/>
			<point x="386" y="213" type="line"/>
			<point x="387" y="239"/>
			<point x="392" y="261"/>
			<point x="394" y="282" type="curve"/>
			<point x="261" y="274"/>
			<point x="193" y="274"/>
			<point x="44" y="282" type="curve"/>
		</contour>
	</outline>
</glyph>
<glyph name="period" format="2">
	<advance width="180"/>
	<unicode hex="002E"/>
	<outline>
		<contour>
			<point x="89" y="-12" type="curve"/>
			<point x="122" y="-12"/>
			<point x="144" y="8"/>
			<point x="144" y="43" type="curve"/>
			<point x="144" y="79"/>
			<point x="116" y="97"/>
			<point x="89" y="97" type="curve"/>
			<point x="55" y="97"/>
			<point x="33" y="75"/>
			<point x="33" y="42" type="curve"/>
			<point x="33" y="6"/>
			<point x="60" y="-12"/>
		</contour>
	</outline>
</glyph>
<glyph name="slash" format="2">
	<advance width="410"/>
	<unicode hex="002F"/>
	<outline>
		<contour>
			<point x="7" y="-62" type="curve"/>
			<point x="81" y="-62" type="line"/>
			<point x="176" y="167"/>
			<point x="342" y="521"/>
			<point x="406" y="651" type="curve"/>
			<point x="328" y="648" type="line"/>
			<point x="230" y="412"/>
			<point x="126" y="175"/>
		</contour>
	</outline>
</glyph>
<glyph name="zero" format="2">
	<advance width="536"/>
	<unicode hex="0030"/>
	<outline>
		<contour>
			<point x="264" y="-4" type="curve"/>
			<point x="383" y="-2"/>
			<point x="483" y="98"/>
			<point x="483" y="305" type="curve"/>
			<point x="483" y="498"/>
			<point x="387" y="603"/>
			<point x="266" y="602" type="curve"/>
			<point x="131" y="601"/>
			<point x="30" y="486"/>
			<point x="29" y="297" type="curve"/>
			<point x="28" y="102"/>
			<point x="116" y="-7"/>
		</contour>
		<contour>
			<point x="264" y="59" type="curve"/>
			<point x="173" y="59"/>
			<point x="127" y="142"/>
			<point x="125" y="288" type="curve"/>
			<point x="123" y="460"/>
			<point x="178" y="545"/>
			<point x="257" y="546" type="curve"/>
			<point x="330" y="547"/>
			<point x="390" y="448"/>
			<point x="390" y="306" type="curve"/>
			<point x="390" y="148"/>
			<point x="343" y="60"/>
		</contour>
	</outline>
</glyph>
<glyph name="one" format="2">
	<advance width="342"/>
	<unicode hex="0031"/>
	<outline>
		<contour>
			<point x="48" y="0" type="line"/>
			<point x="295" y="0" type="line"/>
			<point x="287" y="49" type="line"/>
			<point x="266" y="48"/>
			<point x="215" y="43"/>
			<point x="216" y="116" type="curve" smooth="yes"/>
			<point x="218" y="266"/>
			<point x="220" y="526"/>
			<point x="226" y="587" type="curve"/>
			<point x="226" y="587"/>
			<point x="83" y="556"/>
			<point x="36" y="558" type="curve"/>
			<point x="41" y="501" type="line"/>
			<point x="96" y="501"/>
			<point x="137" y="486"/>
			<point x="141" y="451" type="curve" smooth="yes"/>
			<point x="144" y="423"/>
			<point x="148" y="360"/>
			<point x="148" y="287" type="curve" smooth="yes"/>
			<point x="148" y="230"/>
			<point x="146" y="167"/>
			<point x="140" y="110" type="curve" smooth="yes"/>
			<point x="135" y="57"/>
			<point x="88" y="44"/>
			<point x="43" y="47" type="curve"/>
		</contour>
	</outline>
</glyph>
<glyph name="two" format="2">
	<advance width="523"/>
	<unicode hex="0032"/>
	<outline>
		<contour>
			<point x="64" y="0" type="line"/>
			<point x="466" y="0" type="line"/>
			<point x="473" y="145" type="line"/>
			<point x="410" y="138" type="line"/>
			<point x="405" y="116"/>
			<point x="398" y="70"/>
			<point x="338" y="68" type="curve" smooth="yes"/>
			<point x="156" y="62" type="line"/>
			<point x="147" y="65" type="line"/>
			<point x="374" y="208"/>
			<point x="453" y="294"/>
			<point x="453" y="429" type="curve" smooth="yes"/>
			<point x="453" y="549"/>
			<point x="370" y="597"/>
			<point x="266" y="597" type="curve" smooth="yes"/>
			<point x="185" y="597"/>
			<point x="123" y="574"/>
			<point x="73" y="540" type="curve"/>
			<point x="70" y="534"/>
			<point x="68" y="526"/>
			<point x="68" y="518" type="curve" smooth="yes"/>
			<point x="68" y="488"/>
			<point x="88" y="448"/>
			<point x="106" y="431" type="curve"/>
			<point x="123" y="453"/>
			<point x="176" y="539"/>
			<point x="254" y="539" type="curve" smooth="yes"/>
			<point x="318" y="539"/>
			<point x="359" y="488"/>
			<point x="359" y="419" type="curve" smooth="yes"/>
			<point x="359" y="230"/>
			<point x="158" y="157"/>
			<point x="53" y="68" type="curve"/>
		</contour>
	</outline>
</glyph>
<glyph name="three" format="2">
	<advance width="455"/>
	<unicode hex="0033"/>
	<outline>
		<contour>
			<point x="199" y="-6" type="curve" smooth="yes"/>
			<point x="313" y="-6"/>
			<point x="405" y="60"/>
			<point x="405" y="170" type="curve" smooth="yes"/>
			<point x="405" y="244"/>
			<point x="340" y="304"/>
			<point x="238" y="304" type="curve" smooth="yes"/>
			<point x="228" y="304"/>
			<point x="217" y="303"/>
			<point x="206" y="302" type="curve"/>
			<point x="214" y="292" type="line"/>
			<point x="318" y="310"/>
			<point x="382" y="374"/>
			<point x="382" y="458" type="curve" smooth="yes"/>
			<point x="382" y="535"/>
			<point x="316" y="584"/>
			<point x="207" y="584" type="curve" smooth="yes"/>
			<point x="134" y="584"/>
			<point x="76" y="558"/>
			<point x="47" y="538" type="curve"/>
			<point x="47" y="505"/>
			<point x="56" y="467"/>
			<point x="82" y="433" type="curve"/>
			<point x="91" y="480"/>
			<point x="134" y="537"/>
			<point x="206" y="537" type="curve" smooth="yes"/>
			<point x="254" y="537"/>
			<point x="291" y="507"/>
			<point x="291" y="447" type="curve" smooth="yes"/>
			<point x="291" y="369"/>
			<point x="245" y="334"/>
			<point x="136" y="318" type="curve"/>
			<point x="142" y="266" type="line"/>
			<point x="297" y="268"/>
			<point x="321" y="221"/>
			<point x="321" y="153" type="curve" smooth="yes"/>
			<point x="321" y="92"/>
			<point x="283" y="51"/>
			<point x="211" y="51" type="curve" smooth="yes"/>
			<point x="145" y="51"/>
			<point x="87" y="89"/>
			<point x="69" y="128" type="curve"/>
			<point x="56" y="101"/>
			<point x="48" y="51"/>
			<point x="48" y="22" type="curve" smooth="yes"/>
			<point x="48" y="17"/>
			<point x="49" y="13"/>
			<point x="49" y="9" type="curve"/>
			<point x="76" y="3"/>
			<point x="136" y="-6"/>
		</contour>
	</outline>
</glyph>
<glyph name="four" format="2">
	<advance width="567"/>
	<unicode hex="0034"/>
	<outline>
		<contour>
			<point x="46" y="147" type="line"/>
			<point x="533" y="149" type="line"/>
			<point x="523" y="223" type="line"/>
			<point x="458" y="218"/>
			<point x="268" y="214"/>
			<point x="143" y="214" type="curve" smooth="yes"/>
			<point x="117" y="214"/>
			<point x="93" y="215"/>
			<point x="74" y="215" type="curve"/>
			<point x="69" y="169" type="line"/>
			<point x="159" y="282"/>
			<point x="331" y="507"/>
			<point x="360" y="587" type="curve"/>
			<point x="306" y="589"/>
			<point x="278" y="585"/>
			<point x="250" y="578" type="curve"/>
			<point x="212" y="486"/>
			<point x="129" y="379"/>
			<point x="23" y="177" type="curve"/>
		</contour>
		<contour>
			<point x="315" y="-19" type="curve"/>
			<point x="395" y="-19" type="line"/>
			<point x="395" y="32" type="line" smooth="yes"/>
			<point x="395" y="180"/>
			<point x="399" y="252"/>
			<point x="409" y="421" type="curve"/>
			<point x="360" y="407"/>
			<point x="329" y="378"/>
			<point x="329" y="378" type="curve"/>
			<point x="329" y="365"/>
			<point x="330" y="352"/>
			<point x="330" y="337" type="curve" smooth="yes"/>
			<point x="330" y="253"/>
			<point x="323" y="142"/>
		</contour>
	</outline>
</glyph>
<glyph name="five" format="2">
	<advance width="458"/>
	<unicode hex="0035"/>
	<outline>
		<contour>
			<point x="156" y="-7" type="curve"/>
			<point x="318" y="-7"/>
			<point x="413" y="79"/>
			<point x="413" y="216" type="curve"/>
			<point x="413" y="285"/>
			<point x="358" y="396"/>
			<point x="161" y="396" type="curve"/>
			<point x="122" y="395" type="line"/>
			<point x="136" y="516" type="line"/>
			<point x="251" y="516"/>
			<point x="259" y="516"/>
			<point x="364" y="510" type="curve"/>
			<point x="367" y="585" type="line"/>
			<point x="315" y="582"/>
			<point x="239" y="579"/>
			<point x="169" y="579" type="curve"/>
			<point x="134" y="579"/>
			<point x="106" y="579"/>
			<point x="81" y="580" type="curve"/>
			<point x="75" y="492"/>
			<point x="68" y="431"/>
			<point x="59" y="334" type="curve"/>
			<point x="133" y="334" type="line" smooth="yes"/>
			<point x="260" y="334"/>
			<point x="321" y="269"/>
			<point x="321" y="200" type="curve"/>
			<point x="321" y="133"/>
			<point x="290" y="63"/>
			<point x="203" y="62" type="curve"/>
			<point x="137" y="61"/>
			<point x="98" y="80"/>
			<point x="65" y="115" type="curve"/>
			<point x="53" y="95"/>
			<point x="48" y="68"/>
			<point x="48" y="41" type="curve"/>
			<point x="48" y="31"/>
			<point x="50" y="14"/>
			<point x="52" y="6" type="curve"/>
			<point x="66" y="-2"/>
			<point x="109" y="-7"/>
		</contour>
	</outline>
</glyph>
<glyph name="six" format="2">
	<advance width="507"/>
	<unicode hex="0036"/>
	<outline>
		<contour>
			<point x="266" y="-13" type="curve" smooth="yes"/>
			<point x="397" y="-13"/>
			<point x="460" y="85"/>
			<point x="460" y="186" type="curve" smooth="yes"/>
			<point x="460" y="330"/>
			<point x="369" y="383"/>
			<point x="276" y="383" type="curve" smooth="yes"/>
			<point x="227" y="383"/>
			<point x="152" y="362"/>
			<point x="109" y="277" type="curve"/>
			<point x="108" y="276"/>
			<point x="127" y="241"/>
			<point x="126" y="241" type="curve"/>
			<point x="150" y="280"/>
			<point x="196" y="319"/>
			<point x="255" y="319" type="curve" smooth="yes"/>
			<point x="313" y="319"/>
			<point x="367" y="284"/>
			<point x="367" y="190" type="curve" smooth="yes"/>
			<point x="367" y="95"/>
			<point x="333" y="44"/>
			<point x="267" y="44" type="curve" smooth="yes"/>
			<point x="186" y="44"/>
			<point x="147" y="132"/>
			<point x="147" y="242" type="curve" smooth="yes"/>
			<point x="147" y="391"/>
			<point x="194" y="525"/>
			<point x="384" y="546" type="curve"/>
			<point x="378" y="596" type="line"/>
			<point x="174" y="589"/>
			<point x="55" y="450"/>
			<point x="55" y="244" type="curve" smooth="yes"/>
			<point x="55" y="122"/>
			<point x="112" y="-13"/>
		</contour>
	</outline>
</glyph>
<glyph name="seven" format="2">
	<advance width="483"/>
	<unicode hex="0037"/>
	<outline>
		<contour>
			<point x="223" y="2" type="curve"/>
			<point x="269" y="239"/>
			<point x="374" y="436"/>
			<point x="460" y="544" type="curve"/>
			<point x="424" y="585" type="line"/>
			<point x="374" y="581"/>
			<point x="269" y="577"/>
			<point x="177" y="577" type="curve" smooth="yes"/>
			<point x="135" y="577"/>
			<point x="95" y="578"/>
			<point x="65" y="580" type="curve"/>
			<point x="45" y="558"/>
			<point x="35" y="532"/>
			<point x="35" y="503" type="curve" smooth="yes"/>
			<point x="35" y="493"/>
			<point x="37" y="482"/>
			<point x="39" y="471" type="curve"/>
			<point x="74" y="495"/>
			<point x="147" y="519"/>
			<point x="206" y="517" type="curve" smooth="yes"/>
			<point x="400" y="509" type="line"/>
			<point x="399" y="531" type="line"/>
			<point x="283" y="433"/>
			<point x="167" y="188"/>
			<point x="132" y="34" type="curve"/>
			<point x="143" y="14"/>
			<point x="186" y="2"/>
		</contour>
	</outline>
</glyph>
<glyph name="eight" format="2">
	<advance width="462"/>
	<unicode hex="0038"/>
	<outline>
		<contour>
			<point x="225" y="-7" type="curve" smooth="yes"/>
			<point x="331" y="-7"/>
			<point x="406" y="56"/>
			<point x="406" y="154" type="curve" smooth="yes"/>
			<point x="406" y="324"/>
			<point x="133" y="329"/>
			<point x="133" y="468" type="curve" smooth="yes"/>
			<point x="133" y="517"/>
			<point x="166" y="556"/>
			<point x="219" y="556" type="curve" smooth="yes"/>
			<point x="271" y="556"/>
			<point x="307" y="514"/>
			<point x="307" y="455" type="curve" smooth="yes"/>
			<point x="307" y="391"/>
			<point x="271" y="342"/>
			<point x="229" y="326" type="curve"/>
			<point x="249" y="304" type="line"/>
			<point x="297" y="309"/>
			<point x="380" y="365"/>
			<point x="380" y="462" type="curve" smooth="yes"/>
			<point x="380" y="552"/>
			<point x="311" y="601"/>
			<point x="225" y="601" type="curve" smooth="yes"/>
			<point x="137" y="601"/>
			<point x="57" y="543"/>
			<point x="57" y="445" type="curve" smooth="yes"/>
			<point x="57" y="274"/>
			<point x="319" y="276"/>
			<point x="319" y="144" type="curve" smooth="yes"/>
			<point x="319" y="88"/>
			<point x="284" y="40"/>
			<point x="224" y="40" type="curve" smooth="yes"/>
			<point x="166" y="40"/>
			<point x="122" y="75"/>
			<point x="122" y="142" type="curve" smooth="yes"/>
			<point x="122" y="215"/>
			<point x="174" y="264"/>
			<point x="213" y="285" type="curve"/>
			<point x="201" y="306" type="line"/>
			<point x="96" y="299"/>
			<point x="42" y="220"/>
			<point x="42" y="145" type="curve" smooth="yes"/>
			<point x="42" y="67"/>
			<point x="99" y="-7"/>
		</contour>
	</outline>
</glyph>
<glyph name="nine" format="2">
	<advance width="487"/>
	<unicode hex="0039"/>
	<outline>
		<contour>
			<point x="88" y="-9" type="line"/>
			<point x="312" y="-17"/>
			<point x="428" y="170"/>
			<point x="428" y="371" type="curve" smooth="yes"/>
			<point x="428" y="463"/>
			<point x="383" y="591"/>
			<point x="233" y="591" type="curve" smooth="yes"/>
			<point x="106" y="591"/>
			<point x="48" y="489"/>
			<point x="48" y="385" type="curve" smooth="yes"/>
			<point x="48" y="255"/>
			<point x="139" y="204"/>
			<point x="209" y="204" type="curve" smooth="yes"/>
			<point x="257" y="204"/>
			<point x="318" y="221"/>
			<point x="377" y="304" type="curve"/>
			<point x="379" y="305"/>
			<point x="360" y="332"/>
			<point x="361" y="332" type="curve"/>
			<point x="353" y="323"/>
			<point x="309" y="274"/>
			<point x="229" y="274" type="curve" smooth="yes"/>
			<point x="180" y="274"/>
			<point x="128" y="314"/>
			<point x="128" y="410" type="curve" smooth="yes"/>
			<point x="128" y="490"/>
			<point x="164" y="544"/>
			<point x="226" y="544" type="curve" smooth="yes"/>
			<point x="308" y="544"/>
			<point x="337" y="445"/>
			<point x="337" y="342" type="curve" smooth="yes"/>
			<point x="337" y="194"/>
			<point x="260" y="50"/>
			<point x="83" y="44" type="curve"/>
		</contour>
	</outline>
</glyph>
<glyph name="less" format="2">
	<advance width="462"/>
	<unicode hex="003C"/>
	<outline>
		<contour>
			<point x="374" y="10" type="curve"/>
			<point x="393" y="31"/>
			<point x="411" y="50"/>
			<point x="431" y="68" type="curve"/>
			<point x="334" y="136"/>
			<point x="238" y="202"/>
			<point x="154" y="270" type="curve"/>
			<point x="154" y="248" type="line"/>
			<point x="240" y="323"/>
			<point x="353" y="405"/>
			<point x="429" y="457" type="curve"/>
			<point x="407" y="477"/>
			<point x="385" y="497"/>
			<point x="367" y="517" type="curve"/>
			<point x="281" y="432"/>
			<point x="159" y="338"/>
			<point x="57" y="257" type="curve"/>
			<point x="215" y="140"/>
			<point x="307" y="75"/>
		</contour>
	</outline>
</glyph>
<glyph name="equal" format="2">
	<advance width="462"/>
	<unicode hex="003D"/>
	<outline>
		<contour>
			<point x="50" y="407" type="curve"/>
			<point x="49" y="332" type="line"/>
			<point x="151" y="336"/>
			<point x="272" y="336"/>
			<point x="410" y="332" type="curve"/>
			<point x="417" y="407" type="line"/>
			<point x="296" y="403"/>
			<point x="169" y="403"/>
		</contour>
		<contour>
			<point x="52" y="267" type="curve"/>
			<point x="49" y="193" type="line"/>
			<point x="151" y="196"/>
			<point x="273" y="196"/>
			<point x="411" y="193" type="curve"/>
			<point x="415" y="267" type="line"/>
			<point x="294" y="263"/>
			<point x="171" y="263"/>
		</contour>
	</outline>
</glyph>
<glyph name="greater" format="2">
	<advance width="462"/>
	<unicode hex="003E"/>
	<outline>
		<contour>
			<point x="114" y="10" type="curve"/>
			<point x="181" y="75"/>
			<point x="273" y="140"/>
			<point x="431" y="257" type="curve"/>
			<point x="330" y="338"/>
			<point x="207" y="432"/>
			<point x="122" y="517" type="curve"/>
			<point x="103" y="497"/>
			<point x="81" y="477"/>
			<point x="59" y="457" type="curve"/>
			<point x="136" y="405"/>
			<point x="248" y="323"/>
			<point x="334" y="248" type="curve"/>
			<point x="334" y="270" type="line"/>
			<point x="250" y="202"/>
			<point x="154" y="136"/>
			<point x="57" y="68" type="curve"/>
			<point x="77" y="50"/>
			<point x="95" y="31"/>
		</contour>
	</outline>
</glyph>
<glyph name="question" format="2">
	<advance width="417"/>
	<unicode hex="003F"/>
	<outline>
		<contour>
			<point x="125" y="152" type="curve"/>
			<point x="207" y="153" type="line"/>
			<point x="204" y="167"/>
			<point x="202" y="221"/>
			<point x="200" y="266" type="curve"/>
			<point x="281" y="294"/>
			<point x="381" y="358"/>
			<point x="381" y="462" type="curve" smooth="yes"/>
			<point x="381" y="546"/>
			<point x="333" y="608"/>
			<point x="222" y="608" type="curve" smooth="yes"/>
			<point x="119" y="608"/>
			<point x="40" y="561"/>
			<point x="20" y="532" type="curve"/>
			<point x="19" y="510"/>
			<point x="45" y="463"/>
			<point x="53" y="452" type="curve"/>
			<point x="76" y="452" type="line"/>
			<point x="92" y="497"/>
			<point x="131" y="565"/>
			<point x="215" y="565" type="curve" smooth="yes"/>
			<point x="279" y="565"/>
			<point x="316" y="513"/>
			<point x="316" y="459" type="curve" smooth="yes"/>
			<point x="316" y="363"/>
			<point x="233" y="300"/>
			<point x="133" y="291" type="curve"/>
			<point x="133" y="273"/>
			<point x="126" y="180"/>
		</contour>
		<contour>
			<point x="161" y="-22" type="curve" smooth="yes"/>
			<point x="194" y="-22"/>
			<point x="216" y="-2"/>
			<point x="216" y="33" type="curve" smooth="yes"/>
			<point x="216" y="69"/>
			<point x="188" y="87"/>
			<point x="161" y="87" type="curve" smooth="yes"/>
			<point x="127" y="87"/>
			<point x="105" y="65"/>
			<point x="105" y="32" type="curve" smooth="yes"/>
			<point x="105" y="-4"/>
			<point x="132" y="-22"/>
		</contour>
	</outline>
</glyph>
<glyph name="at" format="2">
	<advance width="737"/>
	<unicode hex="0040"/>
	<outline>
		<contour>
			<point x="456" y="-172" type="curve"/>
			<point x="463" y="-159"/>
			<point x="472" y="-123"/>
			<point x="472" y="-103" type="curve" smooth="yes"/>
			<point x="472" y="-100"/>
			<point x="472" y="-97"/>
			<point x="471" y="-95" type="curve"/>
			<point x="217" y="-95"/>
			<point x="83" y="28"/>
			<point x="83" y="216" type="curve" smooth="yes"/>
			<point x="83" y="396"/>
			<point x="214" y="517"/>
			<point x="371" y="517" type="curve" smooth="yes"/>
			<point x="572" y="517"/>
			<point x="663" y="416"/>
			<point x="663" y="249" type="curve" smooth="yes"/>
			<point x="663" y="168"/>
			<point x="629" y="67"/>
			<point x="537" y="67" type="curve" smooth="yes"/>
			<point x="531" y="67"/>
			<point x="524" y="67"/>
			<point x="517" y="68" type="curve"/>
			<point x="505" y="71"/>
			<point x="501" y="113"/>
			<point x="501" y="168" type="curve" smooth="yes"/>
			<point x="501" y="244"/>
			<point x="509" y="346"/>
			<point x="514" y="402" type="curve"/>
			<point x="506" y="406"/>
			<point x="490" y="408"/>
			<point x="469" y="408" type="curve" smooth="yes"/>
			<point x="444" y="408"/>
			<point x="413" y="405"/>
			<point x="385" y="397" type="curve" smooth="yes"/>
			<point x="309" y="375"/>
			<point x="195" y="286"/>
			<point x="195" y="156" type="curve" smooth="yes"/>
			<point x="195" y="65"/>
			<point x="253" y="15"/>
			<point x="315" y="15" type="curve" smooth="yes"/>
			<point x="377" y="15"/>
			<point x="434" y="65"/>
			<point x="438" y="82" type="curve"/>
			<point x="430" y="91" type="line"/>
			<point x="429" y="80"/>
			<point x="428" y="70"/>
			<point x="428" y="61" type="curve" smooth="yes"/>
			<point x="428" y="26"/>
			<point x="439" y="4"/>
			<point x="473" y="-2" type="curve"/>
			<point x="482" y="-4"/>
			<point x="492" y="-4"/>
			<point x="503" y="-4" type="curve" smooth="yes"/>
			<point x="598" y="-4"/>
			<point x="721" y="70"/>
			<point x="721" y="253" type="curve" smooth="yes"/>
			<point x="721" y="420"/>
			<point x="638" y="589"/>
			<point x="387" y="589" type="curve" smooth="yes"/>
			<point x="183" y="589"/>
			<point x="27" y="410"/>
			<point x="27" y="196" type="curve" smooth="yes"/>
			<point x="27" y="-76"/>
			<point x="255" y="-172"/>
		</contour>
		<contour>
			<point x="337" y="69" type="curve" smooth="yes"/>
			<point x="291" y="69"/>
			<point x="272" y="106"/>
			<point x="272" y="171" type="curve" smooth="yes"/>
			<point x="272" y="276"/>
			<point x="326" y="356"/>
			<point x="408" y="356" type="curve" smooth="yes"/>
			<point x="415" y="356"/>
			<point x="422" y="355"/>
			<point x="430" y="354" type="curve"/>
			<point x="431" y="335"/>
			<point x="431" y="310"/>
			<point x="431" y="283" type="curve" smooth="yes"/>
			<point x="431" y="228"/>
			<point x="430" y="161"/>
			<point x="427" y="112" type="curve"/>
			<point x="419" y="99"/>
			<point x="379" y="69"/>
		</contour>
	</outline>
</glyph>
<glyph name="A" format="2">
	<advance width="650"/>
	<unicode hex="0041"/>
	<outline>
		<contour>
			<point x="23" y="0" type="line"/>
			<point x="263" y="0" type="line"/>
			<point x="255" y="39" type="line"/>
			<point x="251" y="39" type="line"/>
			<point x="222" y="39"/>
			<point x="179" y="40"/>
			<point x="179" y="87" type="curve" smooth="yes"/>
			<point x="179" y="113"/>
			<point x="181" y="126"/>
			<point x="309" y="527" type="curve"/>
			<point x="333" y="415" type="line"/>
			<point x="405" y="227"/>
			<point x="452" y="98"/>
			<point x="452" y="80" type="curve" smooth="yes"/>
			<point x="452" y="49"/>
			<point x="423" y="44"/>
			<point x="376" y="44" type="curve"/>
			<point x="383" y="0" type="line"/>
			<point x="634" y="0" type="line"/>
			<point x="627" y="38" type="line"/>
			<point x="574" y="38"/>
			<point x="558" y="80"/>
			<point x="545" y="116" type="curve"/>
			<point x="368" y="624" type="line"/>
			<point x="338" y="614"/>
			<point x="301" y="604"/>
			<point x="271" y="600" type="curve"/>
			<point x="104" y="105" type="line" smooth="yes"/>
			<point x="91" y="66"/>
			<point x="61" y="50"/>
			<point x="15" y="47" type="curve"/>
		</contour>
		<contour>
			<point x="197" y="214" type="line"/>
			<point x="446" y="216" type="line"/>
			<point x="446" y="275" type="line"/>
			<point x="197" y="269" type="line"/>
		</contour>
	</outline>
</glyph>
<glyph name="B" format="2">
	<advance width="567"/>
	<unicode hex="0042"/>
	<outline>
		<contour>
			<point x="62" y="0" type="line"/>
			<point x="288" y="0" type="line" smooth="yes"/>
			<point x="413" y="0"/>
			<point x="536" y="46"/>
			<point x="536" y="179" type="curve" smooth="yes"/>
			<point x="536" y="257"/>
			<point x="483" y="324"/>
			<point x="392" y="336" type="curve"/>
			<point x="367" y="317" type="line"/>
			<point x="449" y="321"/>
			<point x="500" y="401"/>
			<point x="500" y="474" type="curve" smooth="yes"/>
			<point x="500" y="567"/>
			<point x="422" y="618"/>
			<point x="317" y="618" type="curve" smooth="yes"/>
			<point x="291" y="618"/>
			<point x="236" y="616"/>
			<point x="205" y="614" type="curve" smooth="yes"/>
			<point x="177" y="612"/>
			<point x="150" y="612"/>
			<point x="118" y="612" type="curve" smooth="yes"/>
			<point x="96" y="612"/>
			<point x="71" y="612"/>
			<point x="42" y="614" type="curve"/>
			<point x="50" y="566" type="line"/>
			<point x="116" y="566"/>
			<point x="129" y="528"/>
			<point x="129" y="484" type="curve" smooth="yes"/>
			<point x="129" y="443"/>
			<point x="129" y="388"/>
			<point x="129" y="340" type="curve" smooth="yes"/>
			<point x="129" y="270"/>
			<point x="126" y="196"/>
			<point x="122" y="98" type="curve" smooth="yes"/>
			<point x="120" y="59"/>
			<point x="115" y="44"/>
			<point x="54" y="44" type="curve"/>
		</contour>
		<contour>
			<point x="296" y="52" type="curve" smooth="yes"/>
			<point x="237" y="52"/>
			<point x="213" y="58"/>
			<point x="207" y="102" type="curve" smooth="yes"/>
			<point x="200" y="150"/>
			<point x="198" y="196"/>
			<point x="198" y="255" type="curve" smooth="yes"/>
			<point x="198" y="289" type="line"/>
			<point x="222" y="293"/>
			<point x="262" y="297"/>
			<point x="294" y="297" type="curve" smooth="yes"/>
			<point x="389" y="297"/>
			<point x="441" y="246"/>
			<point x="441" y="176" type="curve" smooth="yes"/>
			<point x="441" y="99"/>
			<point x="375" y="52"/>
		</contour>
		<contour>
			<point x="247" y="346" type="curve" smooth="yes"/>
			<point x="232" y="346"/>
			<point x="216" y="346"/>
			<point x="199" y="347" type="curve"/>
			<point x="199" y="428"/>
			<point x="200" y="503"/>
			<point x="206" y="562" type="curve"/>
			<point x="222" y="568"/>
			<point x="252" y="573"/>
			<point x="284" y="573" type="curve" smooth="yes"/>
			<point x="346" y="573"/>
			<point x="405" y="538"/>
			<point x="405" y="463" type="curve" smooth="yes"/>
			<point x="405" y="415"/>
			<point x="377" y="351"/>
			<point x="301" y="347" type="curve" smooth="yes"/>
			<point x="285" y="346"/>
			<point x="267" y="346"/>
		</contour>
	</outline>
</glyph>
<glyph name="C" format="2">
	<advance width="570"/>
	<unicode hex="0043"/>
	<outline>
		<contour>
			<point x="313" y="-18" type="curve" smooth="yes"/>
			<point x="411" y="-18"/>
			<point x="488" y="17"/>
			<point x="541" y="85" type="curve"/>
			<point x="510" y="118" type="line"/>
			<point x="470" y="80"/>
			<point x="409" y="48"/>
			<point x="343" y="48" type="curve" smooth="yes"/>
			<point x="191" y="48"/>
			<point x="132" y="148"/>
			<point x="132" y="280" type="curve" smooth="yes"/>
			<point x="132" y="448"/>
			<point x="206" y="552"/>
			<point x="329" y="552" type="curve" smooth="yes"/>
			<point x="423" y="552"/>
			<point x="458" y="509"/>
			<point x="468" y="496" type="curve"/>
			<point x="474" y="506"/>
			<point x="476" y="514"/>
			<point x="476" y="523" type="curve" smooth="yes"/>
			<point x="476" y="563"/>
			<point x="427" y="581"/>
			<point x="396" y="581" type="curve" smooth="yes"/>
			<point x="387" y="581"/>
			<point x="380" y="580"/>
			<point x="377" y="577" type="curve"/>
			<point x="413" y="571"/>
			<point x="450" y="494"/>
			<point x="475" y="426" type="curve"/>
			<point x="527" y="424" type="line"/>
			<point x="532" y="455"/>
			<point x="538" y="516"/>
			<point x="538" y="552" type="curve" smooth="yes"/>
			<point x="538" y="575"/>
			<point x="537" y="587"/>
			<point x="536" y="595" type="curve"/>
			<point x="520" y="602"/>
			<point x="471" y="615"/>
			<point x="405" y="615" type="curve" smooth="yes"/>
			<point x="182" y="615"/>
			<point x="30" y="477"/>
			<point x="30" y="246" type="curve" smooth="yes"/>
			<point x="30" y="84"/>
			<point x="136" y="-18"/>
		</contour>
	</outline>
</glyph>
<glyph name="D" format="2">
	<advance width="631"/>
	<unicode hex="0044"/>
	<outline>
		<contour>
			<point x="25" y="0" type="line"/>
			<point x="263" y="0" type="line" smooth="yes"/>
			<point x="477" y="3"/>
			<point x="591" y="158"/>
			<point x="591" y="363" type="curve" smooth="yes"/>
			<point x="591" y="531"/>
			<point x="490" y="619"/>
			<point x="328" y="619" type="curve" smooth="yes"/>
			<point x="305" y="619"/>
			<point x="280" y="618"/>
			<point x="251" y="616" type="curve" smooth="yes"/>
			<point x="214" y="614"/>
			<point x="170" y="612"/>
			<point x="119" y="612" type="curve" smooth="yes"/>
			<point x="89" y="612"/>
			<point x="57" y="613"/>
			<point x="22" y="615" type="curve"/>
			<point x="28" y="567" type="line"/>
			<point x="99" y="567"/>
			<point x="104" y="529"/>
			<point x="107" y="484" type="curve" smooth="yes"/>
			<point x="110" y="434"/>
			<point x="111" y="389"/>
			<point x="111" y="341" type="curve" smooth="yes"/>
			<point x="111" y="272"/>
			<point x="108" y="198"/>
			<point x="104" y="100" type="curve" smooth="yes"/>
			<point x="102" y="62"/>
			<point x="71" y="46"/>
			<point x="18" y="46" type="curve"/>
		</contour>
		<contour>
			<point x="297" y="60" type="curve"/>
			<point x="229" y="60"/>
			<point x="193" y="75"/>
			<point x="188" y="120" type="curve" smooth="yes"/>
			<point x="186" y="139"/>
			<point x="185" y="171"/>
			<point x="185" y="207" type="curve" smooth="yes"/>
			<point x="185" y="248"/>
			<point x="185" y="293"/>
			<point x="187" y="348" type="curve" smooth="yes"/>
			<point x="189" y="408"/>
			<point x="192" y="489"/>
			<point x="197" y="554" type="curve"/>
			<point x="217" y="561"/>
			<point x="253" y="568"/>
			<point x="292" y="568" type="curve" smooth="yes"/>
			<point x="441" y="568"/>
			<point x="505" y="462"/>
			<point x="505" y="319" type="curve" smooth="yes"/>
			<point x="505" y="184"/>
			<point x="426" y="60"/>
		</contour>
	</outline>
</glyph>
<glyph name="E" format="2">
	<advance width="537"/>
	<unicode hex="0045"/>
	<outline>
		<contour>
			<point x="32" y="0" type="line"/>
			<point x="481" y="0" type="line"/>
			<point x="484" y="40"/>
			<point x="484" y="89"/>
			<point x="484" y="123" type="curve" smooth="yes"/>
			<point x="484" y="163" type="line"/>
			<point x="429" y="157" type="line"/>
			<point x="417" y="106"/>
			<point x="400" y="60"/>
			<point x="367" y="22" type="curve"/>
			<point x="427" y="70" type="line"/>
			<point x="395" y="62"/>
			<point x="319" y="55"/>
			<point x="258" y="55" type="curve" smooth="yes"/>
			<point x="243" y="55"/>
			<point x="225" y="55"/>
			<point x="215" y="56" type="curve" smooth="yes"/>
			<point x="187" y="59"/>
			<point x="183" y="83"/>
			<point x="182" y="104" type="curve" smooth="yes"/>
			<point x="180" y="146"/>
			<point x="179" y="203"/>
			<point x="179" y="266" type="curve" smooth="yes"/>
			<point x="179" y="343"/>
			<point x="182" y="433"/>
			<point x="190" y="518" type="curve" smooth="yes"/>
			<point x="192" y="541"/>
			<point x="202" y="564"/>
			<point x="240" y="564" type="curve" smooth="yes"/>
			<point x="296" y="564"/>
			<point x="367" y="562"/>
			<point x="429" y="556" type="curve"/>
			<point x="356" y="594" type="line"/>
			<point x="389" y="564"/>
			<point x="408" y="511"/>
			<point x="413" y="465" type="curve"/>
			<point x="469" y="460" type="line"/>
			<point x="471" y="480"/>
			<point x="475" y="527"/>
			<point x="475" y="565" type="curve" smooth="yes"/>
			<point x="475" y="582"/>
			<point x="475" y="600"/>
			<point x="474" y="617" type="curve"/>
			<point x="399" y="613"/>
			<point x="313" y="612"/>
			<point x="266" y="612" type="curve" smooth="yes"/>
			<point x="210" y="612" type="line" smooth="yes"/>
			<point x="148" y="612"/>
			<point x="72" y="613"/>
			<point x="28" y="616" type="curve"/>
			<point x="32" y="569" type="line"/>
			<point x="85" y="569"/>
			<point x="97" y="547"/>
			<point x="99" y="511" type="curve" smooth="yes"/>
			<point x="102" y="460"/>
			<point x="102" y="405"/>
			<point x="102" y="351" type="curve" smooth="yes"/>
			<point x="102" y="263"/>
			<point x="99" y="176"/>
			<point x="94" y="109" type="curve" smooth="yes"/>
			<point x="91" y="71"/>
			<point x="86" y="52"/>
			<point x="27" y="47" type="curve"/>
		</contour>
		<contour>
			<point x="132" y="283" type="line"/>
			<point x="190" y="285"/>
			<point x="260" y="287"/>
			<point x="323" y="287" type="curve" smooth="yes"/>
			<point x="350" y="287"/>
			<point x="377" y="287"/>
			<point x="405" y="285" type="curve"/>
			<point x="405" y="355" type="line"/>
			<point x="288" y="341" type="line"/>
			<point x="132" y="341" type="line"/>
		</contour>
	</outline>
</glyph>
<glyph name="F" format="2">
	<advance width="514"/>
	<unicode hex="0046"/>
	<outline>
		<contour>
			<point x="30" y="0" type="line"/>
			<point x="270" y="0" type="line"/>
			<point x="263" y="39" type="line"/>
			<point x="249" y="39"/>
			<point x="190" y="39"/>
			<point x="187" y="112" type="curve" smooth="yes"/>
			<point x="186" y="135"/>
			<point x="186" y="183"/>
			<point x="186" y="243" type="curve" smooth="yes"/>
			<point x="186" y="320"/>
			<point x="187" y="419"/>
			<point x="194" y="511" type="curve" smooth="yes"/>
			<point x="196" y="543"/>
			<point x="218" y="559"/>
			<point x="253" y="559" type="curve" smooth="yes"/>
			<point x="284" y="559"/>
			<point x="366" y="557"/>
			<point x="437" y="554" type="curve"/>
			<point x="371" y="594" type="line"/>
			<point x="404" y="564"/>
			<point x="424" y="504"/>
			<point x="429" y="459" type="curve"/>
			<point x="484" y="453" type="line"/>
			<point x="487" y="473"/>
			<point x="490" y="513"/>
			<point x="490" y="554" type="curve" smooth="yes"/>
			<point x="490" y="575"/>
			<point x="490" y="596"/>
			<point x="489" y="617" type="curve"/>
			<point x="391" y="613"/>
			<point x="306" y="611"/>
			<point x="240" y="611" type="curve" smooth="yes"/>
			<point x="176" y="611"/>
			<point x="92" y="611"/>
			<point x="33" y="616" type="curve"/>
			<point x="38" y="568" type="line"/>
			<point x="96" y="568"/>
			<point x="103" y="547"/>
			<point x="105" y="511" type="curve" smooth="yes"/>
			<point x="108" y="457"/>
			<point x="109" y="398"/>
			<point x="109" y="340" type="curve" smooth="yes"/>
			<point x="109" y="253"/>
			<point x="106" y="169"/>
			<point x="102" y="109" type="curve" smooth="yes"/>
			<point x="99" y="68"/>
			<point x="85" y="52"/>
			<point x="25" y="47" type="curve"/>
		</contour>
		<contour>
			<point x="132" y="293" type="line"/>
			<point x="190" y="295"/>
			<point x="260" y="297"/>
			<point x="323" y="297" type="curve" smooth="yes"/>
			<point x="350" y="297"/>
			<point x="377" y="297"/>
			<point x="405" y="295" type="curve"/>
			<point x="405" y="365" type="line"/>
			<point x="288" y="351" type="line"/>
			<point x="132" y="351" type="line"/>
		</contour>
	</outline>
</glyph>
<glyph name="G" format="2">
	<advance width="641"/>
	<unicode hex="0047"/>
	<outline>
		<contour>
			<point x="316" y="-21" type="curve" smooth="yes"/>
			<point x="391" y="-21"/>
			<point x="492" y="1"/>
			<point x="548" y="82" type="curve"/>
			<point x="498" y="106" type="line"/>
			<point x="463" y="66"/>
			<point x="424" y="40"/>
			<point x="340" y="40" type="curve" smooth="yes"/>
			<point x="200" y="40"/>
			<point x="129" y="158"/>
			<point x="129" y="289" type="curve" smooth="yes"/>
			<point x="129" y="446"/>
			<point x="226" y="565"/>
			<point x="346" y="565" type="curve" smooth="yes"/>
			<point x="438" y="565"/>
			<point x="487" y="533"/>
			<point x="508" y="510" type="curve"/>
			<point x="513" y="519"/>
			<point x="515" y="527"/>
			<point x="515" y="535" type="curve" smooth="yes"/>
			<point x="515" y="572"/>
			<point x="459" y="587"/>
			<point x="424" y="587" type="curve" smooth="yes"/>
			<point x="411" y="587"/>
			<point x="401" y="585"/>
			<point x="398" y="581" type="curve"/>
			<point x="434" y="576"/>
			<point x="472" y="520"/>
			<point x="497" y="452" type="curve"/>
			<point x="557" y="450" type="line"/>
			<point x="558" y="463"/>
			<point x="558" y="485"/>
			<point x="558" y="509" type="curve" smooth="yes"/>
			<point x="558" y="552"/>
			<point x="555" y="581"/>
			<point x="553" y="598" type="curve"/>
			<point x="542" y="602"/>
			<point x="489" y="619"/>
			<point x="399" y="619" type="curve" smooth="yes"/>
			<point x="148" y="619"/>
			<point x="30" y="442"/>
			<point x="30" y="253" type="curve" smooth="yes"/>
			<point x="30" y="91"/>
			<point x="150" y="-21"/>
		</contour>
		<contour>
			<point x="454" y="35" type="line"/>
			<point x="548" y="82" type="line"/>
			<point x="551" y="201" type="line" smooth="yes"/>
			<point x="552" y="247"/>
			<point x="584" y="254"/>
			<point x="604" y="254" type="curve" smooth="yes"/>
			<point x="610" y="254"/>
			<point x="614" y="254"/>
			<point x="617" y="254" type="curve"/>
			<point x="609" y="300" type="line"/>
			<point x="573" y="298"/>
			<point x="526" y="296"/>
			<point x="487" y="296" type="curve" smooth="yes"/>
			<point x="454" y="296"/>
			<point x="421" y="297"/>
			<point x="382" y="300" type="curve"/>
			<point x="387" y="251" type="line"/>
			<point x="440" y="251"/>
			<point x="464" y="236"/>
			<point x="464" y="203" type="curve" smooth="yes"/>
			<point x="464" y="148"/>
			<point x="473" y="83"/>
		</contour>
	</outline>
</glyph>
<glyph name="H" format="2">
	<advance width="693"/>
	<unicode hex="0048"/>
	<outline>
		<contour>
			<point x="36" y="0" type="line"/>
			<point x="298" y="0" type="line"/>
			<point x="290" y="46" type="line"/>
			<point x="249" y="46"/>
			<point x="208" y="63"/>
			<point x="206" y="118" type="curve" smooth="yes"/>
			<point x="204" y="169"/>
			<point x="203" y="217"/>
			<point x="203" y="261" type="curve" smooth="yes"/>
			<point x="203" y="359"/>
			<point x="206" y="441"/>
			<point x="213" y="511" type="curve" smooth="yes"/>
			<point x="218" y="559"/>
			<point x="248" y="564"/>
			<point x="295" y="567" type="curve"/>
			<point x="289" y="617" type="line"/>
			<point x="248" y="615"/>
			<point x="199" y="613"/>
			<point x="149" y="613" type="curve" smooth="yes"/>
			<point x="109" y="613"/>
			<point x="68" y="614"/>
			<point x="27" y="616" type="curve"/>
			<point x="34" y="567" type="line"/>
			<point x="109" y="567"/>
			<point x="117" y="537"/>
			<point x="119" y="491" type="curve" smooth="yes"/>
			<point x="121" y="440"/>
			<point x="122" y="387"/>
			<point x="122" y="336" type="curve" smooth="yes"/>
			<point x="122" y="245"/>
			<point x="119" y="161"/>
			<point x="116" y="106" type="curve" smooth="yes"/>
			<point x="113" y="58"/>
			<point x="79" y="49"/>
			<point x="30" y="49" type="curve"/>
		</contour>
		<contour>
			<point x="149" y="276" type="line"/>
			<point x="567" y="276" type="line"/>
			<point x="567" y="341" type="line"/>
			<point x="410" y="335" type="line"/>
			<point x="149" y="335" type="line"/>
		</contour>
		<contour>
			<point x="410" y="0" type="line"/>
			<point x="670" y="0" type="line"/>
			<point x="661" y="47" type="line"/>
			<point x="621" y="47"/>
			<point x="580" y="63"/>
			<point x="578" y="118" type="curve" smooth="yes"/>
			<point x="576" y="170"/>
			<point x="575" y="218"/>
			<point x="575" y="263" type="curve" smooth="yes"/>
			<point x="575" y="360"/>
			<point x="579" y="442"/>
			<point x="584" y="511" type="curve" smooth="yes"/>
			<point x="587" y="559"/>
			<point x="620" y="564"/>
			<point x="667" y="567" type="curve"/>
			<point x="661" y="617" type="line"/>
			<point x="619" y="615"/>
			<point x="571" y="613"/>
			<point x="521" y="613" type="curve" smooth="yes"/>
			<point x="482" y="613"/>
			<point x="441" y="614"/>
			<point x="400" y="616" type="curve"/>
			<point x="407" y="567" type="line"/>
			<point x="483" y="567"/>
			<point x="490" y="537"/>
			<point x="492" y="491" type="curve" smooth="yes"/>
			<point x="494" y="438"/>
			<point x="495" y="383"/>
			<point x="495" y="331" type="curve" smooth="yes"/>
			<point x="495" y="242"/>
			<point x="493" y="160"/>
			<point x="490" y="106" type="curve" smooth="yes"/>
			<point x="487" y="58"/>
			<point x="452" y="49"/>
			<point x="403" y="49" type="curve"/>
		</contour>
	</outline>
</glyph>
<glyph name="I" format="2">
	<advance width="315"/>
	<unicode hex="0049"/>
	<outline>
		<contour>
			<point x="32" y="0" type="line"/>
			<point x="287" y="0" type="line"/>
			<point x="279" y="39" type="line"/>
			<point x="239" y="39"/>
			<point x="200" y="63"/>
			<point x="198" y="118" type="curve" smooth="yes"/>
			<point x="196" y="169"/>
			<point x="195" y="216"/>
			<point x="195" y="259" type="curve" smooth="yes"/>
			<point x="195" y="358"/>
			<point x="199" y="440"/>
			<point x="205" y="511" type="curve" smooth="yes"/>
			<point x="209" y="559"/>
			<point x="240" y="567"/>
			<point x="287" y="569" type="curve"/>
			<point x="281" y="617" type="line"/>
			<point x="239" y="615"/>
			<point x="192" y="613"/>
			<point x="143" y="613" type="curve" smooth="yes"/>
			<point x="104" y="613"/>
			<point x="64" y="614"/>
			<point x="23" y="616" type="curve"/>
			<point x="30" y="567" type="line"/>
			<point x="105" y="567"/>
			<point x="113" y="537"/>
			<point x="115" y="491" type="curve" smooth="yes"/>
			<point x="117" y="440"/>
			<point x="118" y="387"/>
			<point x="118" y="336" type="curve" smooth="yes"/>
			<point x="118" y="245"/>
			<point x="115" y="161"/>
			<point x="112" y="106" type="curve" smooth="yes"/>
			<point x="109" y="58"/>
			<point x="75" y="48"/>
			<point x="26" y="48" type="curve"/>
		</contour>
	</outline>
</glyph>
<glyph name="J" format="2">
	<advance width="325"/>
	<unicode hex="004A"/>
	<outline>
		<contour>
			<point x="59" y="-141" type="curve" smooth="yes"/>
			<point x="187" y="-141"/>
			<point x="210" y="-42"/>
			<point x="210" y="20" type="curve" smooth="yes"/>
			<point x="210" y="66"/>
			<point x="210" y="117"/>
			<point x="208" y="170" type="curve" smooth="yes"/>
			<point x="206" y="225"/>
			<point x="206" y="282"/>
			<point x="206" y="334" type="curve" smooth="yes"/>
			<point x="206" y="390"/>
			<point x="206" y="452"/>
			<point x="211" y="492" type="curve" smooth="yes"/>
			<point x="217" y="544"/>
			<point x="239" y="564"/>
			<point x="294" y="567" type="curve"/>
			<point x="288" y="617" type="line"/>
			<point x="236" y="614"/>
			<point x="193" y="612"/>
			<point x="151" y="612" type="curve" smooth="yes"/>
			<point x="112" y="612"/>
			<point x="64" y="614"/>
			<point x="31" y="616" type="curve"/>
			<point x="36" y="567" type="line"/>
			<point x="59" y="567"/>
			<point x="116" y="565"/>
			<point x="119" y="503" type="curve" smooth="yes"/>
			<point x="124" y="383"/>
			<point x="129" y="218"/>
			<point x="129" y="114" type="curve" smooth="yes"/>
			<point x="129" y="96"/>
			<point x="129" y="79"/>
			<point x="128" y="65" type="curve" smooth="yes"/>
			<point x="125" y="25"/>
			<point x="111" y="-75"/>
			<point x="27" y="-75" type="curve" smooth="yes"/>
			<point x="5" y="-75"/>
			<point x="-14" y="-69"/>
			<point x="-26" y="-64" type="curve"/>
			<point x="-46" y="-100" type="line"/>
			<point x="-35" y="-113"/>
			<point x="-4" y="-141"/>
		</contour>
	</outline>
</glyph>
<glyph name="K" format="2">
	<advance width="656"/>
	<unicode hex="004B"/>
	<outline>
		<contour>
			<point x="405" y="0" type="line"/>
			<point x="641" y="0" type="line"/>
			<point x="631" y="46" type="line"/>
			<point x="622" y="46" type="line" smooth="yes"/>
			<point x="556" y="46"/>
			<point x="391" y="260"/>
			<point x="336" y="346" type="curve"/>
			<point x="320" y="315" type="line"/>
			<point x="361" y="360"/>
			<point x="481" y="483"/>
			<point x="529" y="527" type="curve" smooth="yes"/>
			<point x="554" y="550"/>
			<point x="580" y="571"/>
			<point x="611" y="571" type="curve"/>
			<point x="604" y="616" type="line"/>
			<point x="583" y="614"/>
			<point x="536" y="613"/>
			<point x="472" y="613" type="curve" smooth="yes"/>
			<point x="448" y="613"/>
			<point x="424" y="613"/>
			<point x="401" y="614" type="curve"/>
			<point x="408" y="567" type="line"/>
			<point x="448" y="567"/>
			<point x="458" y="558"/>
			<point x="458" y="546" type="curve" smooth="yes"/>
			<point x="458" y="541"/>
			<point x="456" y="536"/>
			<point x="452" y="531" type="curve" smooth="yes"/>
			<point x="388" y="451"/>
			<point x="279" y="353"/>
			<point x="249" y="326" type="curve"/>
			<point x="257" y="301" type="line"/>
			<point x="321" y="239"/>
			<point x="416" y="117"/>
			<point x="429" y="97" type="curve" smooth="yes"/>
			<point x="438" y="83"/>
			<point x="442" y="73"/>
			<point x="442" y="66" type="curve" smooth="yes"/>
			<point x="442" y="45"/>
			<point x="414" y="43"/>
			<point x="394" y="43" type="curve"/>
		</contour>
		<contour>
			<point x="56" y="-1" type="line"/>
			<point x="301" y="-1" type="line"/>
			<point x="293" y="41" type="line"/>
			<point x="253" y="41"/>
			<point x="210" y="55"/>
			<point x="208" y="110" type="curve" smooth="yes"/>
			<point x="206" y="161"/>
			<point x="205" y="209"/>
			<point x="205" y="254" type="curve" smooth="yes"/>
			<point x="205" y="355"/>
			<point x="209" y="441"/>
			<point x="215" y="511" type="curve" smooth="yes"/>
			<point x="219" y="560"/>
			<point x="266" y="567"/>
			<point x="306" y="567" type="curve"/>
			<point x="300" y="617" type="line"/>
			<point x="254" y="614"/>
			<point x="210" y="613"/>
			<point x="164" y="613" type="curve" smooth="yes"/>
			<point x="126" y="613"/>
			<point x="87" y="614"/>
			<point x="45" y="616" type="curve"/>
			<point x="51" y="567" type="line"/>
			<point x="111" y="567"/>
			<point x="129" y="544"/>
			<point x="129" y="495" type="curve" smooth="yes"/>
			<point x="129" y="354"/>
			<point x="129" y="193"/>
			<point x="125" y="108" type="curve" smooth="yes"/>
			<point x="123" y="69"/>
			<point x="101" y="49"/>
			<point x="50" y="49" type="curve"/>
		</contour>
	</outline>
</glyph>
<glyph name="L" format="2">
	<advance width="528"/>
	<unicode hex="004C"/>
	<outline>
		<contour>
			<point x="47" y="0" type="line"/>
			<point x="494" y="0" type="line"/>
			<point x="496" y="10"/>
			<point x="497" y="39"/>
			<point x="497" y="71" type="curve" smooth="yes"/>
			<point x="497" y="107"/>
			<point x="496" y="145"/>
			<point x="494" y="163" type="curve"/>
			<point x="437" y="157" type="line"/>
			<point x="433" y="128"/>
			<point x="422" y="92"/>
			<point x="407" y="63" type="curve"/>
			<point x="378" y="59"/>
			<point x="320" y="55"/>
			<point x="275" y="55" type="curve" smooth="yes"/>
			<point x="261" y="55"/>
			<point x="259" y="55"/>
			<point x="248" y="56" type="curve" smooth="yes"/>
			<point x="222" y="58"/>
			<point x="205" y="75"/>
			<point x="204" y="105" type="curve" smooth="yes"/>
			<point x="202" y="159"/>
			<point x="202" y="177"/>
			<point x="202" y="197" type="curve" smooth="yes"/>
			<point x="202" y="224"/>
			<point x="205" y="400"/>
			<point x="216" y="518" type="curve" smooth="yes"/>
			<point x="220" y="564"/>
			<point x="245" y="568"/>
			<point x="299" y="568" type="curve"/>
			<point x="293" y="615" type="line"/>
			<point x="257" y="613"/>
			<point x="211" y="612"/>
			<point x="162" y="612" type="curve" smooth="yes"/>
			<point x="121" y="612"/>
			<point x="79" y="613"/>
			<point x="41" y="616" type="curve"/>
			<point x="45" y="569" type="line"/>
			<point x="99" y="569"/>
			<point x="121" y="547"/>
			<point x="123" y="511" type="curve" smooth="yes"/>
			<point x="126" y="452"/>
			<point x="128" y="386"/>
			<point x="128" y="323" type="curve" smooth="yes"/>
			<point x="128" y="244"/>
			<point x="125" y="169"/>
			<point x="119" y="113" type="curve" smooth="yes"/>
			<point x="114" y="63"/>
			<point x="89" y="49"/>
			<point x="41" y="49" type="curve"/>
		</contour>
	</outline>
</glyph>
<glyph name="M" format="2">
	<advance width="888"/>
	<unicode hex="004D"/>
	<outline>
		<contour>
			<point x="862" y="1" type="line"/>
			<point x="855" y="41" type="line"/>
			<point x="798" y="41"/>
			<point x="778" y="53"/>
			<point x="774" y="117" type="curve" smooth="yes"/>
			<point x="770" y="173"/>
			<point x="768" y="261"/>
			<point x="768" y="351" type="curve" smooth="yes"/>
			<point x="768" y="401"/>
			<point x="768" y="450"/>
			<point x="770" y="495" type="curve" smooth="yes"/>
			<point x="773" y="557"/>
			<point x="804" y="567"/>
			<point x="858" y="567" type="curve"/>
			<point x="851" y="616" type="line"/>
			<point x="808" y="613"/>
			<point x="764" y="612"/>
			<point x="725" y="612" type="curve" smooth="yes"/>
			<point x="695" y="612"/>
			<point x="667" y="613"/>
			<point x="646" y="614" type="curve"/>
			<point x="419" y="62" type="line"/>
			<point x="475" y="41" type="line"/>
			<point x="536" y="197"/>
			<point x="598" y="340"/>
			<point x="655" y="466" type="curve"/>
			<point x="689" y="580" type="line"/>
			<point x="680" y="562" type="line"/>
			<point x="684" y="497"/>
			<point x="686" y="402"/>
			<point x="686" y="315" type="curve" smooth="yes"/>
			<point x="686" y="215"/>
			<point x="684" y="126"/>
			<point x="681" y="107" type="curve" smooth="yes"/>
			<point x="673" y="53"/>
			<point x="644" y="45"/>
			<point x="597" y="45" type="curve"/>
			<point x="604" y="1" type="line"/>
		</contour>
		<contour>
			<point x="44" y="1" type="line"/>
			<point x="289" y="1" type="line"/>
			<point x="280" y="42" type="line"/>
			<point x="233" y="42"/>
			<point x="215" y="53"/>
			<point x="208" y="97" type="curve" smooth="yes"/>
			<point x="203" y="129"/>
			<point x="200" y="244"/>
			<point x="200" y="361" type="curve" smooth="yes"/>
			<point x="200" y="426"/>
			<point x="201" y="491"/>
			<point x="204" y="541" type="curve"/>
			<point x="198" y="551" type="line"/>
			<point x="230" y="438" type="line"/>
			<point x="303" y="316"/>
			<point x="407" y="83"/>
			<point x="421" y="25" type="curve"/>
			<point x="474" y="41" type="line"/>
			<point x="453" y="69" type="line"/>
			<point x="435" y="204" type="line"/>
			<point x="405" y="324"/>
			<point x="276" y="551"/>
			<point x="238" y="615" type="curve"/>
			<point x="203" y="613"/>
			<point x="171" y="613"/>
			<point x="139" y="613" type="curve" smooth="yes"/>
			<point x="107" y="613"/>
			<point x="74" y="614"/>
			<point x="36" y="616" type="curve"/>
			<point x="42" y="567" type="line"/>
			<point x="88" y="567"/>
			<point x="135" y="559"/>
			<point x="135" y="497" type="curve" smooth="yes"/>
			<point x="135" y="386" type="line" smooth="yes"/>
			<point x="135" y="284"/>
			<point x="134" y="179"/>
			<point x="130" y="117" type="curve" smooth="yes"/>
			<point x="126" y="61"/>
			<point x="94" y="45"/>
			<point x="38" y="45" type="curve"/>
		</contour>
	</outline>
</glyph>
<glyph name="N" format="2">
	<advance width="713"/>
	<unicode hex="004E"/>
	<outline>
		<contour>
			<point x="531" y="-11" type="curve"/>
			<point x="553" y="-4"/>
			<point x="576" y="0"/>
			<point x="614" y="2" type="curve"/>
			<point x="611" y="80"/>
			<point x="609" y="166"/>
			<point x="609" y="251" type="curve" smooth="yes"/>
			<point x="609" y="347"/>
			<point x="612" y="439"/>
			<point x="618" y="512" type="curve" smooth="yes"/>
			<point x="621" y="554"/>
			<point x="643" y="568"/>
			<point x="690" y="568" type="curve"/>
			<point x="683" y="617" type="line"/>
			<point x="636" y="611"/>
			<point x="604" y="611"/>
			<point x="573" y="611" type="curve" smooth="yes"/>
			<point x="517" y="611"/>
			<point x="487" y="613"/>
			<point x="444" y="616" type="curve"/>
			<point x="451" y="567" type="line"/>
			<point x="505" y="567"/>
			<point x="530" y="557"/>
			<point x="535" y="487" type="curve" smooth="yes"/>
			<point x="538" y="442"/>
			<point x="540" y="364"/>
			<point x="540" y="286" type="curve" smooth="yes"/>
			<point x="540" y="196"/>
			<point x="538" y="107"/>
			<point x="530" y="74" type="curve"/>
			<point x="549" y="54" type="line"/>
			<point x="504" y="205" type="line"/>
			<point x="415" y="338"/>
			<point x="277" y="542"/>
			<point x="226" y="614" type="curve"/>
			<point x="190" y="612"/>
			<point x="159" y="612"/>
			<point x="129" y="612" type="curve" smooth="yes"/>
			<point x="96" y="612"/>
			<point x="63" y="613"/>
			<point x="22" y="616" type="curve"/>
			<point x="28" y="567" type="line"/>
			<point x="82" y="567"/>
			<point x="108" y="541"/>
			<point x="111" y="496" type="curve" smooth="yes"/>
			<point x="113" y="465"/>
			<point x="113" y="374"/>
			<point x="113" y="323" type="curve" smooth="yes"/>
			<point x="113" y="299"/>
			<point x="111" y="192"/>
			<point x="106" y="115" type="curve" smooth="yes"/>
			<point x="102" y="61"/>
			<point x="80" y="47"/>
			<point x="24" y="47" type="curve"/>
			<point x="30" y="-1" type="line"/>
			<point x="269" y="-1" type="line"/>
			<point x="262" y="43" type="line"/>
			<point x="222" y="43"/>
			<point x="193" y="55"/>
			<point x="185" y="109" type="curve" smooth="yes"/>
			<point x="182" y="128"/>
			<point x="180" y="210"/>
			<point x="180" y="303" type="curve" smooth="yes"/>
			<point x="180" y="384"/>
			<point x="182" y="490"/>
			<point x="186" y="555" type="curve"/>
			<point x="176" y="555" type="line"/>
			<point x="176" y="553" type="line"/>
			<point x="222" y="442" type="line"/>
			<point x="315" y="315"/>
			<point x="410" y="186"/>
		</contour>
	</outline>
</glyph>
<glyph name="O" format="2">
	<advance width="630"/>
	<unicode hex="004F"/>
	<outline>
		<contour>
			<point x="303" y="-12" type="curve" smooth="yes"/>
			<point x="480" y="-12"/>
			<point x="592" y="119"/>
			<point x="592" y="336" type="curve" smooth="yes"/>
			<point x="592" y="522"/>
			<point x="479" y="619"/>
			<point x="338" y="619" type="curve" smooth="yes"/>
			<point x="167" y="619"/>
			<point x="36" y="477"/>
			<point x="36" y="263" type="curve" smooth="yes"/>
			<point x="36" y="117"/>
			<point x="128" y="-12"/>
		</contour>
		<contour>
			<point x="315" y="47" type="curve" smooth="yes"/>
			<point x="199" y="47"/>
			<point x="129" y="156"/>
			<point x="129" y="304" type="curve" smooth="yes"/>
			<point x="129" y="488"/>
			<point x="230" y="565"/>
			<point x="316" y="565" type="curve" smooth="yes"/>
			<point x="419" y="565"/>
			<point x="494" y="459"/>
			<point x="494" y="322" type="curve" smooth="yes"/>
			<point x="494" y="162"/>
			<point x="434" y="47"/>
		</contour>
	</outline>
</glyph>
<glyph name="P" format="2">
	<advance width="543"/>
	<unicode hex="0050"/>
	<outline>
		<contour>
			<point x="35" y="0" type="line"/>
			<point x="290" y="0" type="line"/>
			<point x="280" y="43" type="line"/>
			<point x="239" y="43"/>
			<point x="192" y="52"/>
			<point x="187" y="96" type="curve" smooth="yes"/>
			<point x="182" y="139"/>
			<point x="182" y="191"/>
			<point x="182" y="270" type="curve"/>
			<point x="151" y="264" type="line"/>
			<point x="151" y="263"/>
			<point x="151" y="263"/>
			<point x="152" y="263" type="curve"/>
			<point x="178" y="248"/>
			<point x="227" y="236"/>
			<point x="273" y="236" type="curve" smooth="yes"/>
			<point x="430" y="236"/>
			<point x="513" y="339"/>
			<point x="513" y="464" type="curve" smooth="yes"/>
			<point x="513" y="550"/>
			<point x="456" y="619"/>
			<point x="309" y="619" type="curve" smooth="yes"/>
			<point x="271" y="619"/>
			<point x="228" y="618"/>
			<point x="189" y="616" type="curve" smooth="yes"/>
			<point x="152" y="614"/>
			<point x="117" y="613"/>
			<point x="88" y="613" type="curve" smooth="yes"/>
			<point x="66" y="613"/>
			<point x="42" y="613"/>
			<point x="18" y="615" type="curve"/>
			<point x="22" y="567" type="line"/>
			<point x="88" y="564"/>
			<point x="98" y="529"/>
			<point x="101" y="484" type="curve" smooth="yes"/>
			<point x="104" y="438"/>
			<point x="106" y="376"/>
			<point x="106" y="302" type="curve" smooth="yes"/>
			<point x="106" y="243"/>
			<point x="104" y="175"/>
			<point x="98" y="101" type="curve" smooth="yes"/>
			<point x="95" y="62"/>
			<point x="80" y="47"/>
			<point x="27" y="47" type="curve"/>
		</contour>
		<contour>
			<point x="286" y="289" type="curve" smooth="yes"/>
			<point x="230" y="289"/>
			<point x="195" y="311"/>
			<point x="184" y="324" type="curve"/>
			<point x="184" y="434" type="line" smooth="yes"/>
			<point x="184" y="482"/>
			<point x="185" y="529"/>
			<point x="188" y="563" type="curve"/>
			<point x="202" y="570"/>
			<point x="225" y="575"/>
			<point x="251" y="575" type="curve" smooth="yes"/>
			<point x="359" y="575"/>
			<point x="415" y="521"/>
			<point x="415" y="444" type="curve" smooth="yes"/>
			<point x="415" y="374"/>
			<point x="390" y="289"/>
		</contour>
	</outline>
</glyph>
<glyph name="Q" format="2">
	<advance width="648"/>
	<unicode hex="0051"/>
	<outline>
		<contour>
			<point x="684" y="-185" type="curve" smooth="yes"/>
			<point x="741" y="-185"/>
			<point x="793" y="-177"/>
			<point x="841" y="-165" type="curve"/>
			<point x="849" y="-90" type="line"/>
			<point x="837" y="-74" type="line"/>
			<point x="821" y="-80"/>
			<point x="766" y="-99"/>
			<point x="679" y="-99" type="curve" smooth="yes"/>
			<point x="594" y="-99"/>
			<point x="429" y="-64"/>
			<point x="385" y="16" type="curve"/>
			<point x="330" y="9" type="line"/>
			<point x="353" y="-45"/>
			<point x="466" y="-185"/>
		</contour>
		<component base="O"/>
	</outline>
</glyph>
<glyph name="R" format="2">
	<advance width="609"/>
	<unicode hex="0052"/>
	<outline>
		<contour>
			<point x="464" y="0" type="curve"/>
			<point x="599" y="0" type="line"/>
			<point x="590" y="46" type="line"/>
			<point x="517" y="46"/>
			<point x="399" y="239"/>
			<point x="359" y="319" type="curve"/>
			<point x="280" y="298" type="line"/>
			<point x="352" y="129"/>
			<point x="427" y="32"/>
		</contour>
		<contour>
			<point x="35" y="0" type="line"/>
			<point x="290" y="0" type="line"/>
			<point x="280" y="43" type="line"/>
			<point x="239" y="43"/>
			<point x="192" y="52"/>
			<point x="187" y="96" type="curve" smooth="yes"/>
			<point x="182" y="139"/>
			<point x="182" y="211"/>
			<point x="182" y="290" type="curve"/>
			<point x="151" y="284" type="line"/>
			<point x="151" y="283"/>
			<point x="151" y="283"/>
			<point x="152" y="283" type="curve"/>
			<point x="178" y="268"/>
			<point x="227" y="256"/>
			<point x="282" y="256" type="curve" smooth="yes"/>
			<point x="420" y="256"/>
			<point x="513" y="339"/>
			<point x="513" y="456" type="curve" smooth="yes"/>
			<point x="513" y="556"/>
			<point x="436" y="619"/>
			<point x="309" y="619" type="curve" smooth="yes"/>
			<point x="271" y="619"/>
			<point x="228" y="618"/>
			<point x="189" y="616" type="curve" smooth="yes"/>
			<point x="152" y="614"/>
			<point x="117" y="613"/>
			<point x="88" y="613" type="curve" smooth="yes"/>
			<point x="66" y="613"/>
			<point x="42" y="613"/>
			<point x="18" y="615" type="curve"/>
			<point x="22" y="567" type="line"/>
			<point x="88" y="564"/>
			<point x="98" y="529"/>
			<point x="101" y="484" type="curve" smooth="yes"/>
			<point x="104" y="438"/>
			<point x="106" y="376"/>
			<point x="106" y="302" type="curve" smooth="yes"/>
			<point x="106" y="243"/>
			<point x="104" y="175"/>
			<point x="98" y="101" type="curve" smooth="yes"/>
			<point x="95" y="62"/>
			<point x="80" y="47"/>
			<point x="27" y="47" type="curve"/>
		</contour>
		<contour>
			<point x="281" y="313" type="curve" smooth="yes"/>
			<point x="230" y="313"/>
			<point x="195" y="338"/>
			<point x="184" y="351" type="curve"/>
			<point x="184" y="434" type="line" smooth="yes"/>
			<point x="184" y="482"/>
			<point x="185" y="525"/>
			<point x="188" y="559" type="curve"/>
			<point x="202" y="566"/>
			<point x="225" y="575"/>
			<point x="270" y="575" type="curve" smooth="yes"/>
			<point x="359" y="575"/>
			<point x="419" y="529"/>
			<point x="419" y="442" type="curve" smooth="yes"/>
			<point x="419" y="382"/>
			<point x="390" y="313"/>
		</contour>
	</outline>
</glyph>
<glyph name="S" format="2">
	<advance width="469"/>
	<unicode hex="0053"/>
	<outline>
		<contour>
			<point x="203" y="-10" type="curve" smooth="yes"/>
			<point x="365" y="-10"/>
			<point x="420" y="87"/>
			<point x="420" y="170" type="curve" smooth="yes"/>
			<point x="420" y="266"/>
			<point x="342" y="323"/>
			<point x="270" y="373" type="curve"/>
			<point x="252" y="385" type="line"/>
			<point x="196" y="423"/>
			<point x="149" y="458"/>
			<point x="149" y="505" type="curve" smooth="yes"/>
			<point x="149" y="544"/>
			<point x="182" y="575"/>
			<point x="235" y="575" type="curve" smooth="yes"/>
			<point x="311" y="575"/>
			<point x="346" y="511"/>
			<point x="355" y="493" type="curve"/>
			<point x="297" y="609" type="line"/>
			<point x="318" y="561"/>
			<point x="333" y="505"/>
			<point x="333" y="468" type="curve"/>
			<point x="404" y="460" type="line"/>
			<point x="407" y="481"/>
			<point x="410" y="514"/>
			<point x="410" y="547" type="curve" smooth="yes"/>
			<point x="410" y="566"/>
			<point x="409" y="584"/>
			<point x="407" y="598" type="curve"/>
			<point x="379" y="612"/>
			<point x="323" y="623"/>
			<point x="269" y="623" type="curve" smooth="yes"/>
			<point x="118" y="623"/>
			<point x="63" y="546"/>
			<point x="63" y="475" type="curve" smooth="yes"/>
			<point x="63" y="401"/>
			<point x="122" y="356"/>
			<point x="184" y="314" type="curve"/>
			<point x="215" y="293" type="line"/>
			<point x="273" y="253"/>
			<point x="326" y="213"/>
			<point x="326" y="149" type="curve" smooth="yes"/>
			<point x="326" y="98"/>
			<point x="293" y="45"/>
			<point x="218" y="45" type="curve" smooth="yes"/>
			<point x="152" y="45"/>
			<point x="122" y="85"/>
			<point x="102" y="114" type="curve"/>
			<point x="102" y="82"/>
			<point x="106" y="47"/>
			<point x="152" y="36" type="curve"/>
			<point x="122" y="70"/>
			<point x="117" y="130"/>
			<point x="117" y="152" type="curve"/>
			<point x="48" y="160" type="line"/>
			<point x="42" y="121"/>
			<point x="40" y="89"/>
			<point x="40" y="65" type="curve" smooth="yes"/>
			<point x="40" y="39"/>
			<point x="41" y="25"/>
			<point x="42" y="13" type="curve"/>
			<point x="50" y="9"/>
			<point x="111" y="-10"/>
		</contour>
	</outline>
</glyph>
<glyph name="T" format="2">
	<advance width="532"/>
	<unicode hex="0054"/>
	<outline>
		<contour>
			<point x="126" y="0" type="line"/>
			<point x="376" y="0" type="line"/>
			<point x="367" y="49" type="line"/>
			<point x="347" y="49"/>
			<point x="305" y="52"/>
			<point x="301" y="99" type="curve" smooth="yes"/>
			<point x="298" y="140"/>
			<point x="296" y="187"/>
			<point x="296" y="238" type="curve" smooth="yes"/>
			<point x="296" y="355"/>
			<point x="304" y="489"/>
			<point x="319" y="601" type="curve"/>
			<point x="162" y="584" type="line"/>
			<point x="167" y="574" type="line"/>
			<point x="190" y="574"/>
			<point x="208" y="572"/>
			<point x="211" y="538" type="curve" smooth="yes"/>
			<point x="215" y="494"/>
			<point x="217" y="430"/>
			<point x="217" y="362" type="curve" smooth="yes"/>
			<point x="217" y="279"/>
			<point x="214" y="188"/>
			<point x="206" y="112" type="curve" smooth="yes"/>
			<point x="202" y="76"/>
			<point x="176" y="49"/>
			<point x="122" y="47" type="curve"/>
		</contour>
		<contour>
			<point x="515" y="460" type="line"/>
			<point x="524" y="617" type="line"/>
			<point x="446" y="611"/>
			<point x="310" y="610"/>
			<point x="257" y="610" type="curve" smooth="yes"/>
			<point x="166" y="610"/>
			<point x="99" y="611"/>
			<point x="16" y="616" type="curve"/>
			<point x="16" y="573"/>
			<point x="10" y="501"/>
			<point x="6" y="465" type="curve"/>
			<point x="70" y="474" type="line"/>
			<point x="75" y="501"/>
			<point x="87" y="558"/>
			<point x="116" y="586" type="curve"/>
			<point x="75" y="554" type="line"/>
			<point x="103" y="555"/>
			<point x="187" y="557"/>
			<point x="257" y="557" type="curve" smooth="yes"/>
			<point x="308" y="557" type="line" smooth="yes"/>
			<point x="361" y="557"/>
			<point x="416" y="555"/>
			<point x="467" y="537" type="curve"/>
			<point x="402" y="594" type="line"/>
			<point x="435" y="564"/>
			<point x="454" y="512"/>
			<point x="460" y="467" type="curve"/>
		</contour>
	</outline>
</glyph>
<glyph name="U" format="2">
	<advance width="617"/>
	<unicode hex="0055"/>
	<outline>
		<contour>
			<point x="300" y="-13" type="curve" smooth="yes"/>
			<point x="409" y="-13"/>
			<point x="515" y="35"/>
			<point x="528" y="192" type="curve" smooth="yes"/>
			<point x="531" y="227"/>
			<point x="531" y="274"/>
			<point x="531" y="327" type="curve" smooth="yes"/>
			<point x="531" y="383"/>
			<point x="531" y="446"/>
			<point x="535" y="511" type="curve" smooth="yes"/>
			<point x="537" y="551"/>
			<point x="558" y="564"/>
			<point x="612" y="566" type="curve"/>
			<point x="606" y="616" type="line"/>
			<point x="573" y="614"/>
			<point x="526" y="613"/>
			<point x="479" y="613" type="curve" smooth="yes"/>
			<point x="442" y="613"/>
			<point x="391" y="614"/>
			<point x="369" y="615" type="curve"/>
			<point x="376" y="571" type="line"/>
			<point x="430" y="571"/>
			<point x="464" y="554"/>
			<point x="466" y="494" type="curve" smooth="yes"/>
			<point x="468" y="437"/>
			<point x="469" y="380"/>
			<point x="469" y="324" type="curve" smooth="yes"/>
			<point x="469" y="284"/>
			<point x="468" y="245"/>
			<point x="465" y="206" type="curve" smooth="yes"/>
			<point x="458" y="113"/>
			<point x="409" y="47"/>
			<point x="317" y="47" type="curve" smooth="yes"/>
			<point x="223" y="47"/>
			<point x="182" y="109"/>
			<point x="176" y="174" type="curve" smooth="yes"/>
			<point x="173" y="205"/>
			<point x="173" y="243"/>
			<point x="173" y="260" type="curve" smooth="yes"/>
			<point x="173" y="325"/>
			<point x="175" y="420"/>
			<point x="180" y="487" type="curve" smooth="yes"/>
			<point x="184" y="538"/>
			<point x="196" y="562"/>
			<point x="274" y="567" type="curve"/>
			<point x="268" y="617" type="line"/>
			<point x="221" y="614"/>
			<point x="179" y="613"/>
			<point x="138" y="613" type="curve" smooth="yes"/>
			<point x="94" y="613"/>
			<point x="51" y="614"/>
			<point x="5" y="616" type="curve"/>
			<point x="12" y="567" type="line"/>
			<point x="76" y="567"/>
			<point x="91" y="547"/>
			<point x="91" y="493" type="curve" smooth="yes"/>
			<point x="91" y="457" type="line" smooth="yes"/>
			<point x="91" y="422"/>
			<point x="91" y="376"/>
			<point x="89" y="329" type="curve" smooth="yes"/>
			<point x="87" y="276"/>
			<point x="85" y="221"/>
			<point x="85" y="179" type="curve" smooth="yes"/>
			<point x="85" y="21"/>
			<point x="211" y="-13"/>
		</contour>
	</outline>
</glyph>
<glyph name="V" format="2">
	<advance width="642"/>
	<unicode hex="0056"/>
	<outline>
		<contour>
			<point x="257" y="-18" type="curve"/>
			<point x="287" y="-8"/>
			<point x="326" y="2"/>
			<point x="356" y="6" type="curve"/>
			<point x="401" y="145"/>
			<point x="474" y="330"/>
			<point x="546" y="511" type="curve" smooth="yes"/>
			<point x="559" y="545"/>
			<point x="574" y="568"/>
			<point x="622" y="568" type="curve" smooth="yes"/>
			<point x="641" y="568" type="line"/>
			<point x="633" y="615" type="line"/>
			<point x="601" y="612"/>
			<point x="567" y="611"/>
			<point x="533" y="611" type="curve" smooth="yes"/>
			<point x="484" y="611"/>
			<point x="434" y="613"/>
			<point x="384" y="615" type="curve"/>
			<point x="391" y="576" type="line"/>
			<point x="398" y="576" type="line"/>
			<point x="431" y="576"/>
			<point x="473" y="574"/>
			<point x="473" y="526" type="curve" smooth="yes"/>
			<point x="473" y="519"/>
			<point x="472" y="512"/>
			<point x="470" y="504" type="curve" smooth="yes"/>
			<point x="458" y="455"/>
			<point x="369" y="216"/>
			<point x="313" y="69" type="curve"/>
			<point x="295" y="173" type="line"/>
			<point x="259" y="270"/>
			<point x="201" y="461"/>
			<point x="190" y="502" type="curve" smooth="yes"/>
			<point x="184" y="523"/>
			<point x="184" y="531"/>
			<point x="184" y="537" type="curve" smooth="yes"/>
			<point x="184" y="556"/>
			<point x="205" y="569"/>
			<point x="235" y="569" type="curve" smooth="yes"/>
			<point x="245" y="569"/>
			<point x="256" y="568"/>
			<point x="267" y="566" type="curve"/>
			<point x="260" y="615" type="line"/>
			<point x="228" y="613"/>
			<point x="185" y="612"/>
			<point x="139" y="612" type="curve" smooth="yes"/>
			<point x="93" y="612"/>
			<point x="44" y="613"/>
			<point x="1" y="615" type="curve"/>
			<point x="9" y="567" type="line"/>
			<point x="22" y="567" type="line" smooth="yes"/>
			<point x="63" y="567"/>
			<point x="78" y="540"/>
			<point x="88" y="513" type="curve" smooth="yes"/>
			<point x="167" y="309"/>
			<point x="213" y="144"/>
		</contour>
	</outline>
</glyph>
<glyph name="W" format="2">
	<advance width="959"/>
	<unicode hex="0057"/>
	<outline>
		<contour>
			<point x="609" y="-18" type="curve"/>
			<point x="639" y="-8"/>
			<point x="671" y="2"/>
			<point x="701" y="6" type="curve"/>
			<point x="740" y="145"/>
			<point x="806" y="331"/>
			<point x="872" y="511" type="curve" smooth="yes"/>
			<point x="886" y="550"/>
			<point x="903" y="568"/>
			<point x="958" y="568" type="curve"/>
			<point x="950" y="617" type="line"/>
			<point x="912" y="615"/>
			<point x="873" y="614"/>
			<point x="835" y="614" type="curve" smooth="yes"/>
			<point x="797" y="614"/>
			<point x="757" y="615"/>
			<point x="721" y="617" type="curve"/>
			<point x="728" y="569" type="line"/>
			<point x="740" y="569" type="line"/>
			<point x="784" y="569"/>
			<point x="804" y="563"/>
			<point x="804" y="530" type="curve" smooth="yes"/>
			<point x="804" y="524"/>
			<point x="803" y="518"/>
			<point x="800" y="500" type="curve" smooth="yes"/>
			<point x="794" y="461"/>
			<point x="711" y="228"/>
			<point x="657" y="77" type="curve"/>
			<point x="650" y="173" type="line"/>
			<point x="611" y="285"/>
			<point x="571" y="423"/>
			<point x="554" y="484" type="curve" smooth="yes"/>
			<point x="545" y="515"/>
			<point x="543" y="525"/>
			<point x="543" y="540" type="curve" smooth="yes"/>
			<point x="543" y="559"/>
			<point x="559" y="572"/>
			<point x="593" y="572" type="curve"/>
			<point x="607" y="572" type="line"/>
			<point x="600" y="616" type="line"/>
			<point x="561" y="613"/>
			<point x="522" y="612"/>
			<point x="484" y="612" type="curve" smooth="yes"/>
			<point x="445" y="612"/>
			<point x="403" y="614"/>
			<point x="367" y="616" type="curve"/>
			<point x="373" y="568" type="line"/>
			<point x="426" y="568"/>
			<point x="443" y="547"/>
			<point x="458" y="500" type="curve" smooth="yes"/>
			<point x="523" y="298"/>
			<point x="572" y="139"/>
		</contour>
		<contour>
			<point x="313" y="59" type="curve"/>
			<point x="295" y="173" type="line"/>
			<point x="259" y="270"/>
			<point x="201" y="461"/>
			<point x="190" y="502" type="curve" smooth="yes"/>
			<point x="184" y="523"/>
			<point x="184" y="531"/>
			<point x="184" y="537" type="curve" smooth="yes"/>
			<point x="184" y="556"/>
			<point x="205" y="566"/>
			<point x="235" y="566" type="curve" smooth="yes"/>
			<point x="267" y="566" type="line"/>
			<point x="260" y="616" type="line"/>
			<point x="228" y="614"/>
			<point x="185" y="613"/>
			<point x="139" y="613" type="curve" smooth="yes"/>
			<point x="93" y="613"/>
			<point x="44" y="614"/>
			<point x="1" y="616" type="curve"/>
			<point x="9" y="567" type="line"/>
			<point x="22" y="567" type="line" smooth="yes"/>
			<point x="63" y="567"/>
			<point x="78" y="540"/>
			<point x="88" y="513" type="curve" smooth="yes"/>
			<point x="167" y="309"/>
			<point x="213" y="144"/>
			<point x="257" y="-18" type="curve"/>
			<point x="287" y="-8"/>
			<point x="326" y="2"/>
			<point x="356" y="6" type="curve"/>
			<point x="403" y="145"/>
			<point x="478" y="345"/>
			<point x="540" y="487" type="curve"/>
			<point x="470" y="477" type="line"/>
			<point x="451" y="429"/>
			<point x="369" y="213"/>
		</contour>
	</outline>
</glyph>
<glyph name="X" format="2">
	<advance width="608"/>
	<unicode hex="0058"/>
	<outline>
		<contour>
			<point x="13" y="1" type="line"/>
			<point x="257" y="1" type="line"/>
			<point x="250" y="47" type="line"/>
			<point x="209" y="47"/>
			<point x="196" y="61"/>
			<point x="196" y="80" type="curve" smooth="yes"/>
			<point x="196" y="94"/>
			<point x="203" y="111"/>
			<point x="212" y="126" type="curve" smooth="yes"/>
			<point x="245" y="181"/>
			<point x="300" y="269"/>
			<point x="322" y="294" type="curve"/>
			<point x="336" y="304" type="line"/>
			<point x="363" y="344"/>
			<point x="421" y="426"/>
			<point x="462" y="482" type="curve" smooth="yes"/>
			<point x="503" y="537"/>
			<point x="536" y="567"/>
			<point x="596" y="567" type="curve"/>
			<point x="590" y="617" type="line"/>
			<point x="557" y="614"/>
			<point x="516" y="613"/>
			<point x="474" y="613" type="curve" smooth="yes"/>
			<point x="427" y="613"/>
			<point x="385" y="614"/>
			<point x="347" y="617" type="curve"/>
			<point x="353" y="568" type="line"/>
			<point x="391" y="568"/>
			<point x="413" y="558"/>
			<point x="413" y="540" type="curve" smooth="yes"/>
			<point x="413" y="531"/>
			<point x="408" y="520"/>
			<point x="399" y="505" type="curve" smooth="yes"/>
			<point x="375" y="465"/>
			<point x="328" y="394"/>
			<point x="289" y="344" type="curve"/>
			<point x="265" y="323" type="line"/>
			<point x="226" y="258"/>
			<point x="145" y="142"/>
			<point x="110" y="99" type="curve" smooth="yes"/>
			<point x="86" y="70"/>
			<point x="64" y="51"/>
			<point x="7" y="51" type="curve"/>
		</contour>
		<contour>
			<point x="334" y="1" type="line"/>
			<point x="597" y="1" type="line"/>
			<point x="589" y="48" type="line"/>
			<point x="520" y="48"/>
			<point x="489" y="81"/>
			<point x="338" y="332" type="curve"/>
			<point x="327" y="342" type="line"/>
			<point x="315" y="361"/>
			<point x="265" y="447"/>
			<point x="233" y="503" type="curve" smooth="yes"/>
			<point x="225" y="517"/>
			<point x="221" y="529"/>
			<point x="221" y="539" type="curve" smooth="yes"/>
			<point x="221" y="556"/>
			<point x="237" y="566"/>
			<point x="285" y="566" type="curve"/>
			<point x="277" y="616" type="line"/>
			<point x="232" y="614"/>
			<point x="176" y="613"/>
			<point x="121" y="613" type="curve" smooth="yes"/>
			<point x="85" y="613"/>
			<point x="44" y="614"/>
			<point x="11" y="617" type="curve"/>
			<point x="18" y="565" type="line"/>
			<point x="89" y="565"/>
			<point x="104" y="546"/>
			<point x="145" y="481" type="curve" smooth="yes"/>
			<point x="193" y="404"/>
			<point x="227" y="347"/>
			<point x="258" y="288" type="curve"/>
			<point x="280" y="267" type="line"/>
			<point x="301" y="240"/>
			<point x="360" y="156"/>
			<point x="383" y="110" type="curve" smooth="yes"/>
			<point x="390" y="96"/>
			<point x="394" y="86"/>
			<point x="394" y="77" type="curve" smooth="yes"/>
			<point x="394" y="53"/>
			<point x="365" y="48"/>
			<point x="325" y="48" type="curve"/>
		</contour>
	</outline>
</glyph>
<glyph name="Y" format="2">
	<advance width="571"/>
	<unicode hex="0059"/>
	<outline>
		<contour>
			<point x="247" y="231" type="curve"/>
			<point x="273" y="239"/>
			<point x="303" y="246"/>
			<point x="326" y="248" type="curve"/>
			<point x="349" y="301"/>
			<point x="389" y="388"/>
			<point x="471" y="510" type="curve" smooth="yes"/>
			<point x="496" y="547"/>
			<point x="516" y="571"/>
			<point x="562" y="573" type="curve"/>
			<point x="554" y="618" type="line"/>
			<point x="514" y="616"/>
			<point x="475" y="615"/>
			<point x="436" y="615" type="curve" smooth="yes"/>
			<point x="401" y="615"/>
			<point x="365" y="616"/>
			<point x="330" y="618" type="curve"/>
			<point x="337" y="569" type="line"/>
			<point x="379" y="569"/>
			<point x="408" y="561"/>
			<point x="408" y="535" type="curve" smooth="yes"/>
			<point x="408" y="529"/>
			<point x="405" y="518"/>
			<point x="400" y="507" type="curve" smooth="yes"/>
			<point x="363" y="427"/>
			<point x="330" y="366"/>
			<point x="293" y="310" type="curve"/>
			<point x="268" y="376" type="line"/>
			<point x="240" y="426"/>
			<point x="215" y="478"/>
			<point x="198" y="516" type="curve" smooth="yes"/>
			<point x="193" y="528"/>
			<point x="190" y="537"/>
			<point x="190" y="545" type="curve" smooth="yes"/>
			<point x="190" y="564"/>
			<point x="210" y="572"/>
			<point x="252" y="576" type="curve"/>
			<point x="241" y="618" type="line"/>
			<point x="194" y="616"/>
			<point x="163" y="615"/>
			<point x="123" y="615" type="curve" smooth="yes"/>
			<point x="87" y="615"/>
			<point x="52" y="616"/>
			<point x="12" y="618" type="curve"/>
			<point x="18" y="573" type="line"/>
			<point x="54" y="573"/>
			<point x="85" y="562"/>
			<point x="111" y="514" type="curve" smooth="yes"/>
			<point x="189" y="370"/>
			<point x="215" y="310"/>
		</contour>
		<contour>
			<point x="160" y="0" type="line"/>
			<point x="420" y="0" type="line"/>
			<point x="410" y="51" type="line"/>
			<point x="404" y="51" type="line"/>
			<point x="358" y="51"/>
			<point x="346" y="63"/>
			<point x="339" y="94" type="curve" smooth="yes"/>
			<point x="334" y="116"/>
			<point x="328" y="145"/>
			<point x="328" y="189" type="curve" smooth="yes"/>
			<point x="328" y="218"/>
			<point x="330" y="253"/>
			<point x="337" y="296" type="curve"/>
			<point x="236" y="287" type="line"/>
			<point x="242" y="233"/>
			<point x="245" y="197"/>
			<point x="245" y="168" type="curve" smooth="yes"/>
			<point x="245" y="146"/>
			<point x="243" y="129"/>
			<point x="241" y="112" type="curve" smooth="yes"/>
			<point x="237" y="78"/>
			<point x="224" y="51"/>
			<point x="185" y="51" type="curve" smooth="yes"/>
			<point x="154" y="51" type="line"/>
		</contour>
	</outline>
</glyph>
<glyph name="Z" format="2">
	<advance width="563"/>
	<unicode hex="005A"/>
	<outline>
		<contour>
			<point x="525" y="163" type="curve"/>
			<point x="462" y="157" type="line"/>
			<point x="459" y="128"/>
			<point x="451" y="90"/>
			<point x="437" y="61" type="curve"/>
			<point x="411" y="57"/>
			<point x="357" y="53"/>
			<point x="306" y="53" type="curve" smooth="yes"/>
			<point x="270" y="53"/>
			<point x="234" y="54"/>
			<point x="198" y="57" type="curve" smooth="yes"/>
			<point x="185" y="58"/>
			<point x="172" y="63"/>
			<point x="172" y="78" type="curve" smooth="yes"/>
			<point x="172" y="82"/>
			<point x="173" y="87"/>
			<point x="177" y="92" type="curve" smooth="yes"/>
			<point x="255" y="215"/>
			<point x="456" y="527"/>
			<point x="511" y="569" type="curve"/>
			<point x="505" y="616" type="line"/>
			<point x="470" y="614"/>
			<point x="410" y="614"/>
			<point x="353" y="614" type="curve" smooth="yes"/>
			<point x="254" y="614" type="line" smooth="yes"/>
			<point x="188" y="614"/>
			<point x="97" y="614"/>
			<point x="61" y="616" type="curve"/>
			<point x="61" y="554" type="line" smooth="yes"/>
			<point x="61" y="508"/>
			<point x="63" y="469"/>
			<point x="65" y="452" type="curve"/>
			<point x="129" y="458" type="line"/>
			<point x="132" y="490"/>
			<point x="141" y="528"/>
			<point x="159" y="559" type="curve"/>
			<point x="203" y="562"/>
			<point x="288" y="564"/>
			<point x="354" y="564" type="curve" smooth="yes"/>
			<point x="369" y="564"/>
			<point x="376" y="560"/>
			<point x="376" y="554" type="curve" smooth="yes"/>
			<point x="376" y="550"/>
			<point x="373" y="545"/>
			<point x="370" y="540" type="curve" smooth="yes"/>
			<point x="293" y="416"/>
			<point x="96" y="102"/>
			<point x="23" y="51" type="curve"/>
			<point x="31" y="0" type="line"/>
			<point x="527" y="0" type="line"/>
			<point x="528" y="17"/>
			<point x="529" y="35"/>
			<point x="529" y="52" type="curve" smooth="yes"/>
			<point x="529" y="102"/>
			<point x="528" y="144"/>
		</contour>
	</outline>
</glyph>
<glyph name="bracketleft" format="2">
	<advance width="338"/>
	<unicode hex="005B"/>
	<outline>
		<contour>
			<point x="62" y="-125" type="line"/>
			<point x="105" y="-124"/>
			<point x="154" y="-122"/>
			<point x="204" y="-122" type="curve" smooth="yes"/>
			<point x="236" y="-122"/>
			<point x="268" y="-123"/>
			<point x="299" y="-125" type="curve"/>
			<point x="296" y="-96"/>
			<point x="295" y="-85"/>
			<point x="291" y="-52" type="curve"/>
			<point x="263" y="-53"/>
			<point x="228" y="-54"/>
			<point x="193" y="-54" type="curve" smooth="yes"/>
			<point x="164" y="-54"/>
			<point x="135" y="-53"/>
			<point x="111" y="-52" type="curve"/>
			<point x="142" y="-83" type="line"/>
			<point x="137" y="-22"/>
			<point x="135" y="102"/>
			<point x="135" y="229" type="curve" smooth="yes"/>
			<point x="135" y="371"/>
			<point x="138" y="517"/>
			<point x="142" y="584" type="curve"/>
			<point x="112" y="568" type="line"/>
			<point x="295" y="568" type="line"/>
			<point x="297" y="598"/>
			<point x="298" y="607"/>
			<point x="299" y="633" type="curve"/>
			<point x="278" y="632"/>
			<point x="251" y="632"/>
			<point x="222" y="632" type="curve" smooth="yes"/>
			<point x="164" y="632"/>
			<point x="98" y="633"/>
			<point x="62" y="633" type="curve"/>
			<point x="64" y="576"/>
			<point x="65" y="434"/>
			<point x="65" y="283" type="curve" smooth="yes"/>
			<point x="65" y="132"/>
			<point x="64" y="-29"/>
			<point x="62" y="-124" type="curve" smooth="yes"/>
		</contour>
	</outline>
</glyph>
<glyph name="backslash" format="2">
	<advance width="462"/>
	<unicode hex="005C"/>
	<outline>
		<contour>
			<point x="332" y="-62" type="curve"/>
			<point x="406" y="-62" type="line"/>
			<point x="286" y="175"/>
			<point x="182" y="412"/>
			<point x="85" y="648" type="curve"/>
			<point x="7" y="651" type="line"/>
			<point x="71" y="521"/>
			<point x="237" y="167"/>
		</contour>
	</outline>
</glyph>
<glyph name="bracketright" format="2">
	<advance width="462"/>
	<unicode hex="005D"/>
	<outline>
		<contour>
			<point x="62" y="-125" type="curve"/>
			<point x="93" y="-123"/>
			<point x="125" y="-122"/>
			<point x="156" y="-122" type="curve" smooth="yes"/>
			<point x="206" y="-122"/>
			<point x="255" y="-124"/>
			<point x="298" y="-125" type="curve"/>
			<point x="298" y="-124" type="line"/>
			<point x="299" y="-124" type="line"/>
			<point x="296" y="-23"/>
			<point x="295" y="150"/>
			<point x="295" y="308" type="curve" smooth="yes"/>
			<point x="295" y="450"/>
			<point x="296" y="579"/>
			<point x="298" y="633" type="curve"/>
			<point x="262" y="633"/>
			<point x="196" y="632"/>
			<point x="138" y="632" type="curve" smooth="yes"/>
			<point x="109" y="632"/>
			<point x="82" y="632"/>
			<point x="62" y="633" type="curve"/>
			<point x="62" y="607"/>
			<point x="63" y="598"/>
			<point x="65" y="568" type="curve"/>
			<point x="248" y="568" type="line"/>
			<point x="218" y="584" type="line"/>
			<point x="222" y="515"/>
			<point x="225" y="362"/>
			<point x="225" y="216" type="curve" smooth="yes"/>
			<point x="225" y="94"/>
			<point x="223" y="-24"/>
			<point x="219" y="-83" type="curve"/>
			<point x="249" y="-52" type="line"/>
			<point x="225" y="-53"/>
			<point x="196" y="-54"/>
			<point x="168" y="-54" type="curve" smooth="yes"/>
			<point x="132" y="-54"/>
			<point x="97" y="-53"/>
			<point x="69" y="-52" type="curve"/>
			<point x="65" y="-85"/>
			<point x="64" y="-96"/>
		</contour>
	</outline>
</glyph>
<glyph name="asciicircum" format="2">
	<advance width="289"/>
	<unicode hex="005E"/>
	<outline>
		<contour>
			<point x="75" y="556" type="curve"/>
			<point x="112" y="611"/>
			<point x="149" y="660"/>
			<point x="163" y="682" type="curve"/>
			<point x="147" y="681" type="line"/>
			<point x="162" y="662"/>
			<point x="210" y="598"/>
			<point x="242" y="559" type="curve"/>
			<point x="259" y="570"/>
			<point x="281" y="589"/>
			<point x="294" y="609" type="curve"/>
			<point x="270" y="628"/>
			<point x="186" y="709"/>
			<point x="156" y="743" type="curve"/>
			<point x="128" y="705"/>
			<point x="65" y="634"/>
			<point x="27" y="588" type="curve"/>
			<point x="41" y="578"/>
			<point x="56" y="567"/>
		</contour>
	</outline>
</glyph>
<glyph name="underscore" format="2">
	<advance width="515"/>
	<unicode hex="005F"/>
	<outline>
		<contour>
			<point x="30" y="1" type="line"/>
			<point x="477" y="1" type="line"/>
			<point x="478" y="27"/>
			<point x="483" y="53"/>
			<point x="484" y="74" type="curve"/>
			<point x="411" y="71"/>
			<point x="327" y="69"/>
			<point x="242" y="69" type="curve" smooth="yes"/>
			<point x="174" y="69"/>
			<point x="105" y="70"/>
			<point x="41" y="74" type="curve"/>
		</contour>
	</outline>
</glyph>
<glyph name="grave" format="2">
	<advance width="0"/>
	<unicode hex="0060"/>
	<outline>
		<contour>
			<point x="69" y="686" type="curve"/>
			<point x="93" y="739" type="line"/>
			<point x="55" y="767"/>
			<point x="-32" y="832"/>
			<point x="-74" y="874" type="curve"/>
			<point x="-93" y="861"/>
			<point x="-121" y="830"/>
			<point x="-126" y="803" type="curve"/>
			<point x="-85" y="771"/>
			<point x="18" y="708"/>
		</contour>
	</outline>
</glyph>
<glyph name="a" format="2">
	<advance width="479"/>
	<unicode hex="0061"/>
	<outline>
		<contour>
			<point x="31" y="96" type="curve"/>
			<point x="31" y="25"/>
			<point x="91" y="-10"/>
			<point x="156" y="-10" type="curve"/>
			<point x="291" y="-10"/>
			<point x="333" y="92"/>
			<point x="333" y="92" type="curve"/>
			<point x="312" y="124" type="line"/>
			<point x="307" y="93"/>
			<point x="263" y="49"/>
			<point x="200" y="49" type="curve"/>
			<point x="156" y="49"/>
			<point x="129" y="75"/>
			<point x="129" y="119" type="curve"/>
			<point x="129" y="178"/>
			<point x="176" y="224"/>
			<point x="253" y="224" type="curve"/>
			<point x="298" y="224"/>
			<point x="332" y="210"/>
			<point x="332" y="210" type="curve"/>
			<point x="332" y="274" type="line"/>
			<point x="332" y="274"/>
			<point x="275" y="271"/>
			<point x="204" y="255" type="curve"/>
			<point x="85" y="228"/>
			<point x="31" y="174"/>
		</contour>
		<contour>
			<point x="62" y="415" type="curve"/>
			<point x="62" y="415"/>
			<point x="61" y="400"/>
			<point x="61" y="378" type="curve"/>
			<point x="61" y="356"/>
			<point x="62" y="328"/>
			<point x="64" y="302" type="curve"/>
			<point x="132" y="309" type="line"/>
			<point x="136" y="359"/>
			<point x="149" y="394"/>
			<point x="166" y="429" type="curve"/>
			<point x="126" y="365" type="line"/>
			<point x="150" y="391"/>
			<point x="172" y="427"/>
			<point x="227" y="427" type="curve"/>
			<point x="259" y="427"/>
			<point x="293" y="410"/>
			<point x="307" y="352" type="curve"/>
			<point x="312" y="331"/>
			<point x="314" y="288"/>
			<point x="314" y="240" type="curve"/>
			<point x="314" y="186"/>
			<point x="311" y="125"/>
			<point x="306" y="88" type="curve"/>
			<point x="314" y="88" type="line"/>
			<point x="317" y="29"/>
			<point x="332" y="-8"/>
			<point x="390" y="-8" type="curve"/>
			<point x="424" y="-8"/>
			<point x="455" y="6"/>
			<point x="467" y="12" type="curve"/>
			<point x="458" y="42" type="line"/>
			<point x="448" y="42" type="line"/>
			<point x="393" y="42"/>
			<point x="393" y="100"/>
			<point x="393" y="162" type="curve"/>
			<point x="393" y="226"/>
			<point x="399" y="293"/>
			<point x="398" y="341" type="curve"/>
			<point x="396" y="440"/>
			<point x="358" y="470"/>
			<point x="259" y="470" type="curve"/>
			<point x="175" y="470"/>
			<point x="99" y="436"/>
		</contour>
	</outline>
</glyph>
<glyph name="b" format="2">
	<advance width="530"/>
	<unicode hex="0062"/>
	<outline>
		<contour>
			<point x="242" y="-10" type="curve" smooth="yes"/>
			<point x="424" y="-10"/>
			<point x="491" y="147"/>
			<point x="491" y="275" type="curve" smooth="yes"/>
			<point x="491" y="406"/>
			<point x="415" y="472"/>
			<point x="321" y="472" type="curve" smooth="yes"/>
			<point x="256" y="472"/>
			<point x="178" y="431"/>
			<point x="141" y="344" type="curve"/>
			<point x="164" y="311" type="line"/>
			<point x="192" y="377"/>
			<point x="244" y="411"/>
			<point x="288" y="411" type="curve" smooth="yes"/>
			<point x="338" y="411"/>
			<point x="395" y="372"/>
			<point x="395" y="269" type="curve" smooth="yes"/>
			<point x="395" y="129"/>
			<point x="343" y="39"/>
			<point x="259" y="39" type="curve" smooth="yes"/>
			<point x="175" y="39"/>
			<point x="134" y="99"/>
			<point x="130" y="109" type="curve"/>
			<point x="79" y="17" type="line"/>
			<point x="112" y="4"/>
			<point x="166" y="-10"/>
		</contour>
		<contour>
			<point x="79" y="17" type="curve"/>
			<point x="176" y="51" type="line"/>
			<point x="174" y="62"/>
			<point x="171" y="92"/>
			<point x="169" y="125" type="curve" smooth="yes"/>
			<point x="168" y="145"/>
			<point x="165" y="228"/>
			<point x="165" y="325" type="curve" smooth="yes"/>
			<point x="165" y="444"/>
			<point x="169" y="584"/>
			<point x="182" y="655" type="curve"/>
			<point x="167" y="652"/>
			<point x="47" y="638"/>
			<point x="-13" y="638" type="curve"/>
			<point x="-9" y="590" type="line"/>
			<point x="46" y="590"/>
			<point x="76" y="581"/>
			<point x="81" y="544" type="curve" smooth="yes"/>
			<point x="87" y="500"/>
			<point x="89" y="414"/>
			<point x="89" y="323" type="curve" smooth="yes"/>
			<point x="89" y="198"/>
			<point x="85" y="64"/>
		</contour>
	</outline>
</glyph>
<glyph name="c" format="2">
	<advance width="447"/>
	<unicode hex="0063"/>
	<outline>
		<contour>
			<point x="246" y="-16" type="curve" smooth="yes"/>
			<point x="319" y="-16"/>
			<point x="377" y="11"/>
			<point x="420" y="59" type="curve"/>
			<point x="403" y="86" type="line"/>
			<point x="374" y="62"/>
			<point x="331" y="41"/>
			<point x="280" y="41" type="curve" smooth="yes"/>
			<point x="185" y="41"/>
			<point x="128" y="108"/>
			<point x="128" y="216" type="curve" smooth="yes"/>
			<point x="128" y="333"/>
			<point x="175" y="418"/>
			<point x="253" y="418" type="curve" smooth="yes"/>
			<point x="293" y="418"/>
			<point x="327" y="397"/>
			<point x="344" y="383" type="curve"/>
			<point x="333" y="402"/>
			<point x="316" y="417"/>
			<point x="290" y="424" type="curve"/>
			<point x="327" y="397"/>
			<point x="342" y="367"/>
			<point x="358" y="334" type="curve"/>
			<point x="404" y="330" type="line"/>
			<point x="408" y="352"/>
			<point x="409" y="383"/>
			<point x="409" y="410" type="curve" smooth="yes"/>
			<point x="409" y="424"/>
			<point x="409" y="437"/>
			<point x="408" y="447" type="curve"/>
			<point x="405" y="449"/>
			<point x="363" y="470"/>
			<point x="294" y="470" type="curve" smooth="yes"/>
			<point x="115" y="470"/>
			<point x="34" y="320"/>
			<point x="34" y="198" type="curve" smooth="yes"/>
			<point x="34" y="40"/>
			<point x="132" y="-16"/>
		</contour>
	</outline>
</glyph>
<glyph name="d" format="2">
	<advance width="574"/>
	<unicode hex="0064"/>
	<outline>
		<contour>
			<point x="460" y="-16" type="curve" smooth="yes"/>
			<point x="493" y="-16"/>
			<point x="524" y="-6"/>
			<point x="551" y="10" type="curve"/>
			<point x="541" y="44" type="line"/>
			<point x="534" y="42"/>
			<point x="527" y="42"/>
			<point x="521" y="42" type="curve" smooth="yes"/>
			<point x="476" y="42"/>
			<point x="459" y="69"/>
			<point x="455" y="125" type="curve" smooth="yes"/>
			<point x="454" y="144"/>
			<point x="451" y="224"/>
			<point x="451" y="318" type="curve" smooth="yes"/>
			<point x="451" y="438"/>
			<point x="455" y="584"/>
			<point x="469" y="655" type="curve"/>
			<point x="438" y="651"/>
			<point x="343" y="639"/>
			<point x="282" y="639" type="curve" smooth="yes"/>
			<point x="273" y="639" type="line"/>
			<point x="277" y="590" type="line"/>
			<point x="283" y="590" type="line" smooth="yes"/>
			<point x="335" y="590"/>
			<point x="366" y="579"/>
			<point x="367" y="553" type="curve" smooth="yes"/>
			<point x="370" y="492"/>
			<point x="373" y="390"/>
			<point x="373" y="296" type="curve" smooth="yes"/>
			<point x="373" y="219"/>
			<point x="370" y="146"/>
			<point x="366" y="109" type="curve"/>
			<point x="373" y="76" type="line"/>
			<point x="373" y="34"/>
			<point x="391" y="-16"/>
		</contour>
		<contour>
			<point x="226" y="-10" type="curve" smooth="yes"/>
			<point x="320" y="-10"/>
			<point x="369" y="51"/>
			<point x="393" y="108" type="curve"/>
			<point x="370" y="139" type="line"/>
			<point x="354" y="100"/>
			<point x="313" y="52"/>
			<point x="260" y="52" type="curve" smooth="yes"/>
			<point x="176" y="52"/>
			<point x="139" y="120"/>
			<point x="139" y="207" type="curve" smooth="yes"/>
			<point x="139" y="328"/>
			<point x="197" y="420"/>
			<point x="288" y="420" type="curve" smooth="yes"/>
			<point x="342" y="420"/>
			<point x="371" y="400"/>
			<point x="383" y="385" type="curve"/>
			<point x="414" y="453" type="line"/>
			<point x="395" y="460"/>
			<point x="362" y="467"/>
			<point x="325" y="467" type="curve" smooth="yes"/>
			<point x="132" y="467"/>
			<point x="43" y="314"/>
			<point x="43" y="191" type="curve" smooth="yes"/>
			<point x="43" y="73"/>
			<point x="116" y="-10"/>
		</contour>
	</outline>
</glyph>
<glyph name="e" format="2">
	<advance width="470"/>
	<unicode hex="0065"/>
	<outline>
		<contour>
			<point x="252" y="-15" type="curve" smooth="yes"/>
			<point x="351" y="-15"/>
			<point x="404" y="42"/>
			<point x="417" y="59" type="curve"/>
			<point x="401" y="85" type="line"/>
			<point x="396" y="79"/>
			<point x="354" y="41"/>
			<point x="279" y="41" type="curve" smooth="yes"/>
			<point x="160" y="41"/>
			<point x="128" y="130"/>
			<point x="128" y="230" type="curve" smooth="yes"/>
			<point x="128" y="347"/>
			<point x="178" y="422"/>
			<point x="245" y="422" type="curve" smooth="yes"/>
			<point x="306" y="422"/>
			<point x="338" y="353"/>
			<point x="338" y="278" type="curve"/>
			<point x="289" y="278" type="line"/>
			<point x="105" y="260" type="line"/>
			<point x="118" y="223" type="line"/>
			<point x="433" y="225" type="line"/>
			<point x="435" y="239"/>
			<point x="435" y="252"/>
			<point x="435" y="265" type="curve" smooth="yes"/>
			<point x="435" y="396"/>
			<point x="358" y="463"/>
			<point x="260" y="463" type="curve" smooth="yes"/>
			<point x="144" y="463"/>
			<point x="35" y="374"/>
			<point x="35" y="197" type="curve" smooth="yes"/>
			<point x="35" y="59"/>
			<point x="131" y="-15"/>
		</contour>
	</outline>
</glyph>
<glyph name="f" format="2">
	<advance width="376"/>
	<unicode hex="0066"/>
	<outline>
		<contour>
			<point x="25" y="0" type="line"/>
			<point x="276" y="0" type="line"/>
			<point x="268" y="41" type="line"/>
			<point x="217" y="41"/>
			<point x="189" y="69"/>
			<point x="184" y="140" type="curve" smooth="yes"/>
			<point x="181" y="191"/>
			<point x="180" y="251"/>
			<point x="180" y="312" type="curve" smooth="yes"/>
			<point x="180" y="382"/>
			<point x="180" y="455"/>
			<point x="182" y="507" type="curve" smooth="yes"/>
			<point x="186" y="625"/>
			<point x="208" y="653"/>
			<point x="247" y="653" type="curve" smooth="yes"/>
			<point x="300" y="653"/>
			<point x="342" y="599"/>
			<point x="372" y="553" type="curve"/>
			<point x="388" y="584"/>
			<point x="405" y="640"/>
			<point x="405" y="682" type="curve"/>
			<point x="398" y="685"/>
			<point x="353" y="699"/>
			<point x="303" y="699" type="curve" smooth="yes"/>
			<point x="214" y="699"/>
			<point x="103" y="653"/>
			<point x="103" y="490" type="curve" smooth="yes"/>
			<point x="103" y="429" type="line"/>
			<point x="101" y="426" type="line"/>
			<point x="105" y="309"/>
			<point x="105" y="230"/>
			<point x="105" y="150" type="curve" smooth="yes"/>
			<point x="105" y="80"/>
			<point x="102" y="47"/>
			<point x="19" y="47" type="curve"/>
		</contour>
		<contour>
			<point x="125" y="339" type="curve"/>
			<point x="158" y="388" type="line"/>
			<point x="306" y="402" type="line"/>
			<point x="296" y="453" type="line"/>
			<point x="246" y="451"/>
			<point x="205" y="450"/>
			<point x="163" y="450" type="curve" smooth="yes"/>
			<point x="121" y="450"/>
			<point x="78" y="451"/>
			<point x="23" y="453" type="curve"/>
			<point x="31" y="400" type="line"/>
			<point x="78" y="400"/>
			<point x="125" y="390"/>
		</contour>
	</outline>
</glyph>
<glyph name="g" format="2">
	<advance width="592"/>
	<unicode hex="0067"/>
	<outline>
		<contour>
			<point x="233" y="-206" type="curve"/>
			<point x="404" y="-206"/>
			<point x="523" y="-121"/>
			<point x="524" y="-18" type="curve"/>
			<point x="525" y="91"/>
			<point x="389" y="100"/>
			<point x="206" y="100" type="curve"/>
			<point x="159" y="100"/>
			<point x="169" y="143"/>
			<point x="210" y="176" type="curve"/>
			<point x="199" y="199" type="line"/>
			<point x="147" y="169"/>
			<point x="98" y="134"/>
			<point x="65" y="95" type="curve"/>
			<point x="72" y="53"/>
			<point x="94" y="46"/>
			<point x="149" y="44" type="curve"/>
			<point x="271" y="38"/>
			<point x="427" y="44"/>
			<point x="427" y="-44" type="curve"/>
			<point x="428" y="-92"/>
			<point x="371" y="-159"/>
			<point x="262" y="-159" type="curve"/>
			<point x="175" y="-159"/>
			<point x="129" y="-132"/>
			<point x="129" y="-82" type="curve"/>
			<point x="129" y="-16"/>
			<point x="214" y="34"/>
			<point x="282" y="49" type="curve"/>
			<point x="205" y="54" type="line"/>
			<point x="124" y="23"/>
			<point x="38" y="-22"/>
			<point x="39" y="-103" type="curve"/>
			<point x="39" y="-166"/>
			<point x="112" y="-206"/>
		</contour>
		<contour>
			<point x="237" y="176" type="curve"/>
			<point x="342" y="176"/>
			<point x="445" y="236"/>
			<point x="445" y="348" type="curve"/>
			<point x="445" y="439"/>
			<point x="343" y="470"/>
			<point x="270" y="470" type="curve"/>
			<point x="161" y="470"/>
			<point x="56" y="404"/>
			<point x="57" y="296" type="curve"/>
			<point x="58" y="222"/>
			<point x="126" y="176"/>
		</contour>
		<contour>
			<point x="248" y="218" type="curve"/>
			<point x="199" y="217"/>
			<point x="150" y="244"/>
			<point x="150" y="315" type="curve"/>
			<point x="150" y="383"/>
			<point x="206" y="429"/>
			<point x="258" y="429" type="curve"/>
			<point x="320" y="429"/>
			<point x="350" y="379"/>
			<point x="350" y="330" type="curve"/>
			<point x="350" y="270"/>
			<point x="314" y="219"/>
		</contour>
		<contour>
			<point x="569" y="363" type="curve"/>
			<point x="572" y="387"/>
			<point x="571" y="439"/>
			<point x="567" y="467" type="curve"/>
			<point x="488" y="421"/>
			<point x="427" y="399"/>
			<point x="403" y="397" type="curve"/>
			<point x="436" y="365" type="line"/>
			<point x="475" y="365"/>
			<point x="526" y="365"/>
		</contour>
	</outline>
</glyph>
<glyph name="h" format="2">
	<advance width="598"/>
	<unicode hex="0068"/>
	<outline>
		<contour>
			<point x="330" y="0" type="line"/>
			<point x="571" y="0" type="line"/>
			<point x="564" y="39" type="line"/>
			<point x="540" y="39"/>
			<point x="493" y="43"/>
			<point x="493" y="101" type="curve"/>
			<point x="493" y="132"/>
			<point x="495" y="166"/>
			<point x="497" y="199" type="curve" smooth="yes"/>
			<point x="499" y="230"/>
			<point x="500" y="260"/>
			<point x="500" y="290" type="curve" smooth="yes"/>
			<point x="500" y="322"/>
			<point x="499" y="353"/>
			<point x="496" y="371" type="curve" smooth="yes"/>
			<point x="486" y="443"/>
			<point x="441" y="471"/>
			<point x="384" y="471" type="curve" smooth="yes"/>
			<point x="300" y="471"/>
			<point x="216" y="402"/>
			<point x="178" y="350" type="curve"/>
			<point x="197" y="321" type="line"/>
			<point x="207" y="339"/>
			<point x="252" y="395"/>
			<point x="327" y="395" type="curve" smooth="yes"/>
			<point x="373" y="395"/>
			<point x="405" y="370"/>
			<point x="412" y="321" type="curve" smooth="yes"/>
			<point x="415" y="298"/>
			<point x="417" y="267"/>
			<point x="417" y="233" type="curve" smooth="yes"/>
			<point x="417" y="193"/>
			<point x="416" y="147"/>
			<point x="411" y="105" type="curve" smooth="yes"/>
			<point x="405" y="57"/>
			<point x="382" y="46"/>
			<point x="351" y="46" type="curve" smooth="yes"/>
			<point x="342" y="46"/>
			<point x="332" y="47"/>
			<point x="322" y="48" type="curve"/>
		</contour>
		<contour>
			<point x="37" y="0" type="line"/>
			<point x="281" y="0" type="line"/>
			<point x="273" y="39" type="line"/>
			<point x="269" y="39" type="line" smooth="yes"/>
			<point x="225" y="39"/>
			<point x="202" y="59"/>
			<point x="202" y="132" type="curve" smooth="yes"/>
			<point x="202" y="250"/>
			<point x="206" y="528"/>
			<point x="221" y="655" type="curve"/>
			<point x="210" y="653"/>
			<point x="92" y="638"/>
			<point x="30" y="638" type="curve"/>
			<point x="35" y="590" type="line"/>
			<point x="95" y="590"/>
			<point x="120" y="588"/>
			<point x="122" y="541" type="curve" smooth="yes"/>
			<point x="124" y="498"/>
			<point x="125" y="435"/>
			<point x="125" y="372" type="curve" smooth="yes"/>
			<point x="125" y="270"/>
			<point x="122" y="169"/>
			<point x="117" y="115" type="curve" smooth="yes"/>
			<point x="113" y="68"/>
			<point x="89" y="47"/>
			<point x="39" y="47" type="curve" smooth="yes"/>
			<point x="29" y="47" type="line"/>
		</contour>
	</outline>
</glyph>
<glyph name="k" format="2">
	<advance width="563"/>
	<unicode hex="006B"/>
	<outline>
		<contour>
			<point x="37" y="0" type="line"/>
			<point x="281" y="0" type="line"/>
			<point x="273" y="39" type="line"/>
			<point x="269" y="39" type="line" smooth="yes"/>
			<point x="225" y="39"/>
			<point x="202" y="59"/>
			<point x="202" y="132" type="curve"/>
			<point x="202" y="250"/>
			<point x="206" y="528"/>
			<point x="221" y="655" type="curve"/>
			<point x="221" y="655"/>
			<point x="95" y="637"/>
			<point x="30" y="638" type="curve"/>
			<point x="35" y="590" type="line"/>
			<point x="95" y="590"/>
			<point x="119" y="588"/>
			<point x="122" y="554" type="curve"/>
			<point x="124" y="498"/>
			<point x="125" y="435"/>
			<point x="125" y="372" type="curve"/>
			<point x="125" y="270"/>
			<point x="122" y="169"/>
			<point x="118" y="105" type="curve"/>
			<point x="113" y="68"/>
			<point x="89" y="47"/>
			<point x="39" y="47" type="curve"/>
			<point x="29" y="47" type="line"/>
		</contour>
		<contour>
			<point x="436" y="-6" type="curve"/>
			<point x="470" y="-8"/>
			<point x="507" y="-5"/>
			<point x="556" y="9" type="curve"/>
			<point x="547" y="49" type="line"/>
			<point x="416" y="51"/>
			<point x="316" y="265"/>
			<point x="321" y="275" type="curve"/>
			<point x="295" y="267"/>
			<point x="259" y="257"/>
			<point x="236" y="263" type="curve"/>
			<point x="264" y="206"/>
			<point x="366" y="6"/>
		</contour>
		<contour>
			<point x="203" y="290" type="curve"/>
			<point x="187" y="236" type="line"/>
			<point x="227" y="236"/>
			<point x="295" y="236"/>
			<point x="319" y="242" type="curve"/>
			<point x="341" y="263"/>
			<point x="399" y="330"/>
			<point x="450" y="383" type="curve"/>
			<point x="473" y="407"/>
			<point x="488" y="419"/>
			<point x="512" y="420" type="curve"/>
			<point x="502" y="457" type="line"/>
			<point x="428" y="454"/>
			<point x="362" y="453"/>
			<point x="303" y="457" type="curve"/>
			<point x="318" y="417" type="line"/>
			<point x="378" y="419"/>
			<point x="373" y="399"/>
			<point x="363" y="383" type="curve"/>
			<point x="330" y="334"/>
			<point x="277" y="290"/>
			<point x="263" y="282" type="curve"/>
			<point x="242" y="282"/>
			<point x="224" y="286"/>
		</contour>
	</outline>
</glyph>
<glyph name="l" format="2">
	<advance width="307"/>
	<unicode hex="006C"/>
	<outline>
		<contour>
			<point x="37" y="0" type="line"/>
			<point x="281" y="0" type="line"/>
			<point x="273" y="39" type="line"/>
			<point x="269" y="39" type="line" smooth="yes"/>
			<point x="225" y="39"/>
			<point x="206" y="56"/>
			<point x="202" y="132" type="curve" smooth="yes"/>
			<point x="201" y="150"/>
			<point x="201" y="172"/>
			<point x="201" y="196" type="curve" smooth="yes"/>
			<point x="201" y="331"/>
			<point x="208" y="547"/>
			<point x="221" y="655" type="curve"/>
			<point x="198" y="651"/>
			<point x="85" y="635"/>
			<point x="30" y="635" type="curve"/>
			<point x="35" y="590" type="line"/>
			<point x="95" y="590"/>
			<point x="120" y="588"/>
			<point x="122" y="554" type="curve" smooth="yes"/>
			<point x="125" y="498"/>
			<point x="125" y="435"/>
			<point x="125" y="372" type="curve" smooth="yes"/>
			<point x="125" y="270"/>
			<point x="125" y="169"/>
			<point x="118" y="105" type="curve" smooth="yes"/>
			<point x="114" y="68"/>
			<point x="89" y="47"/>
			<point x="39" y="47" type="curve" smooth="yes"/>
			<point x="29" y="47" type="line"/>
		</contour>
	</outline>
</glyph>
<glyph name="m" format="2">
	<advance width="872"/>
	<unicode hex="006D"/>
	<outline>
		<contour>
			<point x="45" y="0" type="line"/>
			<point x="287" y="0" type="line"/>
			<point x="280" y="37" type="line"/>
			<point x="250" y="37"/>
			<point x="214" y="42"/>
			<point x="214" y="105" type="curve" smooth="yes"/>
			<point x="214" y="194"/>
			<point x="217" y="305"/>
			<point x="221" y="391" type="curve"/>
			<point x="204" y="381" type="line"/>
			<point x="209" y="401"/>
			<point x="218" y="458"/>
			<point x="218" y="468" type="curve"/>
			<point x="196" y="466"/>
			<point x="91" y="457"/>
			<point x="30" y="457" type="curve"/>
			<point x="35" y="411" type="line"/>
			<point x="131" y="409"/>
			<point x="132" y="374"/>
			<point x="132" y="291" type="curve" smooth="yes"/>
			<point x="132" y="240"/>
			<point x="132" y="162"/>
			<point x="126" y="94" type="curve" smooth="yes"/>
			<point x="123" y="59"/>
			<point x="93" y="47"/>
			<point x="59" y="47" type="curve" smooth="yes"/>
			<point x="52" y="47"/>
			<point x="46" y="47"/>
			<point x="39" y="48" type="curve"/>
		</contour>
		<contour>
			<point x="348" y="0" type="line"/>
			<point x="571" y="0" type="line"/>
			<point x="564" y="39" type="line"/>
			<point x="540" y="39"/>
			<point x="501" y="44"/>
			<point x="501" y="91" type="curve" smooth="yes"/>
			<point x="501" y="111"/>
			<point x="503" y="163"/>
			<point x="504" y="187" type="curve" smooth="yes"/>
			<point x="505" y="217"/>
			<point x="506" y="264"/>
			<point x="506" y="297" type="curve" smooth="yes"/>
			<point x="506" y="322"/>
			<point x="505" y="355"/>
			<point x="503" y="370" type="curve" smooth="yes"/>
			<point x="493" y="444"/>
			<point x="451" y="471"/>
			<point x="393" y="471" type="curve" smooth="yes"/>
			<point x="310" y="471"/>
			<point x="235" y="420"/>
			<point x="197" y="373" type="curve"/>
			<point x="216" y="346" type="line"/>
			<point x="219" y="350"/>
			<point x="257" y="399"/>
			<point x="333" y="399" type="curve" smooth="yes"/>
			<point x="379" y="399"/>
			<point x="409" y="372"/>
			<point x="415" y="323" type="curve" smooth="yes"/>
			<point x="418" y="300"/>
			<point x="420" y="269"/>
			<point x="420" y="235" type="curve" smooth="yes"/>
			<point x="420" y="195"/>
			<point x="419" y="147"/>
			<point x="414" y="105" type="curve" smooth="yes"/>
			<point x="408" y="54"/>
			<point x="384" y="45"/>
			<point x="350" y="45" type="curve"/>
			<point x="340" y="45" type="line"/>
		</contour>
		<contour>
			<point x="629" y="0" type="line"/>
			<point x="852" y="0" type="line"/>
			<point x="845" y="39" type="line"/>
			<point x="821" y="39"/>
			<point x="782" y="44"/>
			<point x="782" y="91" type="curve" smooth="yes"/>
			<point x="782" y="111"/>
			<point x="784" y="163"/>
			<point x="785" y="187" type="curve" smooth="yes"/>
			<point x="786" y="217"/>
			<point x="787" y="264"/>
			<point x="787" y="297" type="curve" smooth="yes"/>
			<point x="787" y="322"/>
			<point x="786" y="353"/>
			<point x="784" y="370" type="curve" smooth="yes"/>
			<point x="775" y="444"/>
			<point x="732" y="471"/>
			<point x="674" y="471" type="curve" smooth="yes"/>
			<point x="591" y="471"/>
			<point x="516" y="420"/>
			<point x="478" y="373" type="curve"/>
			<point x="497" y="346" type="line"/>
			<point x="500" y="350"/>
			<point x="538" y="399"/>
			<point x="614" y="399" type="curve" smooth="yes"/>
			<point x="660" y="399"/>
			<point x="690" y="372"/>
			<point x="696" y="323" type="curve" smooth="yes"/>
			<point x="699" y="300"/>
			<point x="701" y="269"/>
			<point x="701" y="235" type="curve" smooth="yes"/>
			<point x="701" y="195"/>
			<point x="700" y="147"/>
			<point x="695" y="105" type="curve" smooth="yes"/>
			<point x="689" y="54"/>
			<point x="665" y="41"/>
			<point x="631" y="41" type="curve"/>
			<point x="621" y="41" type="line"/>
		</contour>
	</outline>
</glyph>
<glyph name="n" format="2">
	<advance width="622"/>
	<unicode hex="006E"/>
	<outline>
		<contour>
			<point x="355" y="0" type="line"/>
			<point x="594" y="0" type="line"/>
			<point x="587" y="39" type="line"/>
			<point x="563" y="39"/>
			<point x="518" y="43"/>
			<point x="518" y="101" type="curve" smooth="yes"/>
			<point x="518" y="126"/>
			<point x="519" y="157"/>
			<point x="522" y="207" type="curve" smooth="yes"/>
			<point x="523" y="224"/>
			<point x="524" y="259"/>
			<point x="524" y="287" type="curve" smooth="yes"/>
			<point x="524" y="322"/>
			<point x="523" y="353"/>
			<point x="520" y="370" type="curve" smooth="yes"/>
			<point x="507" y="443"/>
			<point x="464" y="470"/>
			<point x="406" y="470" type="curve" smooth="yes"/>
			<point x="323" y="470"/>
			<point x="239" y="412"/>
			<point x="201" y="360" type="curve"/>
			<point x="220" y="331" type="line"/>
			<point x="226" y="341"/>
			<point x="273" y="397"/>
			<point x="350" y="397" type="curve" smooth="yes"/>
			<point x="396" y="397"/>
			<point x="431" y="372"/>
			<point x="437" y="323" type="curve" smooth="yes"/>
			<point x="440" y="300"/>
			<point x="442" y="269"/>
			<point x="442" y="235" type="curve" smooth="yes"/>
			<point x="442" y="195"/>
			<point x="441" y="147"/>
			<point x="436" y="104" type="curve" smooth="yes"/>
			<point x="431" y="57"/>
			<point x="408" y="42"/>
			<point x="367" y="42" type="curve" smooth="yes"/>
			<point x="347" y="42" type="line"/>
		</contour>
		<contour>
			<point x="55" y="0" type="line"/>
			<point x="297" y="0" type="line"/>
			<point x="290" y="37" type="line"/>
			<point x="260" y="37"/>
			<point x="224" y="42"/>
			<point x="224" y="105" type="curve" smooth="yes"/>
			<point x="224" y="194"/>
			<point x="227" y="305"/>
			<point x="231" y="391" type="curve"/>
			<point x="214" y="375" type="line"/>
			<point x="219" y="395"/>
			<point x="228" y="458"/>
			<point x="228" y="468" type="curve"/>
			<point x="206" y="466"/>
			<point x="101" y="457"/>
			<point x="40" y="457" type="curve"/>
			<point x="45" y="411" type="line"/>
			<point x="141" y="409"/>
			<point x="142" y="374"/>
			<point x="142" y="291" type="curve" smooth="yes"/>
			<point x="142" y="240"/>
			<point x="142" y="162"/>
			<point x="136" y="94" type="curve" smooth="yes"/>
			<point x="133" y="59"/>
			<point x="103" y="47"/>
			<point x="69" y="47" type="curve" smooth="yes"/>
			<point x="62" y="47"/>
			<point x="56" y="47"/>
			<point x="49" y="48" type="curve"/>
		</contour>
	</outline>
</glyph>
<glyph name="o" format="2">
	<advance width="509"/>
	<unicode hex="006F"/>
	<outline>
		<contour>
			<point x="236" y="-14" type="curve" smooth="yes"/>
			<point x="409" y="-14"/>
			<point x="474" y="124"/>
			<point x="474" y="263" type="curve" smooth="yes"/>
			<point x="474" y="413"/>
			<point x="394" y="473"/>
			<point x="279" y="473" type="curve" smooth="yes"/>
			<point x="139" y="473"/>
			<point x="34" y="361"/>
			<point x="34" y="194" type="curve" smooth="yes"/>
			<point x="34" y="69"/>
			<point x="101" y="-14"/>
		</contour>
		<contour>
			<point x="252" y="33" type="curve" smooth="yes"/>
			<point x="175" y="33"/>
			<point x="132" y="119"/>
			<point x="132" y="231" type="curve" smooth="yes"/>
			<point x="132" y="342"/>
			<point x="177" y="429"/>
			<point x="256" y="429" type="curve" smooth="yes"/>
			<point x="332" y="429"/>
			<point x="383" y="351"/>
			<point x="383" y="241" type="curve" smooth="yes"/>
			<point x="383" y="130"/>
			<point x="339" y="33"/>
		</contour>
	</outline>
</glyph>
<glyph name="p" format="2">
	<advance width="581"/>
	<unicode hex="0070"/>
	<outline>
		<contour>
			<point x="41" y="-195" type="line"/>
			<point x="302" y="-195" type="line"/>
			<point x="295" y="-158" type="line"/>
			<point x="291" y="-158"/>
			<point x="287" y="-158"/>
			<point x="283" y="-157" type="curve"/>
			<point x="209" y="-151"/>
			<point x="202" y="-103"/>
			<point x="202" y="-47" type="curve" smooth="yes"/>
			<point x="202" y="25"/>
			<point x="202" y="91"/>
			<point x="202" y="136" type="curve" smooth="yes"/>
			<point x="202" y="215" type="line" smooth="yes"/>
			<point x="202" y="269"/>
			<point x="205" y="325"/>
			<point x="208" y="376" type="curve"/>
			<point x="190" y="370" type="line"/>
			<point x="195" y="390"/>
			<point x="208" y="465"/>
			<point x="208" y="468" type="curve"/>
			<point x="197" y="466"/>
			<point x="137" y="457"/>
			<point x="70" y="457" type="curve" smooth="yes"/>
			<point x="33" y="457"/>
			<point x="29" y="457"/>
			<point x="20" y="458" type="curve"/>
			<point x="25" y="409" type="line"/>
			<point x="112" y="409"/>
			<point x="118" y="379"/>
			<point x="126" y="280" type="curve" smooth="yes"/>
			<point x="127" y="263"/>
			<point x="128" y="224"/>
			<point x="128" y="181" type="curve" smooth="yes"/>
			<point x="128" y="132"/>
			<point x="127" y="26"/>
			<point x="125" y="-10" type="curve" smooth="yes"/>
			<point x="118" y="-114"/>
			<point x="112" y="-156"/>
			<point x="35" y="-156" type="curve"/>
		</contour>
		<contour>
			<point x="249" y="4" type="curve" smooth="yes"/>
			<point x="415" y="4"/>
			<point x="537" y="120"/>
			<point x="537" y="281" type="curve" smooth="yes"/>
			<point x="537" y="405"/>
			<point x="465" y="473"/>
			<point x="369" y="473" type="curve" smooth="yes"/>
			<point x="279" y="473"/>
			<point x="206" y="412"/>
			<point x="182" y="355" type="curve"/>
			<point x="205" y="323" type="line"/>
			<point x="224" y="366"/>
			<point x="270" y="410"/>
			<point x="329" y="410" type="curve" smooth="yes"/>
			<point x="406" y="410"/>
			<point x="434" y="337"/>
			<point x="434" y="253" type="curve" smooth="yes"/>
			<point x="434" y="150"/>
			<point x="392" y="55"/>
			<point x="290" y="55" type="curve" smooth="yes"/>
			<point x="236" y="55"/>
			<point x="191" y="79"/>
			<point x="185" y="84" type="curve"/>
			<point x="164" y="16" type="line"/>
			<point x="183" y="9"/>
			<point x="214" y="4"/>
		</contour>
	</outline>
</glyph>
<glyph name="q" format="2">
	<advance width="525"/>
	<unicode hex="0071"/>
	<outline>
		<contour>
			<point x="210" y="-6" type="curve" smooth="yes"/>
			<point x="281" y="-6"/>
			<point x="347" y="36"/>
			<point x="384" y="123" type="curve"/>
			<point x="358" y="155" type="line"/>
			<point x="330" y="90"/>
			<point x="286" y="55"/>
			<point x="228" y="55" type="curve" smooth="yes"/>
			<point x="185" y="55"/>
			<point x="128" y="91"/>
			<point x="128" y="194" type="curve" smooth="yes"/>
			<point x="128" y="333"/>
			<point x="184" y="414"/>
			<point x="247" y="426" type="curve"/>
			<point x="254" y="427"/>
			<point x="261" y="428"/>
			<point x="268" y="428" type="curve" smooth="yes"/>
			<point x="343" y="428"/>
			<point x="378" y="366"/>
			<point x="387" y="349" type="curve"/>
			<point x="443" y="449" type="line"/>
			<point x="410" y="462"/>
			<point x="360" y="474"/>
			<point x="284" y="474" type="curve" smooth="yes"/>
			<point x="107" y="474"/>
			<point x="35" y="332"/>
			<point x="35" y="188" type="curve" smooth="yes"/>
			<point x="35" y="64"/>
			<point x="103" y="-6"/>
		</contour>
		<contour>
			<point x="270" y="-195" type="line"/>
			<point x="518" y="-195" type="line"/>
			<point x="514" y="-158" type="line"/>
			<point x="466" y="-158"/>
			<point x="443" y="-118"/>
			<point x="440" y="-69" type="curve" smooth="yes"/>
			<point x="435" y="19"/>
			<point x="434" y="138"/>
			<point x="434" y="228" type="curve" smooth="yes"/>
			<point x="434" y="319"/>
			<point x="437" y="400"/>
			<point x="443" y="449" type="curve"/>
			<point x="288" y="464" type="line"/>
			<point x="298" y="430" type="line"/>
			<point x="304" y="431"/>
			<point x="310" y="431"/>
			<point x="315" y="431" type="curve" smooth="yes"/>
			<point x="346" y="431"/>
			<point x="350" y="397"/>
			<point x="353" y="341" type="curve" smooth="yes"/>
			<point x="354" y="323"/>
			<point x="356" y="188"/>
			<point x="356" y="81" type="curve" smooth="yes"/>
			<point x="356" y="15" type="line" smooth="yes"/>
			<point x="356" y="-115"/>
			<point x="344" y="-142"/>
			<point x="264" y="-147" type="curve"/>
		</contour>
	</outline>
</glyph>
<glyph name="r" format="2">
	<advance width="448"/>
	<unicode hex="0072"/>
	<outline>
		<contour>
			<point x="64" y="0" type="line"/>
			<point x="327" y="0" type="line"/>
			<point x="319" y="37" type="line"/>
			<point x="314" y="37" type="line"/>
			<point x="276" y="37"/>
			<point x="230" y="49"/>
			<point x="223" y="123" type="curve" smooth="yes"/>
			<point x="221" y="143"/>
			<point x="220" y="171"/>
			<point x="220" y="220" type="curve" smooth="yes"/>
			<point x="220" y="256"/>
			<point x="223" y="311"/>
			<point x="227" y="368" type="curve"/>
			<point x="212" y="358" type="line"/>
			<point x="217" y="378"/>
			<point x="226" y="444"/>
			<point x="228" y="468" type="curve"/>
			<point x="172" y="462"/>
			<point x="121" y="458"/>
			<point x="63" y="458" type="curve" smooth="yes"/>
			<point x="40" y="458" type="line"/>
			<point x="45" y="410" type="line"/>
			<point x="114" y="410"/>
			<point x="134" y="391"/>
			<point x="140" y="349" type="curve" smooth="yes"/>
			<point x="142" y="333"/>
			<point x="142" y="314"/>
			<point x="142" y="291" type="curve" smooth="yes"/>
			<point x="142" y="240"/>
			<point x="142" y="162"/>
			<point x="135" y="94" type="curve" smooth="yes"/>
			<point x="131" y="51"/>
			<point x="105" y="48"/>
			<point x="58" y="48" type="curve"/>
		</contour>
		<contour>
			<point x="193" y="265" type="line"/>
			<point x="218" y="322"/>
			<point x="257" y="357"/>
			<point x="298" y="370" type="curve" smooth="yes"/>
			<point x="310" y="374"/>
			<point x="328" y="375"/>
			<point x="341" y="375" type="curve"/>
			<point x="324" y="381" type="line"/>
			<point x="352" y="370"/>
			<point x="366" y="350"/>
			<point x="371" y="332" type="curve"/>
			<point x="419" y="330" type="line"/>
			<point x="424" y="362"/>
			<point x="428" y="428"/>
			<point x="428" y="461" type="curve" smooth="yes"/>
			<point x="428" y="464"/>
			<point x="428" y="467"/>
			<point x="428" y="470" type="curve"/>
			<point x="333" y="470"/>
			<point x="199" y="383"/>
			<point x="174" y="293" type="curve"/>
		</contour>
	</outline>
</glyph>
<glyph name="s" format="2">
	<advance width="398"/>
	<unicode hex="0073"/>
	<outline>
		<contour>
			<point x="189" y="-19" type="curve" smooth="yes"/>
			<point x="298" y="-19"/>
			<point x="367" y="43"/>
			<point x="367" y="125" type="curve" smooth="yes"/>
			<point x="367" y="205"/>
			<point x="298" y="239"/>
			<point x="236" y="270" type="curve"/>
			<point x="216" y="280" type="line"/>
			<point x="174" y="302"/>
			<point x="140" y="326"/>
			<point x="140" y="366" type="curve" smooth="yes"/>
			<point x="140" y="403"/>
			<point x="171" y="427"/>
			<point x="211" y="427" type="curve" smooth="yes"/>
			<point x="276" y="427"/>
			<point x="308" y="369"/>
			<point x="313" y="356" type="curve"/>
			<point x="317" y="404" type="line"/>
			<point x="263" y="455" type="line"/>
			<point x="279" y="418"/>
			<point x="291" y="371"/>
			<point x="292" y="343" type="curve"/>
			<point x="350" y="336" type="line"/>
			<point x="353" y="353"/>
			<point x="354" y="381"/>
			<point x="354" y="407" type="curve" smooth="yes"/>
			<point x="354" y="422"/>
			<point x="354" y="436"/>
			<point x="353" y="447" type="curve"/>
			<point x="344" y="451"/>
			<point x="297" y="467"/>
			<point x="227" y="467" type="curve" smooth="yes"/>
			<point x="119" y="467"/>
			<point x="60" y="406"/>
			<point x="60" y="334" type="curve" smooth="yes"/>
			<point x="60" y="270"/>
			<point x="115" y="237"/>
			<point x="171" y="208" type="curve"/>
			<point x="190" y="198" type="line"/>
			<point x="238" y="173"/>
			<point x="282" y="148"/>
			<point x="282" y="105" type="curve" smooth="yes"/>
			<point x="282" y="57"/>
			<point x="248" y="28"/>
			<point x="197" y="28" type="curve" smooth="yes"/>
			<point x="134" y="28"/>
			<point x="109" y="80"/>
			<point x="100" y="99" type="curve"/>
			<point x="104" y="65"/>
			<point x="108" y="32"/>
			<point x="139" y="23" type="curve"/>
			<point x="121" y="50"/>
			<point x="119" y="94"/>
			<point x="119" y="120" type="curve"/>
			<point x="55" y="127" type="line"/>
			<point x="50" y="95"/>
			<point x="49" y="64"/>
			<point x="49" y="47" type="curve" smooth="yes"/>
			<point x="49" y="35"/>
			<point x="50" y="14"/>
			<point x="51" y="5" type="curve"/>
			<point x="76" y="-4"/>
			<point x="127" y="-19"/>
		</contour>
	</outline>
</glyph>
<glyph name="u" format="2">
	<advance width="561"/>
	<unicode hex="0075"/>
	<outline>
		<contour>
			<point x="202" y="-11" type="curve"/>
			<point x="284" y="-11"/>
			<point x="369" y="59"/>
			<point x="407" y="111" type="curve"/>
			<point x="387" y="139" type="line"/>
			<point x="387" y="139"/>
			<point x="335" y="65"/>
			<point x="257" y="65" type="curve"/>
			<point x="212" y="65"/>
			<point x="177" y="91"/>
			<point x="170" y="139" type="curve"/>
			<point x="167" y="162"/>
			<point x="166" y="193"/>
			<point x="166" y="227" type="curve"/>
			<point x="166" y="309"/>
			<point x="171" y="396"/>
			<point x="184" y="463" type="curve"/>
			<point x="130" y="456"/>
			<point x="68" y="450"/>
			<point x="-3" y="454" type="curve"/>
			<point x="2" y="404" type="line"/>
			<point x="25" y="406"/>
			<point x="92" y="403"/>
			<point x="89" y="348" type="curve"/>
			<point x="87" y="290"/>
			<point x="83" y="228"/>
			<point x="83" y="173" type="curve"/>
			<point x="83" y="139"/>
			<point x="85" y="107"/>
			<point x="88" y="90" type="curve"/>
			<point x="99" y="18"/>
			<point x="143" y="-11"/>
		</contour>
		<contour>
			<point x="387" y="0" type="curve"/>
			<point x="554" y="0" type="line"/>
			<point x="547" y="43" type="line"/>
			<point x="461" y="45"/>
			<point x="467" y="89"/>
			<point x="467" y="169" type="curve"/>
			<point x="467" y="240"/>
			<point x="472" y="346"/>
			<point x="480" y="457" type="curve"/>
			<point x="392" y="447" type="line"/>
			<point x="384" y="370"/>
			<point x="383" y="312"/>
			<point x="383" y="246" type="curve"/>
			<point x="383" y="190" type="line" smooth="yes"/>
			<point x="383" y="156"/>
			<point x="383" y="124"/>
			<point x="382" y="92" type="curve"/>
			<point x="382" y="92"/>
			<point x="390" y="109"/>
			<point x="396" y="109" type="curve"/>
			<point x="398" y="109"/>
			<point x="397" y="105"/>
			<point x="397" y="99" type="curve"/>
			<point x="392" y="79"/>
			<point x="387" y="0"/>
		</contour>
		<contour>
			<point x="385" y="345" type="curve"/>
			<point x="474" y="355" type="line"/>
			<point x="481" y="464" type="line"/>
			<point x="437" y="457"/>
			<point x="346" y="451"/>
			<point x="290" y="455" type="curve"/>
			<point x="296" y="409" type="line"/>
			<point x="325" y="410"/>
			<point x="389" y="412"/>
		</contour>
	</outline>
</glyph>
<glyph name="v" format="2">
	<advance width="507"/>
	<unicode hex="0076"/>
	<outline>
		<contour>
			<point x="202" y="-12" type="curve"/>
			<point x="291" y="14" type="line"/>
			<point x="315" y="75"/>
			<point x="373" y="217"/>
			<point x="433" y="353" type="curve" smooth="yes"/>
			<point x="447" y="385"/>
			<point x="461" y="415"/>
			<point x="509" y="417" type="curve"/>
			<point x="500" y="461" type="line"/>
			<point x="460" y="459"/>
			<point x="425" y="458"/>
			<point x="389" y="458" type="curve" smooth="yes"/>
			<point x="359" y="458"/>
			<point x="327" y="459"/>
			<point x="293" y="461" type="curve"/>
			<point x="299" y="413" type="line"/>
			<point x="344" y="413"/>
			<point x="379" y="409"/>
			<point x="379" y="380" type="curve" smooth="yes"/>
			<point x="379" y="375"/>
			<point x="378" y="369"/>
			<point x="376" y="363" type="curve" smooth="yes"/>
			<point x="329" y="233"/>
			<point x="279" y="112"/>
			<point x="252" y="55" type="curve"/>
			<point x="246" y="122" type="line"/>
			<point x="223" y="185"/>
			<point x="189" y="279"/>
			<point x="172" y="357" type="curve" smooth="yes"/>
			<point x="170" y="366"/>
			<point x="169" y="374"/>
			<point x="169" y="381" type="curve" smooth="yes"/>
			<point x="169" y="410"/>
			<point x="190" y="416"/>
			<point x="238" y="420" type="curve"/>
			<point x="227" y="461" type="line"/>
			<point x="178" y="459"/>
			<point x="139" y="459"/>
			<point x="98" y="459" type="curve" smooth="yes"/>
			<point x="68" y="459"/>
			<point x="38" y="459"/>
			<point x="2" y="461" type="curve"/>
			<point x="13" y="412" type="line"/>
			<point x="49" y="412"/>
			<point x="67" y="408"/>
			<point x="82" y="358" type="curve" smooth="yes"/>
			<point x="137" y="175"/>
			<point x="172" y="74"/>
		</contour>
	</outline>
</glyph>
<glyph name="w" format="2">
	<advance width="751"/>
	<unicode hex="0077"/>
	<outline>
		<contour>
			<point x="483" y="-12" type="curve"/>
			<point x="554" y="1" type="line"/>
			<point x="573" y="62"/>
			<point x="627" y="215"/>
			<point x="680" y="352" type="curve" smooth="yes"/>
			<point x="695" y="391"/>
			<point x="705" y="413"/>
			<point x="752" y="413" type="curve"/>
			<point x="743" y="460" type="line"/>
			<point x="717" y="458"/>
			<point x="676" y="456"/>
			<point x="644" y="456" type="curve" smooth="yes"/>
			<point x="613" y="456"/>
			<point x="571" y="458"/>
			<point x="543" y="460" type="curve"/>
			<point x="550" y="410" type="line"/>
			<point x="594" y="410"/>
			<point x="627" y="403"/>
			<point x="627" y="372" type="curve" smooth="yes"/>
			<point x="627" y="366"/>
			<point x="626" y="360"/>
			<point x="624" y="353" type="curve" smooth="yes"/>
			<point x="582" y="226"/>
			<point x="547" y="122"/>
			<point x="523" y="67" type="curve"/>
			<point x="512" y="159" type="line"/>
			<point x="489" y="223"/>
			<point x="470" y="278"/>
			<point x="448" y="354" type="curve"/>
			<point x="445" y="366"/>
			<point x="443" y="376"/>
			<point x="443" y="384" type="curve" smooth="yes"/>
			<point x="443" y="408"/>
			<point x="459" y="415"/>
			<point x="495" y="417" type="curve"/>
			<point x="487" y="460" type="line"/>
			<point x="458" y="459"/>
			<point x="415" y="458"/>
			<point x="379" y="458" type="curve" smooth="yes"/>
			<point x="350" y="458"/>
			<point x="308" y="459"/>
			<point x="280" y="460" type="curve"/>
			<point x="293" y="410" type="line"/>
			<point x="330" y="410"/>
			<point x="350" y="399"/>
			<point x="363" y="362" type="curve" smooth="yes"/>
			<point x="407" y="234"/>
			<point x="457" y="84"/>
		</contour>
		<contour>
			<point x="209" y="-12" type="curve"/>
			<point x="279" y="1" type="line"/>
			<point x="307" y="62"/>
			<point x="370" y="215"/>
			<point x="420" y="351" type="curve"/>
			<point x="369" y="353" type="line"/>
			<point x="346" y="286"/>
			<point x="273" y="112"/>
			<point x="250" y="65" type="curve"/>
			<point x="245" y="159" type="line"/>
			<point x="220" y="223"/>
			<point x="202" y="279"/>
			<point x="180" y="354" type="curve" smooth="yes"/>
			<point x="177" y="364"/>
			<point x="175" y="373"/>
			<point x="175" y="380" type="curve" smooth="yes"/>
			<point x="175" y="414"/>
			<point x="211" y="417"/>
			<point x="247" y="417" type="curve"/>
			<point x="236" y="460" type="line"/>
			<point x="192" y="457"/>
			<point x="156" y="455"/>
			<point x="118" y="455" type="curve" smooth="yes"/>
			<point x="86" y="455"/>
			<point x="52" y="457"/>
			<point x="10" y="460" type="curve"/>
			<point x="18" y="410" type="line"/>
			<point x="54" y="410"/>
			<point x="74" y="405"/>
			<point x="90" y="356" type="curve" smooth="yes"/>
			<point x="150" y="174"/>
			<point x="182" y="74"/>
		</contour>
	</outline>
</glyph>
<glyph name="x" format="2">
	<advance width="495"/>
	<unicode hex="0078"/>
	<outline>
		<contour>
			<point x="265" y="-2" type="line"/>
			<point x="480" y="-2" type="line"/>
			<point x="471" y="40" type="line"/>
			<point x="442" y="40"/>
			<point x="428" y="55"/>
			<point x="399" y="90" type="curve" smooth="yes"/>
			<point x="355" y="143"/>
			<point x="302" y="225"/>
			<point x="284" y="259" type="curve"/>
			<point x="254" y="262" type="line"/>
			<point x="228" y="296"/>
			<point x="200" y="341"/>
			<point x="184" y="368" type="curve" smooth="yes"/>
			<point x="178" y="378"/>
			<point x="176" y="386"/>
			<point x="176" y="393" type="curve" smooth="yes"/>
			<point x="176" y="409"/>
			<point x="190" y="417"/>
			<point x="219" y="417" type="curve"/>
			<point x="211" y="460" type="line"/>
			<point x="182" y="458"/>
			<point x="150" y="457"/>
			<point x="116" y="457" type="curve" smooth="yes"/>
			<point x="82" y="457"/>
			<point x="46" y="458"/>
			<point x="8" y="460" type="curve"/>
			<point x="15" y="416" type="line"/>
			<point x="39" y="416"/>
			<point x="61" y="408"/>
			<point x="87" y="373" type="curve" smooth="yes"/>
			<point x="120" y="328"/>
			<point x="165" y="259"/>
			<point x="189" y="219" type="curve"/>
			<point x="211" y="217" type="line"/>
			<point x="243" y="180"/>
			<point x="281" y="124"/>
			<point x="299" y="91" type="curve" smooth="yes"/>
			<point x="305" y="80"/>
			<point x="312" y="66"/>
			<point x="312" y="59" type="curve" smooth="yes"/>
			<point x="312" y="42"/>
			<point x="289" y="36"/>
			<point x="258" y="36" type="curve"/>
		</contour>
		<contour>
			<point x="22" y="-2" type="line"/>
			<point x="210" y="-2" type="line"/>
			<point x="200" y="37" type="line"/>
			<point x="168" y="37"/>
			<point x="157" y="45"/>
			<point x="157" y="58" type="curve" smooth="yes"/>
			<point x="157" y="66"/>
			<point x="162" y="76"/>
			<point x="168" y="87" type="curve" smooth="yes"/>
			<point x="191" y="127"/>
			<point x="225" y="183"/>
			<point x="252" y="217" type="curve"/>
			<point x="288" y="221" type="line"/>
			<point x="308" y="252"/>
			<point x="353" y="312"/>
			<point x="390" y="358" type="curve" smooth="yes"/>
			<point x="417" y="392"/>
			<point x="437" y="417"/>
			<point x="472" y="419" type="curve"/>
			<point x="466" y="460" type="line"/>
			<point x="441" y="459"/>
			<point x="413" y="458"/>
			<point x="383" y="458" type="curve" smooth="yes"/>
			<point x="349" y="458"/>
			<point x="314" y="459"/>
			<point x="282" y="461" type="curve"/>
			<point x="289" y="416" type="line"/>
			<point x="322" y="416"/>
			<point x="334" y="405"/>
			<point x="334" y="393" type="curve" smooth="yes"/>
			<point x="334" y="387"/>
			<point x="332" y="381"/>
			<point x="328" y="374" type="curve" smooth="yes"/>
			<point x="307" y="337"/>
			<point x="273" y="287"/>
			<point x="243" y="249" type="curve"/>
			<point x="200" y="243" type="line"/>
			<point x="171" y="196"/>
			<point x="116" y="112"/>
			<point x="97" y="86" type="curve" smooth="yes"/>
			<point x="79" y="62"/>
			<point x="50" y="41"/>
			<point x="15" y="41" type="curve"/>
		</contour>
	</outline>
</glyph>
<glyph name="y" format="2">
	<advance width="512"/>
	<unicode hex="0079"/>
	<outline>
		<contour>
			<point x="196" y="-6" type="curve"/>
			<point x="222" y="4"/>
			<point x="270" y="12"/>
			<point x="293" y="12" type="curve"/>
			<point x="321" y="74"/>
			<point x="379" y="215"/>
			<point x="437" y="351" type="curve" smooth="yes"/>
			<point x="454" y="390"/>
			<point x="459" y="413"/>
			<point x="513" y="413" type="curve"/>
			<point x="504" y="460" type="line"/>
			<point x="463" y="458"/>
			<point x="426" y="457"/>
			<point x="388" y="457" type="curve" smooth="yes"/>
			<point x="359" y="457"/>
			<point x="329" y="458"/>
			<point x="296" y="460" type="curve"/>
			<point x="303" y="410" type="line"/>
			<point x="347" y="410"/>
			<point x="376" y="403"/>
			<point x="376" y="373" type="curve" smooth="yes"/>
			<point x="376" y="367"/>
			<point x="375" y="360"/>
			<point x="373" y="353" type="curve" smooth="yes"/>
			<point x="347" y="272"/>
			<point x="281" y="109"/>
			<point x="255" y="54" type="curve"/>
			<point x="231" y="156" type="line"/>
			<point x="207" y="229"/>
			<point x="191" y="280"/>
			<point x="170" y="354" type="curve" smooth="yes"/>
			<point x="168" y="361"/>
			<point x="167" y="367"/>
			<point x="167" y="373" type="curve" smooth="yes"/>
			<point x="167" y="406"/>
			<point x="199" y="414"/>
			<point x="249" y="417" type="curve"/>
			<point x="239" y="460" type="line"/>
			<point x="189" y="458"/>
			<point x="145" y="458"/>
			<point x="100" y="458" type="curve" smooth="yes"/>
			<point x="68" y="458"/>
			<point x="35" y="458"/>
			<point x="-2" y="460" type="curve"/>
			<point x="4" y="414" type="line"/>
			<point x="40" y="414"/>
			<point x="64" y="405"/>
			<point x="80" y="356" type="curve" smooth="yes"/>
			<point x="142" y="172"/>
			<point x="170" y="80"/>
		</contour>
		<contour>
			<point x="49" y="-203" type="curve"/>
			<point x="111" y="-203"/>
			<point x="189" y="-185"/>
			<point x="230" y="-122" type="curve" smooth="yes"/>
			<point x="256" y="-82"/>
			<point x="285" y="-7"/>
			<point x="305" y="39" type="curve"/>
			<point x="252" y="43" type="line"/>
			<point x="225" y="-24"/>
			<point x="188" y="-112"/>
			<point x="69" y="-112" type="curve" smooth="yes"/>
			<point x="57" y="-112"/>
			<point x="46" y="-112"/>
			<point x="33" y="-110" type="curve"/>
			<point x="30" y="-117"/>
			<point x="26" y="-130"/>
			<point x="26" y="-146" type="curve" smooth="yes"/>
			<point x="26" y="-166"/>
			<point x="32" y="-189"/>
		</contour>
	</outline>
</glyph>
<glyph name="z" format="2">
	<advance width="421"/>
	<unicode hex="007A"/>
	<outline>
		<contour>
			<point x="23" y="0" type="line"/>
			<point x="384" y="0" type="line"/>
			<point x="388" y="34"/>
			<point x="389" y="69"/>
			<point x="389" y="88" type="curve" smooth="yes"/>
			<point x="389" y="119"/>
			<point x="388" y="133"/>
			<point x="387" y="141" type="curve"/>
			<point x="326" y="132" type="line"/>
			<point x="324" y="104"/>
			<point x="314" y="72"/>
			<point x="309" y="60" type="curve"/>
			<point x="262" y="54"/>
			<point x="217" y="51"/>
			<point x="179" y="51" type="curve" smooth="yes"/>
			<point x="163" y="51"/>
			<point x="154" y="56"/>
			<point x="154" y="71" type="curve" smooth="yes"/>
			<point x="154" y="81"/>
			<point x="163" y="96"/>
			<point x="176" y="116" type="curve" smooth="yes"/>
			<point x="191" y="139"/>
			<point x="348" y="378"/>
			<point x="391" y="420" type="curve"/>
			<point x="386" y="460" type="line"/>
			<point x="353" y="458"/>
			<point x="281" y="456"/>
			<point x="199" y="456" type="curve" smooth="yes"/>
			<point x="147" y="456"/>
			<point x="87" y="457"/>
			<point x="39" y="460" type="curve"/>
			<point x="37" y="434"/>
			<point x="35" y="404"/>
			<point x="35" y="375" type="curve" smooth="yes"/>
			<point x="35" y="356"/>
			<point x="36" y="338"/>
			<point x="37" y="322" type="curve"/>
			<point x="93" y="329" type="line"/>
			<point x="93" y="345"/>
			<point x="105" y="387"/>
			<point x="114" y="401" type="curve"/>
			<point x="137" y="405"/>
			<point x="169" y="408"/>
			<point x="208" y="408" type="curve" smooth="yes"/>
			<point x="234" y="408"/>
			<point x="259" y="407"/>
			<point x="275" y="404" type="curve"/>
			<point x="243" y="349"/>
			<point x="101" y="129"/>
			<point x="18" y="45" type="curve"/>
		</contour>
	</outline>
</glyph>
<glyph name="braceleft" format="2">
	<advance width="337"/>
	<unicode hex="007B"/>
	<outline>
		<contour>
			<point x="275" y="-76" type="curve"/>
			<point x="293" y="-39" type="line"/>
			<point x="241" y="-16"/>
			<point x="230" y="21"/>
			<point x="233" y="62" type="curve"/>
			<point x="234" y="109"/>
			<point x="262" y="136"/>
			<point x="262" y="197" type="curve" smooth="yes"/>
			<point x="262" y="247"/>
			<point x="231" y="276"/>
			<point x="192" y="293" type="curve"/>
			<point x="192" y="313" type="line"/>
			<point x="183" y="315"/>
			<point x="167" y="316"/>
			<point x="149" y="316" type="curve" smooth="yes"/>
			<point x="117" y="316"/>
			<point x="77" y="314"/>
			<point x="58" y="315" type="curve"/>
			<point x="58" y="275" type="line"/>
			<point x="148" y="273"/>
			<point x="170" y="242"/>
			<point x="170" y="199" type="curve" smooth="yes"/>
			<point x="170" y="157"/>
			<point x="149" y="104"/>
			<point x="149" y="53" type="curve" smooth="yes"/>
			<point x="149" y="-22"/>
			<point x="225" y="-69"/>
		</contour>
		<contour>
			<point x="58" y="283" type="line"/>
			<point x="152" y="287"/>
			<point x="257" y="308"/>
			<point x="257" y="400" type="curve" smooth="yes"/>
			<point x="257" y="459"/>
			<point x="228" y="503"/>
			<point x="228" y="548" type="curve" smooth="yes"/>
			<point x="228" y="592"/>
			<point x="234" y="625"/>
			<point x="288" y="648" type="curve"/>
			<point x="264" y="678" type="line"/>
			<point x="223" y="665"/>
			<point x="147" y="618"/>
			<point x="145" y="547" type="curve" smooth="yes"/>
			<point x="143" y="494"/>
			<point x="168" y="437"/>
			<point x="168" y="394" type="curve" smooth="yes"/>
			<point x="168" y="353"/>
			<point x="146" y="324"/>
			<point x="58" y="323" type="curve"/>
		</contour>
	</outline>
</glyph>
<glyph name="bar" format="2">
	<advance width="183"/>
	<unicode hex="007C"/>
	<outline>
		<contour>
			<point x="62" y="-124" type="curve"/>
			<point x="128" y="-119" type="line"/>
			<point x="125" y="-84"/>
			<point x="124" y="5"/>
			<point x="124" y="109" type="curve" smooth="yes"/>
			<point x="124" y="284"/>
			<point x="127" y="500"/>
			<point x="128" y="571" type="curve"/>
			<point x="109" y="567"/>
			<point x="83" y="564"/>
			<point x="63" y="562" type="curve"/>
			<point x="65" y="517"/>
			<point x="65" y="425"/>
			<point x="65" y="320" type="curve" smooth="yes"/>
			<point x="65" y="162"/>
			<point x="64" y="-24"/>
		</contour>
	</outline>
</glyph>
<glyph name="asciitilde" format="2">
	<advance width="462"/>
	<unicode hex="007E"/>
	<outline>
		<contour>
			<point x="311" y="218" type="curve" smooth="yes"/>
			<point x="382" y="218"/>
			<point x="419" y="243"/>
			<point x="443" y="295" type="curve"/>
			<point x="433" y="305"/>
			<point x="423" y="313"/>
			<point x="408" y="319" type="curve"/>
			<point x="384" y="296"/>
			<point x="360" y="283"/>
			<point x="323" y="283" type="curve" smooth="yes"/>
			<point x="254" y="283"/>
			<point x="228" y="327"/>
			<point x="142" y="327" type="curve" smooth="yes"/>
			<point x="72" y="327"/>
			<point x="34" y="290"/>
			<point x="17" y="249" type="curve"/>
			<point x="27" y="239"/>
			<point x="40" y="232"/>
			<point x="51" y="226" type="curve"/>
			<point x="64" y="249"/>
			<point x="94" y="267"/>
			<point x="126" y="267" type="curve" smooth="yes"/>
			<point x="198" y="267"/>
			<point x="219" y="218"/>
		</contour>
	</outline>
</glyph>
<glyph name="cent" format="2">
	<advance width="447"/>
	<unicode hex="00A2"/>
	<outline>
		<contour>
			<point x="246" y="42" type="curve" smooth="yes"/>
			<point x="314" y="42"/>
			<point x="370" y="67"/>
			<point x="410" y="113" type="curve"/>
			<point x="394" y="139" type="line"/>
			<point x="367" y="116"/>
			<point x="326" y="96"/>
			<point x="278" y="96" type="curve" smooth="yes"/>
			<point x="192" y="96"/>
			<point x="132" y="159"/>
			<point x="132" y="263" type="curve" smooth="yes"/>
			<point x="132" y="373"/>
			<point x="182" y="455"/>
			<point x="251" y="455" type="curve" smooth="yes"/>
			<point x="290" y="455"/>
			<point x="323" y="434"/>
			<point x="339" y="421" type="curve"/>
			<point x="327" y="440"/>
			<point x="312" y="454"/>
			<point x="286" y="460" type="curve"/>
			<point x="323" y="435"/>
			<point x="336" y="407"/>
			<point x="352" y="375" type="curve"/>
			<point x="396" y="371" type="line"/>
			<point x="400" y="392"/>
			<point x="400" y="421"/>
			<point x="400" y="447" type="curve" smooth="yes"/>
			<point x="400" y="483" type="line"/>
			<point x="400" y="483"/>
			<point x="357" y="504"/>
			<point x="291" y="504" type="curve" smooth="yes"/>
			<point x="120" y="504"/>
			<point x="43" y="362"/>
			<point x="43" y="246" type="curve" smooth="yes"/>
			<point x="43" y="95"/>
			<point x="137" y="42"/>
		</contour>
		<contour>
			<point x="220" y="-39" type="line"/>
			<point x="282" y="-34" type="line"/>
			<point x="280" y="-12"/>
			<point x="279" y="26"/>
			<point x="279" y="74" type="curve" smooth="yes"/>
			<point x="279" y="236"/>
			<point x="288" y="507"/>
			<point x="290" y="594" type="curve"/>
			<point x="229" y="585" type="line"/>
			<point x="233" y="473"/>
			<point x="224" y="127"/>
		</contour>
	</outline>
</glyph>
<glyph name="sterling" format="2">
	<advance width="462"/>
	<unicode hex="00A3"/>
	<outline>
		<contour>
			<point x="52" y="0" type="line"/>
			<point x="430" y="1" type="line"/>
			<point x="436" y="46"/>
			<point x="440" y="77"/>
			<point x="440" y="103" type="curve" smooth="yes"/>
			<point x="440" y="111"/>
			<point x="440" y="118"/>
			<point x="439" y="125" type="curve"/>
			<point x="425" y="126"/>
			<point x="411" y="126"/>
			<point x="386" y="123" type="curve"/>
			<point x="382" y="95"/>
			<point x="370" y="69"/>
			<point x="356" y="46" type="curve"/>
			<point x="372" y="66" type="line"/>
			<point x="353" y="68"/>
			<point x="325" y="69"/>
			<point x="291" y="69" type="curve" smooth="yes"/>
			<point x="231" y="69"/>
			<point x="154" y="64"/>
			<point x="83" y="44" type="curve"/>
			<point x="112" y="19" type="line"/>
			<point x="149" y="43"/>
			<point x="277" y="111"/>
			<point x="277" y="219" type="curve" smooth="yes"/>
			<point x="277" y="317"/>
			<point x="169" y="385"/>
			<point x="169" y="489" type="curve" smooth="yes"/>
			<point x="169" y="553"/>
			<point x="215" y="579"/>
			<point x="266" y="579" type="curve" smooth="yes"/>
			<point x="306" y="579"/>
			<point x="333" y="557"/>
			<point x="350" y="543" type="curve"/>
			<point x="338" y="562"/>
			<point x="321" y="577"/>
			<point x="295" y="577" type="curve"/>
			<point x="333" y="557"/>
			<point x="340" y="527"/>
			<point x="356" y="494" type="curve"/>
			<point x="410" y="490" type="line"/>
			<point x="413" y="511"/>
			<point x="414" y="539"/>
			<point x="414" y="565" type="curve" smooth="yes"/>
			<point x="414" y="581"/>
			<point x="414" y="596"/>
			<point x="413" y="608" type="curve"/>
			<point x="413" y="608"/>
			<point x="342" y="623"/>
			<point x="277" y="623" type="curve" smooth="yes"/>
			<point x="229" y="623"/>
			<point x="79" y="611"/>
			<point x="79" y="482" type="curve" smooth="yes"/>
			<point x="79" y="350"/>
			<point x="203" y="324"/>
			<point x="203" y="245" type="curve" smooth="yes"/>
			<point x="203" y="237"/>
			<point x="202" y="228"/>
			<point x="199" y="219" type="curve" smooth="yes"/>
			<point x="176" y="146"/>
			<point x="94" y="80"/>
			<point x="35" y="34" type="curve"/>
		</contour>
		<contour>
			<point x="43" y="271" type="line"/>
			<point x="399" y="271" type="line"/>
			<point x="395" y="290"/>
			<point x="391" y="319"/>
			<point x="387" y="340" type="curve"/>
			<point x="321" y="336"/>
			<point x="260" y="334"/>
			<point x="203" y="334" type="curve" smooth="yes"/>
			<point x="145" y="334"/>
			<point x="91" y="336"/>
			<point x="39" y="340" type="curve"/>
		</contour>
	</outline>
</glyph>
<glyph name="currency" format="2">
	<advance width="462"/>
	<unicode hex="00A4"/>
	<outline>
		<contour>
			<point x="227" y="115" type="curve" smooth="yes"/>
			<point x="341" y="115"/>
			<point x="391" y="196"/>
			<point x="391" y="280" type="curve" smooth="yes"/>
			<point x="391" y="363"/>
			<point x="330" y="422"/>
			<point x="244" y="422" type="curve" smooth="yes"/>
			<point x="153" y="422"/>
			<point x="77" y="357"/>
			<point x="77" y="262" type="curve" smooth="yes"/>
			<point x="77" y="183"/>
			<point x="134" y="115"/>
		</contour>
		<contour>
			<point x="43" y="82" type="curve"/>
			<point x="63" y="99"/>
			<point x="128" y="147"/>
			<point x="154" y="164" type="curve"/>
			<point x="126" y="205" type="line"/>
			<point x="91" y="182"/>
			<point x="44" y="156"/>
			<point x="7" y="135" type="curve"/>
			<point x="22" y="110"/>
			<point x="33" y="94"/>
		</contour>
		<contour>
			<point x="116" y="326" type="curve"/>
			<point x="142" y="368" type="line"/>
			<point x="116" y="383"/>
			<point x="49" y="430"/>
			<point x="28" y="444" type="curve"/>
			<point x="18" y="433"/>
			<point x="8" y="416"/>
			<point x="-5" y="390" type="curve"/>
			<point x="32" y="372"/>
			<point x="80" y="347"/>
		</contour>
		<contour>
			<point x="234" y="158" type="curve" smooth="yes"/>
			<point x="175" y="158"/>
			<point x="142" y="204"/>
			<point x="142" y="263" type="curve" smooth="yes"/>
			<point x="142" y="354"/>
			<point x="193" y="380"/>
			<point x="236" y="380" type="curve" smooth="yes"/>
			<point x="283" y="380"/>
			<point x="329" y="338"/>
			<point x="329" y="273" type="curve" smooth="yes"/>
			<point x="329" y="210"/>
			<point x="296" y="158"/>
		</contour>
		<contour>
			<point x="434" y="80" type="curve"/>
			<point x="444" y="92"/>
			<point x="455" y="108"/>
			<point x="470" y="132" type="curve"/>
			<point x="433" y="153"/>
			<point x="386" y="180"/>
			<point x="351" y="203" type="curve"/>
			<point x="323" y="162" type="line"/>
			<point x="349" y="145"/>
			<point x="413" y="96"/>
		</contour>
		<contour>
			<point x="359" y="321" type="line"/>
			<point x="393" y="343"/>
			<point x="440" y="370"/>
			<point x="477" y="391" type="curve"/>
			<point x="463" y="416"/>
			<point x="451" y="432"/>
			<point x="441" y="444" type="curve"/>
			<point x="421" y="427"/>
			<point x="357" y="379"/>
			<point x="330" y="362" type="curve"/>
		</contour>
	</outline>
</glyph>
<glyph name="yen" format="2">
	<advance width="558"/>
	<unicode hex="00A5"/>
	<outline>
		<contour>
			<point x="74" y="256" type="line"/>
			<point x="501" y="256" type="line"/>
			<point x="489" y="316" type="line"/>
			<point x="423" y="313"/>
			<point x="355" y="311"/>
			<point x="285" y="311" type="curve" smooth="yes"/>
			<point x="216" y="311"/>
			<point x="144" y="313"/>
			<point x="69" y="316" type="curve"/>
		</contour>
		<contour>
			<point x="74" y="156" type="line"/>
			<point x="501" y="156" type="line"/>
			<point x="497" y="174"/>
			<point x="493" y="196"/>
			<point x="489" y="216" type="curve"/>
			<point x="423" y="213"/>
			<point x="355" y="211"/>
			<point x="285" y="211" type="curve" smooth="yes"/>
			<point x="216" y="211"/>
			<point x="144" y="213"/>
			<point x="69" y="216" type="curve"/>
		</contour>
		<component base="Y"/>
	</outline>
</glyph>
<glyph name="brokenbar" format="2">
	<advance width="186"/>
	<unicode hex="00A6"/>
	<outline>
		<contour>
			<point x="66" y="263" type="curve"/>
			<point x="126" y="263" type="line"/>
			<point x="126" y="358"/>
			<point x="128" y="458"/>
			<point x="129" y="571" type="curve"/>
			<point x="109" y="567"/>
			<point x="82" y="564"/>
			<point x="62" y="563" type="curve"/>
			<point x="65" y="450"/>
			<point x="65" y="353"/>
		</contour>
		<contour>
			<point x="63" y="-122" type="curve"/>
			<point x="127" y="-122" type="line"/>
			<point x="126" y="-82"/>
			<point x="125" y="-38"/>
			<point x="125" y="6" type="curve" smooth="yes"/>
			<point x="125" y="64"/>
			<point x="126" y="124"/>
			<point x="126" y="178" type="curve"/>
			<point x="66" y="178" type="line"/>
			<point x="66" y="83"/>
			<point x="65" y="-28"/>
		</contour>
	</outline>
</glyph>
<glyph name="section" format="2">
	<advance width="462"/>
	<unicode hex="00A7"/>
	<outline>
		<contour>
			<point x="176" y="-124" type="curve" smooth="yes"/>
			<point x="315" y="-124"/>
			<point x="365" y="-40"/>
			<point x="365" y="33" type="curve" smooth="yes"/>
			<point x="365" y="189"/>
			<point x="129" y="234"/>
			<point x="129" y="347" type="curve" smooth="yes"/>
			<point x="129" y="403"/>
			<point x="166" y="432"/>
			<point x="209" y="432" type="curve"/>
			<point x="233" y="474" type="line"/>
			<point x="116" y="474"/>
			<point x="54" y="406"/>
			<point x="54" y="316" type="curve" smooth="yes"/>
			<point x="54" y="169"/>
			<point x="283" y="139"/>
			<point x="283" y="11" type="curve" smooth="yes"/>
			<point x="283" y="-31"/>
			<point x="253" y="-75"/>
			<point x="191" y="-75" type="curve" smooth="yes"/>
			<point x="131" y="-75"/>
			<point x="116" y="-47"/>
			<point x="89" y="-16" type="curve"/>
			<point x="97" y="-53"/>
			<point x="92" y="-74"/>
			<point x="131" y="-84" type="curve"/>
			<point x="105" y="-54"/>
			<point x="104" y="-22"/>
			<point x="101" y="18" type="curve"/>
			<point x="42" y="25" type="line"/>
			<point x="36" y="-10"/>
			<point x="34" y="-38"/>
			<point x="34" y="-67" type="curve" smooth="yes"/>
			<point x="34" y="-81"/>
			<point x="35" y="-94"/>
			<point x="36" y="-104" type="curve"/>
			<point x="36" y="-104"/>
			<point x="86" y="-124"/>
		</contour>
		<contour>
			<point x="303" y="9" type="line"/>
			<point x="430" y="10"/>
			<point x="478" y="89"/>
			<point x="478" y="170" type="curve" smooth="yes"/>
			<point x="478" y="355"/>
			<point x="242" y="398"/>
			<point x="242" y="500" type="curve" smooth="yes"/>
			<point x="242" y="537"/>
			<point x="271" y="565"/>
			<point x="315" y="565" type="curve" smooth="yes"/>
			<point x="383" y="565"/>
			<point x="404" y="509"/>
			<point x="418" y="494" type="curve"/>
			<point x="371" y="571" type="line"/>
			<point x="389" y="530"/>
			<point x="401" y="504"/>
			<point x="403" y="472" type="curve"/>
			<point x="464" y="464" type="line"/>
			<point x="467" y="484"/>
			<point x="469" y="512"/>
			<point x="469" y="541" type="curve" smooth="yes"/>
			<point x="469" y="557"/>
			<point x="468" y="573"/>
			<point x="467" y="585" type="curve"/>
			<point x="467" y="585"/>
			<point x="412" y="607"/>
			<point x="338" y="607" type="curve" smooth="yes"/>
			<point x="221" y="607"/>
			<point x="170" y="542"/>
			<point x="170" y="472" type="curve" smooth="yes"/>
			<point x="170" y="343"/>
			<point x="404" y="306"/>
			<point x="404" y="158" type="curve" smooth="yes"/>
			<point x="404" y="91"/>
			<point x="375" y="51"/>
			<point x="315" y="50" type="curve"/>
		</contour>
	</outline>
</glyph>
<glyph name="dieresis" format="2">
	<advance width="0"/>
	<unicode hex="00A8"/>
	<outline>
		<contour>
			<point x="-75" y="734" type="curve" smooth="yes"/>
			<point x="-49" y="734"/>
			<point x="-27" y="752"/>
			<point x="-27" y="779" type="curve" smooth="yes"/>
			<point x="-27" y="806"/>
			<point x="-49" y="828"/>
			<point x="-75" y="828" type="curve" smooth="yes"/>
			<point x="-102" y="828"/>
			<point x="-124" y="809"/>
			<point x="-124" y="782" type="curve" smooth="yes"/>
			<point x="-124" y="755"/>
			<point x="-102" y="734"/>
		</contour>
		<contour>
			<point x="65" y="733" type="curve" smooth="yes"/>
			<point x="92" y="733"/>
			<point x="110" y="755"/>
			<point x="110" y="782" type="curve" smooth="yes"/>
			<point x="110" y="809"/>
			<point x="92" y="830"/>
			<point x="65" y="830" type="curve" smooth="yes"/>
			<point x="39" y="830"/>
			<point x="17" y="809"/>
			<point x="17" y="782" type="curve" smooth="yes"/>
			<point x="17" y="755"/>
			<point x="39" y="733"/>
		</contour>
	</outline>
</glyph>
<glyph name="copyright" format="2">
	<advance width="795"/>
	<unicode hex="00A9"/>
	<outline>
		<contour>
			<point x="398" y="-88" type="curve" smooth="yes"/>
			<point x="604" y="-88"/>
			<point x="772" y="80"/>
			<point x="772" y="287" type="curve" smooth="yes"/>
			<point x="772" y="494"/>
			<point x="604" y="661"/>
			<point x="398" y="661" type="curve" smooth="yes"/>
			<point x="191" y="661"/>
			<point x="23" y="494"/>
			<point x="23" y="287" type="curve" smooth="yes"/>
			<point x="23" y="80"/>
			<point x="191" y="-88"/>
		</contour>
		<contour>
			<point x="398" y="-31" type="curve" smooth="yes"/>
			<point x="223" y="-31"/>
			<point x="80" y="112"/>
			<point x="80" y="287" type="curve" smooth="yes"/>
			<point x="80" y="462"/>
			<point x="223" y="604"/>
			<point x="398" y="604" type="curve" smooth="yes"/>
			<point x="573" y="604"/>
			<point x="715" y="462"/>
			<point x="715" y="287" type="curve" smooth="yes"/>
			<point x="715" y="112"/>
			<point x="573" y="-31"/>
		</contour>
		<component base="c" xScale="0.924" yScale="0.924" xOffset="165" yOffset="73"/>
	</outline>
</glyph>
<glyph name="logicalnot" format="2">
	<advance width="485"/>
	<unicode hex="00AC"/>
	<outline>
		<contour>
			<point x="398" y="79" type="curve"/>
			<point x="454" y="80" type="line"/>
			<point x="454" y="319" type="line"/>
			<point x="371" y="316"/>
			<point x="274" y="316"/>
			<point x="180" y="316" type="curve" smooth="yes"/>
			<point x="42" y="316" type="line"/>
			<point x="40" y="258" type="line"/>
			<point x="399" y="258" type="line"/>
			<point x="399" y="206" type="line" smooth="yes"/>
			<point x="399" y="164"/>
			<point x="399" y="121"/>
		</contour>
	</outline>
</glyph>
<glyph name="registered" format="2">
	<advance width="400"/>
	<unicode hex="00AE"/>
	<outline>
		<contour>
			<point x="193" y="230" type="curve" smooth="yes"/>
			<point x="302" y="230"/>
			<point x="390" y="313"/>
			<point x="390" y="423" type="curve" smooth="yes"/>
			<point x="390" y="531"/>
			<point x="306" y="619"/>
			<point x="193" y="619" type="curve" smooth="yes"/>
			<point x="83" y="619"/>
			<point x="-4" y="532"/>
			<point x="-4" y="424" type="curve" smooth="yes"/>
			<point x="-4" y="314"/>
			<point x="83" y="230"/>
		</contour>
		<contour>
			<point x="112" y="323" type="line"/>
			<point x="196" y="323" type="line"/>
			<point x="193" y="343" type="line"/>
			<point x="179" y="343"/>
			<point x="169" y="347"/>
			<point x="169" y="362" type="curve"/>
			<point x="168" y="374"/>
			<point x="166" y="403"/>
			<point x="167" y="427" type="curve"/>
			<point x="160" y="417" type="line"/>
			<point x="166" y="416"/>
			<point x="179" y="413"/>
			<point x="192" y="413" type="curve" smooth="yes"/>
			<point x="236" y="413"/>
			<point x="271" y="438"/>
			<point x="271" y="479" type="curve" smooth="yes"/>
			<point x="271" y="507"/>
			<point x="253" y="531"/>
			<point x="213" y="531" type="curve" smooth="yes"/>
			<point x="186" y="531"/>
			<point x="158" y="529"/>
			<point x="131" y="529" type="curve" smooth="yes"/>
			<point x="123" y="529"/>
			<point x="115" y="529"/>
			<point x="107" y="530" type="curve"/>
			<point x="109" y="511" type="line"/>
			<point x="130" y="511"/>
			<point x="134" y="499"/>
			<point x="135" y="484" type="curve" smooth="yes"/>
			<point x="136" y="470"/>
			<point x="136" y="456"/>
			<point x="136" y="441" type="curve" smooth="yes"/>
			<point x="136" y="419"/>
			<point x="135" y="393"/>
			<point x="133" y="362" type="curve" smooth="yes"/>
			<point x="132" y="349"/>
			<point x="127" y="343"/>
			<point x="110" y="343" type="curve"/>
		</contour>
		<contour>
			<point x="193" y="259" type="curve" smooth="yes"/>
			<point x="105" y="259"/>
			<point x="33" y="319"/>
			<point x="33" y="424" type="curve" smooth="yes"/>
			<point x="33" y="511"/>
			<point x="94" y="591"/>
			<point x="198" y="591" type="curve" smooth="yes"/>
			<point x="285" y="591"/>
			<point x="354" y="518"/>
			<point x="354" y="424" type="curve" smooth="yes"/>
			<point x="354" y="336"/>
			<point x="297" y="259"/>
		</contour>
		<contour>
			<point x="256" y="323" type="curve"/>
			<point x="300" y="323" type="line"/>
			<point x="297" y="345" type="line"/>
			<point x="273" y="344"/>
			<point x="246" y="403"/>
			<point x="229" y="430" type="curve"/>
			<point x="202" y="425" type="line"/>
			<point x="216" y="385"/>
			<point x="243" y="334"/>
		</contour>
		<contour>
			<point x="194" y="437" type="curve" smooth="yes"/>
			<point x="184" y="437"/>
			<point x="172" y="437"/>
			<point x="167" y="440" type="curve"/>
			<point x="167" y="461"/>
			<point x="167" y="490"/>
			<point x="169" y="507" type="curve"/>
			<point x="174" y="509"/>
			<point x="183" y="512"/>
			<point x="195" y="512" type="curve" smooth="yes"/>
			<point x="221" y="512"/>
			<point x="233" y="498"/>
			<point x="233" y="478" type="curve" smooth="yes"/>
			<point x="233" y="456"/>
			<point x="224" y="437"/>
		</contour>
	</outline>
</glyph>
<glyph name="macron" format="2">
	<advance width="0"/>
	<unicode hex="00AF"/>
	<outline>
		<contour>
			<point x="-179" y="680" type="line"/>
			<point x="168" y="680" type="line"/>
			<point x="169" y="706"/>
			<point x="174" y="730"/>
			<point x="176" y="751" type="curve"/>
			<point x="43" y="743"/>
			<point x="-20" y="743"/>
			<point x="-169" y="751" type="curve"/>
		</contour>
	</outline>
</glyph>
<glyph name="degree" format="2">
	<advance width="463"/>
	<unicode hex="00B0"/>
	<outline>
		<contour>
			<point x="109" y="377" type="curve"/>
			<point x="164" y="377"/>
			<point x="209" y="421"/>
			<point x="209" y="477" type="curve"/>
			<point x="209" y="533"/>
			<point x="164" y="578"/>
			<point x="109" y="578" type="curve"/>
			<point x="52" y="578"/>
			<point x="8" y="533"/>
			<point x="8" y="477" type="curve"/>
			<point x="8" y="421"/>
			<point x="52" y="377"/>
		</contour>
		<contour>
			<point x="110" y="430" type="curve"/>
			<point x="85" y="430"/>
			<point x="64" y="451"/>
			<point x="64" y="477" type="curve"/>
			<point x="64" y="501"/>
			<point x="85" y="522"/>
			<point x="110" y="522" type="curve"/>
			<point x="135" y="522"/>
			<point x="156" y="501"/>
			<point x="156" y="477" type="curve"/>
			<point x="156" y="451"/>
			<point x="135" y="430"/>
		</contour>
	</outline>
</glyph>
<glyph name="plusminus" format="2">
	<advance width="462"/>
	<unicode hex="00B1"/>
	<outline>
		<contour>
			<point x="285" y="472" type="curve"/>
			<point x="211" y="470" type="line"/>
			<point x="216" y="349"/>
			<point x="214" y="229"/>
			<point x="211" y="109" type="curve"/>
			<point x="285" y="112" type="line"/>
			<point x="281" y="219"/>
			<point x="280" y="335"/>
		</contour>
		<contour>
			<point x="60" y="326" type="curve"/>
			<point x="59" y="252" type="line"/>
			<point x="161" y="256"/>
			<point x="296" y="256"/>
			<point x="434" y="252" type="curve"/>
			<point x="441" y="326" type="line"/>
			<point x="320" y="323"/>
			<point x="179" y="323"/>
		</contour>
		<contour>
			<point x="73" y="67" type="curve"/>
			<point x="72" y="-8" type="line"/>
			<point x="174" y="-4"/>
			<point x="286" y="-4"/>
			<point x="424" y="-8" type="curve"/>
			<point x="431" y="67" type="line"/>
			<point x="310" y="63"/>
			<point x="193" y="63"/>
		</contour>
	</outline>
</glyph>
<glyph name="twosuperior" format="2">
	<advance width="359"/>
	<unicode hex="00B2"/>
	<outline>
		<contour>
			<point x="59" y="417" type="line"/>
			<point x="305" y="417" type="line"/>
			<point x="309" y="504" type="line"/>
			<point x="265" y="500" type="line"/>
			<point x="263" y="487"/>
			<point x="265" y="461"/>
			<point x="233" y="461" type="curve" smooth="yes"/>
			<point x="101" y="460" type="line"/>
			<point x="89" y="442" type="line"/>
			<point x="166" y="488"/>
			<point x="292" y="573"/>
			<point x="292" y="681" type="curve" smooth="yes"/>
			<point x="292" y="747"/>
			<point x="250" y="772"/>
			<point x="179" y="772" type="curve" smooth="yes"/>
			<point x="138" y="772"/>
			<point x="83" y="759"/>
			<point x="61" y="747" type="curve"/>
			<point x="61" y="747"/>
			<point x="60" y="714"/>
			<point x="63" y="685" type="curve"/>
			<point x="97" y="689" type="line"/>
			<point x="107" y="738"/>
			<point x="143" y="739"/>
			<point x="159" y="739" type="curve" smooth="yes"/>
			<point x="196" y="739"/>
			<point x="215" y="715"/>
			<point x="215" y="674" type="curve" smooth="yes"/>
			<point x="215" y="578"/>
			<point x="129" y="519"/>
			<point x="53" y="455" type="curve"/>
		</contour>
	</outline>
</glyph>
<glyph name="uni00B2" format="2">
	<advance width="346"/>
	<unicode hex="00B2"/>
	<outline>
		<contour>
			<point x="59" y="417" type="line"/>
			<point x="305" y="417" type="line"/>
			<point x="309" y="504" type="line"/>
			<point x="265" y="500" type="line"/>
			<point x="263" y="487"/>
			<point x="265" y="461"/>
			<point x="233" y="461" type="curve"/>
			<point x="101" y="460" type="line"/>
			<point x="89" y="442" type="line"/>
			<point x="166" y="488"/>
			<point x="293" y="574"/>
			<point x="292" y="682" type="curve"/>
			<point x="291" y="747"/>
			<point x="249" y="772"/>
			<point x="179" y="772" type="curve"/>
			<point x="138" y="772"/>
			<point x="83" y="759"/>
			<point x="61" y="747" type="curve"/>
			<point x="61" y="747"/>
			<point x="60" y="714"/>
			<point x="63" y="685" type="curve"/>
			<point x="97" y="689" type="line"/>
			<point x="106" y="732"/>
			<point x="135" y="738"/>
			<point x="153" y="739" type="curve"/>
			<point x="194" y="742"/>
			<point x="215" y="717"/>
			<point x="215" y="674" type="curve"/>
			<point x="215" y="578"/>
			<point x="129" y="519"/>
			<point x="53" y="455" type="curve"/>
		</contour>
	</outline>
</glyph>
<glyph name="threesuperior" format="2">
	<advance width="287"/>
	<unicode hex="00B3"/>
	<outline>
		<contour>
			<point x="102" y="411" type="curve" smooth="yes"/>
			<point x="178" y="411"/>
			<point x="237" y="449"/>
			<point x="237" y="518" type="curve" smooth="yes"/>
			<point x="237" y="563"/>
			<point x="199" y="603"/>
			<point x="131" y="603" type="curve" smooth="yes"/>
			<point x="123" y="603"/>
			<point x="114" y="602"/>
			<point x="104" y="601" type="curve"/>
			<point x="117" y="594" type="line"/>
			<point x="196" y="613"/>
			<point x="224" y="653"/>
			<point x="224" y="701" type="curve" smooth="yes"/>
			<point x="224" y="746"/>
			<point x="195" y="774"/>
			<point x="124" y="774" type="curve" smooth="yes"/>
			<point x="87" y="774"/>
			<point x="46" y="764"/>
			<point x="24" y="753" type="curve"/>
			<point x="24" y="753"/>
			<point x="23" y="745"/>
			<point x="23" y="732" type="curve" smooth="yes"/>
			<point x="23" y="721"/>
			<point x="24" y="706"/>
			<point x="25" y="693" type="curve"/>
			<point x="60" y="697" type="line"/>
			<point x="66" y="730"/>
			<point x="80" y="745"/>
			<point x="112" y="745" type="curve" smooth="yes"/>
			<point x="142" y="745"/>
			<point x="166" y="732"/>
			<point x="166" y="697" type="curve" smooth="yes"/>
			<point x="166" y="652"/>
			<point x="120" y="619"/>
			<point x="54" y="610" type="curve"/>
			<point x="58" y="579" type="line"/>
			<point x="152" y="581"/>
			<point x="183" y="555"/>
			<point x="183" y="513" type="curve" smooth="yes"/>
			<point x="183" y="477"/>
			<point x="163" y="448"/>
			<point x="119" y="448" type="curve" smooth="yes"/>
			<point x="79" y="448"/>
			<point x="49" y="470"/>
			<point x="37" y="493" type="curve"/>
			<point x="29" y="477"/>
			<point x="24" y="448"/>
			<point x="24" y="427" type="curve" smooth="yes"/>
			<point x="24" y="424"/>
			<point x="25" y="422"/>
			<point x="25" y="420" type="curve"/>
			<point x="42" y="416"/>
			<point x="69" y="411"/>
		</contour>
	</outline>
</glyph>
<glyph name="acute" format="2">
	<advance width="0"/>
	<unicode hex="00B4"/>
	<outline>
		<contour>
			<point x="-86" y="640" type="line"/>
			<point x="-35" y="662"/>
			<point x="75" y="740"/>
			<point x="116" y="772" type="curve"/>
			<point x="112" y="799"/>
			<point x="84" y="830"/>
			<point x="65" y="843" type="curve"/>
			<point x="23" y="801"/>
			<point x="-72" y="721"/>
			<point x="-110" y="693" type="curve"/>
		</contour>
	</outline>
</glyph>
<glyph name="micro" format="2">
	<advance width="561"/>
	<unicode hex="00B5"/>
	<anchor x="257" y="8" name="ogonek"/>
	<anchor x="265" y="514" name="top"/>
	<outline>
		<contour>
			<point x="82" y="-179" type="line"/>
			<point x="164" y="-179" type="line"/>
			<point x="158" y="-109"/>
			<point x="154" y="-40"/>
			<point x="154" y="20" type="curve" smooth="yes"/>
			<point x="154" y="35"/>
			<point x="155" y="49"/>
			<point x="155" y="63" type="curve"/>
			<point x="144" y="47" type="line"/>
			<point x="146" y="39"/>
			<point x="166" y="-3"/>
			<point x="236" y="-3" type="curve" smooth="yes"/>
			<point x="314" y="-3"/>
			<point x="369" y="59"/>
			<point x="407" y="111" type="curve"/>
			<point x="387" y="139" type="line"/>
			<point x="387" y="139"/>
			<point x="335" y="69"/>
			<point x="257" y="69" type="curve" smooth="yes"/>
			<point x="212" y="69"/>
			<point x="176" y="95"/>
			<point x="170" y="143" type="curve" smooth="yes"/>
			<point x="167" y="166"/>
			<point x="166" y="193"/>
			<point x="166" y="227" type="curve" smooth="yes"/>
			<point x="166" y="309"/>
			<point x="166" y="357"/>
			<point x="172" y="463" type="curve"/>
			<point x="134" y="463"/>
			<point x="115" y="457"/>
			<point x="82" y="454" type="curve"/>
			<point x="89" y="399"/>
			<point x="92" y="297"/>
			<point x="92" y="209" type="curve" smooth="yes"/>
			<point x="92" y="180"/>
			<point x="92" y="152"/>
			<point x="91" y="128" type="curve" smooth="yes"/>
		</contour>
		<contour>
			<point x="379" y="0" type="curve"/>
			<point x="549" y="0" type="line"/>
			<point x="542" y="43" type="line"/>
			<point x="456" y="45"/>
			<point x="455" y="89"/>
			<point x="455" y="169" type="curve" smooth="yes"/>
			<point x="455" y="240"/>
			<point x="460" y="353"/>
			<point x="468" y="464" type="curve"/>
			<point x="436" y="464"/>
			<point x="409" y="461"/>
			<point x="378" y="454" type="curve"/>
			<point x="382" y="405"/>
			<point x="383" y="361"/>
			<point x="383" y="318" type="curve" smooth="yes"/>
			<point x="383" y="190" type="line" smooth="yes"/>
			<point x="383" y="156"/>
			<point x="383" y="124"/>
			<point x="382" y="92" type="curve"/>
			<point x="382" y="92"/>
			<point x="390" y="109"/>
			<point x="396" y="109" type="curve" smooth="yes"/>
			<point x="398" y="109"/>
			<point x="393" y="105"/>
			<point x="393" y="99" type="curve"/>
			<point x="389" y="79"/>
			<point x="379" y="0"/>
		</contour>
	</outline>
</glyph>
<glyph name="paragraph" format="2">
	<advance width="642"/>
	<unicode hex="00B6"/>
	<outline>
		<contour>
			<point x="277" y="203" type="curve" smooth="yes"/>
			<point x="315" y="203"/>
			<point x="331" y="204"/>
			<point x="360" y="212" type="curve"/>
			<point x="356" y="237"/>
			<point x="353" y="292"/>
			<point x="353" y="362" type="curve" smooth="yes"/>
			<point x="353" y="413"/>
			<point x="354" y="472"/>
			<point x="359" y="534" type="curve"/>
			<point x="403" y="537"/>
			<point x="534" y="542"/>
			<point x="600" y="544" type="curve"/>
			<point x="604" y="616" type="line"/>
			<point x="571" y="614"/>
			<point x="537" y="613"/>
			<point x="502" y="613" type="curve" smooth="yes"/>
			<point x="459" y="613"/>
			<point x="416" y="614"/>
			<point x="373" y="614" type="curve" smooth="yes"/>
			<point x="335" y="614"/>
			<point x="296" y="613"/>
			<point x="259" y="611" type="curve" smooth="yes"/>
			<point x="133" y="604"/>
			<point x="70" y="535"/>
			<point x="69" y="418" type="curve" smooth="yes"/>
			<point x="69" y="293"/>
			<point x="162" y="203"/>
		</contour>
		<contour>
			<point x="426" y="-124" type="curve"/>
			<point x="534" y="-119" type="line"/>
			<point x="530" y="-78"/>
			<point x="529" y="43"/>
			<point x="529" y="176" type="curve" smooth="yes"/>
			<point x="529" y="350"/>
			<point x="531" y="545"/>
			<point x="534" y="609" type="curve"/>
			<point x="515" y="606"/>
			<point x="460" y="603"/>
			<point x="440" y="601" type="curve"/>
			<point x="442" y="558"/>
			<point x="442" y="508"/>
			<point x="442" y="455" type="curve" smooth="yes"/>
			<point x="442" y="255"/>
			<point x="432" y="7"/>
		</contour>
	</outline>
</glyph>
<glyph name="periodcentered" format="2">
	<advance width="307"/>
	<unicode hex="00B7"/>
	<outline>
		<contour>
			<point x="156" y="169" type="curve" smooth="yes"/>
			<point x="203" y="169"/>
			<point x="245" y="206"/>
			<point x="245" y="263" type="curve" smooth="yes"/>
			<point x="245" y="316"/>
			<point x="203" y="351"/>
			<point x="153" y="351" type="curve" smooth="yes"/>
			<point x="100" y="351"/>
			<point x="62" y="314"/>
			<point x="62" y="261" type="curve" smooth="yes"/>
			<point x="62" y="213"/>
			<point x="94" y="169"/>
		</contour>
	</outline>
</glyph>
<glyph name="cedilla" format="2">
	<advance width="0"/>
	<unicode hex="00B8"/>
	<outline>
		<contour>
			<point x="10" y="-239" type="curve" smooth="yes"/>
			<point x="107" y="-239"/>
			<point x="172" y="-194"/>
			<point x="172" y="-122" type="curve" smooth="yes"/>
			<point x="172" y="-80"/>
			<point x="136" y="-54"/>
			<point x="79" y="-54" type="curve"/>
			<point x="51" y="-53"/>
			<point x="27" y="-61"/>
			<point x="14" y="-65" type="curve"/>
			<point x="12" y="-66"/>
			<point x="38" y="-71"/>
			<point x="35" y="-72" type="curve"/>
			<point x="25" y="1" type="line"/>
			<point x="9" y="0"/>
			<point x="-7" y="-1"/>
			<point x="-23" y="0" type="curve"/>
			<point x="-31" y="-110" type="line"/>
			<point x="-18" y="-108"/>
			<point x="-2" y="-107"/>
			<point x="14" y="-107" type="curve" smooth="yes"/>
			<point x="50" y="-107"/>
			<point x="84" y="-114"/>
			<point x="84" y="-142" type="curve" smooth="yes"/>
			<point x="84" y="-172"/>
			<point x="49" y="-194"/>
			<point x="15" y="-195" type="curve" smooth="yes"/>
			<point x="-11" y="-196"/>
			<point x="-38" y="-192"/>
			<point x="-62" y="-180" type="curve"/>
			<point x="-82" y="-218" type="line"/>
			<point x="-66" y="-226"/>
			<point x="-34" y="-239"/>
		</contour>
	</outline>
</glyph>
<glyph name="onesuperior" format="2">
	<advance width="255"/>
	<unicode hex="00B9"/>
	<outline>
		<contour>
			<point x="52" y="414" type="line"/>
			<point x="208" y="414" type="line"/>
			<point x="203" y="455" type="line"/>
			<point x="191" y="455"/>
			<point x="161" y="452"/>
			<point x="161" y="492" type="curve" smooth="yes"/>
			<point x="161" y="581"/>
			<point x="163" y="738"/>
			<point x="167" y="770" type="curve"/>
			<point x="167" y="770"/>
			<point x="80" y="747"/>
			<point x="36" y="748" type="curve"/>
			<point x="38" y="714" type="line"/>
			<point x="70" y="714"/>
			<point x="99" y="701"/>
			<point x="100" y="681" type="curve"/>
			<point x="102" y="667"/>
			<point x="103" y="632"/>
			<point x="103" y="591" type="curve" smooth="yes"/>
			<point x="103" y="559"/>
			<point x="102" y="523"/>
			<point x="100" y="490" type="curve" smooth="yes"/>
			<point x="98" y="460"/>
			<point x="75" y="453"/>
			<point x="49" y="454" type="curve"/>
		</contour>
	</outline>
</glyph>
<glyph name="uni00B9" format="2">
	<advance width="255"/>
	<unicode hex="00B9"/>
	<outline>
		<contour>
			<point x="208" y="414" type="line"/>
			<point x="203" y="455" type="line"/>
			<point x="191" y="455"/>
			<point x="160" y="452"/>
			<point x="161" y="494" type="curve"/>
			<point x="162" y="583"/>
			<point x="163" y="738"/>
			<point x="167" y="770" type="curve"/>
			<point x="167" y="770"/>
			<point x="80" y="747"/>
			<point x="36" y="748" type="curve"/>
			<point x="38" y="714" type="line"/>
			<point x="70" y="714"/>
			<point x="99" y="701"/>
			<point x="100" y="681" type="curve"/>
			<point x="103" y="656"/>
			<point x="105" y="564"/>
			<point x="100" y="490" type="curve"/>
			<point x="98" y="460"/>
			<point x="75" y="453"/>
			<point x="49" y="454" type="curve"/>
			<point x="52" y="414" type="line"/>
		</contour>
	</outline>
</glyph>
<glyph name="questiondown" format="2">
	<advance width="462"/>
	<unicode hex="00BF"/>
	<outline>
		<contour>
			<point x="162" y="-7" type="curve" smooth="yes"/>
			<point x="229" y="-7"/>
			<point x="296" y="21"/>
			<point x="337" y="46" type="curve"/>
			<point x="318" y="76" type="line"/>
			<point x="295" y="63"/>
			<point x="262" y="43"/>
			<point x="220" y="46" type="curve" smooth="yes"/>
			<point x="137" y="53"/>
			<point x="98" y="104"/>
			<point x="98" y="170" type="curve" smooth="yes"/>
			<point x="98" y="180"/>
			<point x="99" y="190"/>
			<point x="101" y="200" type="curve"/>
			<point x="117" y="302"/>
			<point x="229" y="326"/>
			<point x="270" y="330" type="curve"/>
			<point x="270" y="348"/>
			<point x="274" y="430"/>
			<point x="275" y="458" type="curve"/>
			<point x="188" y="457" type="line"/>
			<point x="191" y="440"/>
			<point x="198" y="380"/>
			<point x="198" y="330" type="curve" smooth="yes"/>
			<point x="198" y="319"/>
			<point x="239" y="371"/>
			<point x="235" y="365" type="curve"/>
			<point x="169" y="344"/>
			<point x="44" y="307"/>
			<point x="17" y="163" type="curve" smooth="yes"/>
			<point x="14" y="149"/>
			<point x="13" y="136"/>
			<point x="13" y="124" type="curve" smooth="yes"/>
			<point x="13" y="33"/>
			<point x="82" y="-7"/>
		</contour>
		<contour>
			<point x="251" y="46" type="curve"/>
			<point x="337" y="46" type="line"/>
			<point x="338" y="54"/>
			<point x="339" y="67"/>
			<point x="339" y="80" type="curve" smooth="yes"/>
			<point x="339" y="110"/>
			<point x="336" y="147"/>
			<point x="332" y="163" type="curve"/>
			<point x="266" y="154" type="line"/>
			<point x="264" y="127"/>
			<point x="259" y="73"/>
		</contour>
		<component base="period" xScale="-1" yScale="-1" xOffset="348" yOffset="617"/>
	</outline>
</glyph>
<glyph name="AE" format="2">
	<advance width="887"/>
	<unicode hex="00C6"/>
	<outline>
		<contour>
			<point x="23" y="0" type="line"/>
			<point x="247" y="0" type="line"/>
			<point x="239" y="39" type="line"/>
			<point x="212" y="39"/>
			<point x="193" y="38"/>
			<point x="193" y="70" type="curve" smooth="yes"/>
			<point x="193" y="81"/>
			<point x="195" y="94"/>
			<point x="199" y="112" type="curve" smooth="yes"/>
			<point x="210" y="164"/>
			<point x="323" y="410"/>
			<point x="399" y="568" type="curve"/>
			<point x="373" y="548" type="line"/>
			<point x="385" y="551"/>
			<point x="397" y="554"/>
			<point x="407" y="554" type="curve" smooth="yes"/>
			<point x="430" y="554"/>
			<point x="446" y="543"/>
			<point x="448" y="511" type="curve" smooth="yes"/>
			<point x="450" y="460"/>
			<point x="452" y="405"/>
			<point x="452" y="351" type="curve" smooth="yes"/>
			<point x="452" y="263"/>
			<point x="449" y="176"/>
			<point x="444" y="109" type="curve" smooth="yes"/>
			<point x="440" y="71"/>
			<point x="436" y="52"/>
			<point x="377" y="47" type="curve"/>
			<point x="381" y="0" type="line"/>
			<point x="831" y="0" type="line"/>
			<point x="834" y="40"/>
			<point x="834" y="89"/>
			<point x="834" y="123" type="curve" smooth="yes"/>
			<point x="834" y="163" type="line"/>
			<point x="778" y="157" type="line"/>
			<point x="767" y="106"/>
			<point x="749" y="60"/>
			<point x="716" y="22" type="curve"/>
			<point x="776" y="70" type="line"/>
			<point x="745" y="62"/>
			<point x="668" y="55"/>
			<point x="608" y="55" type="curve" smooth="yes"/>
			<point x="593" y="55"/>
			<point x="574" y="55"/>
			<point x="564" y="56" type="curve" smooth="yes"/>
			<point x="537" y="59"/>
			<point x="533" y="83"/>
			<point x="532" y="104" type="curve" smooth="yes"/>
			<point x="531" y="146"/>
			<point x="529" y="203"/>
			<point x="529" y="266" type="curve" smooth="yes"/>
			<point x="529" y="343"/>
			<point x="531" y="432"/>
			<point x="540" y="518" type="curve" smooth="yes"/>
			<point x="542" y="539"/>
			<point x="551" y="562"/>
			<point x="590" y="562" type="curve" smooth="yes"/>
			<point x="646" y="562"/>
			<point x="716" y="562"/>
			<point x="778" y="556" type="curve"/>
			<point x="705" y="594" type="line"/>
			<point x="738" y="564"/>
			<point x="758" y="511"/>
			<point x="763" y="465" type="curve"/>
			<point x="819" y="460" type="line"/>
			<point x="819" y="460"/>
			<point x="824" y="509"/>
			<point x="824" y="554" type="curve"/>
			<point x="823" y="617" type="line"/>
			<point x="748" y="613"/>
			<point x="662" y="612"/>
			<point x="616" y="612" type="curve" smooth="yes"/>
			<point x="560" y="612" type="line" smooth="yes"/>
			<point x="529" y="612"/>
			<point x="337" y="616"/>
			<point x="333" y="615" type="curve"/>
			<point x="289" y="496"/>
			<point x="198" y="289"/>
			<point x="104" y="105" type="curve" smooth="yes"/>
			<point x="85" y="69"/>
			<point x="61" y="50"/>
			<point x="15" y="47" type="curve"/>
		</contour>
		<contour>
			<point x="220" y="268" type="line"/>
			<point x="288" y="276"/>
			<point x="610" y="280"/>
			<point x="673" y="280" type="curve" smooth="yes"/>
			<point x="699" y="280"/>
			<point x="726" y="280"/>
			<point x="755" y="278" type="curve"/>
			<point x="755" y="348" type="line"/>
			<point x="614" y="335" type="line"/>
			<point x="521" y="335"/>
			<point x="415" y="333"/>
			<point x="323" y="333" type="curve" smooth="yes"/>
			<point x="289" y="333"/>
			<point x="257" y="333"/>
			<point x="228" y="334" type="curve"/>
		</contour>
	</outline>
</glyph>
<glyph name="multiply" format="2">
	<advance width="462"/>
	<unicode hex="00D7"/>
	<outline>
		<contour>
			<point x="147" y="392" type="curve"/>
			<point x="92" y="337" type="line"/>
			<point x="179" y="255"/>
			<point x="285" y="149"/>
			<point x="365" y="65" type="curve"/>
			<point x="421" y="121" type="line"/>
			<point x="349" y="188"/>
			<point x="242" y="295"/>
		</contour>
		<contour>
			<point x="418" y="335" type="curve"/>
			<point x="362" y="391" type="line"/>
			<point x="280" y="303"/>
			<point x="176" y="202"/>
			<point x="90" y="119" type="curve"/>
			<point x="146" y="63" type="line"/>
			<point x="219" y="141"/>
			<point x="318" y="241"/>
		</contour>
	</outline>
</glyph>
<glyph name="Thorn" format="2">
	<advance width="544"/>
	<unicode hex="00DE"/>
	<outline>
		<contour>
			<point x="232" y="153" type="curve" smooth="yes"/>
			<point x="380" y="153"/>
			<point x="514" y="213"/>
			<point x="514" y="353" type="curve" smooth="yes"/>
			<point x="514" y="464"/>
			<point x="427" y="514"/>
			<point x="322" y="514" type="curve" smooth="yes"/>
			<point x="270" y="514"/>
			<point x="219" y="507"/>
			<point x="193" y="500" type="curve"/>
			<point x="193" y="457" type="line"/>
			<point x="207" y="465"/>
			<point x="268" y="467"/>
			<point x="292" y="467" type="curve" smooth="yes"/>
			<point x="377" y="465"/>
			<point x="414" y="415"/>
			<point x="414" y="357" type="curve" smooth="yes"/>
			<point x="414" y="266"/>
			<point x="367" y="199"/>
			<point x="281" y="199" type="curve" smooth="yes"/>
			<point x="223" y="199"/>
			<point x="182" y="231"/>
			<point x="182" y="231" type="curve"/>
			<point x="152" y="163" type="line"/>
			<point x="169" y="156"/>
			<point x="199" y="153"/>
		</contour>
		<component base="I"/>
	</outline>
</glyph>
<glyph name="germandbls" format="2">
	<advance width="552"/>
	<unicode hex="00DF"/>
	<outline>
		<contour>
			<point x="377" y="-8" type="curve"/>
			<point x="468" y="-8"/>
			<point x="521" y="63"/>
			<point x="521" y="143" type="curve" smooth="yes"/>
			<point x="521" y="226"/>
			<point x="459" y="316"/>
			<point x="322" y="359" type="curve"/>
			<point x="337" y="329" type="line"/>
			<point x="368" y="360"/>
			<point x="441" y="427"/>
			<point x="441" y="500" type="curve" smooth="yes"/>
			<point x="441" y="579"/>
			<point x="379" y="634"/>
			<point x="277" y="634" type="curve" smooth="yes"/>
			<point x="192" y="634"/>
			<point x="108" y="596"/>
			<point x="108" y="497" type="curve" smooth="yes"/>
			<point x="108" y="428" type="line"/>
			<point x="144" y="441" type="line"/>
			<point x="94" y="433"/>
			<point x="49" y="429"/>
			<point x="15" y="429" type="curve"/>
			<point x="20" y="381" type="line"/>
			<point x="97" y="381"/>
			<point x="107" y="361"/>
			<point x="115" y="311" type="curve"/>
			<point x="106" y="404" type="line"/>
			<point x="109" y="342"/>
			<point x="110" y="268"/>
			<point x="110" y="195" type="curve" smooth="yes"/>
			<point x="110" y="160"/>
			<point x="107" y="126"/>
			<point x="103" y="105" type="curve"/>
			<point x="98" y="68"/>
			<point x="84" y="47"/>
			<point x="34" y="47" type="curve" smooth="yes"/>
			<point x="24" y="47" type="line"/>
			<point x="32" y="0" type="line"/>
			<point x="202" y="0" type="line"/>
			<point x="197" y="44"/>
			<point x="194" y="88"/>
			<point x="193" y="132" type="curve" smooth="yes"/>
			<point x="192" y="176"/>
			<point x="188" y="277"/>
			<point x="188" y="375" type="curve" smooth="yes"/>
			<point x="188" y="431"/>
			<point x="189" y="485"/>
			<point x="193" y="527" type="curve"/>
			<point x="195" y="562"/>
			<point x="211" y="589"/>
			<point x="248" y="589" type="curve" smooth="yes"/>
			<point x="305" y="589"/>
			<point x="345" y="544"/>
			<point x="345" y="484" type="curve" smooth="yes"/>
			<point x="345" y="406"/>
			<point x="296" y="340"/>
			<point x="276" y="312" type="curve"/>
			<point x="292" y="293" type="line"/>
			<point x="400" y="258"/>
			<point x="429" y="180"/>
			<point x="429" y="125" type="curve" smooth="yes"/>
			<point x="429" y="74"/>
			<point x="401" y="33"/>
			<point x="362" y="33" type="curve" smooth="yes"/>
			<point x="326" y="33"/>
			<point x="300" y="47"/>
			<point x="283" y="60" type="curve"/>
			<point x="295" y="41"/>
			<point x="322" y="27"/>
			<point x="349" y="22" type="curve"/>
			<point x="310" y="47"/>
			<point x="304" y="91"/>
			<point x="300" y="125" type="curve"/>
			<point x="250" y="126" type="line"/>
			<point x="248" y="105"/>
			<point x="247" y="83"/>
			<point x="247" y="62" type="curve" smooth="yes"/>
			<point x="247" y="42"/>
			<point x="249" y="19"/>
			<point x="252" y="9" type="curve"/>
			<point x="252" y="9"/>
			<point x="307" y="-11"/>
		</contour>
	</outline>
</glyph>
